STARTFONT 2.1
COMMENT
COMMENT Converted from OpenType font "Ubuntu-Regular.ttf" by "otf2bdf 3.0".
COMMENT
FONT -FreeType-Ubuntu-Medium-R-Normal--25-180-100-100-P-135-ISO10646-1
SIZE 18 100 100
FONTBOUNDINGBOX 91 29 -4 -5
STARTPROPERTIES 19
FOUNDRY "FreeType"
FAMILY_NAME "Ubuntu"
WEIGHT_NAME "Medium"
SLANT "R"
SETWIDTH_NAME "Normal"
ADD_STYLE_NAME ""
PIXEL_SIZE 25
POINT_SIZE 180
RESOLUTION_X 100
RESOLUTION_Y 100
SPACING "P"
AVERAGE_WIDTH 135
CHARSET_REGISTRY "ISO10646"
CHARSET_ENCODING "1"
FONT_ASCENT 23
FONT_DESCENT 4
COPYRIGHT "Copyright 2011 Canonical Ltd.  Licensed under the Ubuntu Font Licence 1.0"
_OTF_FONTFILE "Ubuntu-Regular.ttf"
_OTF_PSNAME "Ubuntu-Regular"
ENDPROPERTIES
CHARS 1194
STARTCHAR 0000
ENCODING 0
SWIDTH 0 0
DWIDTH 0 0
BBX 0 0 0 0
BITMAP
ENDCHAR
STARTCHAR 0008
ENCODING 8
SWIDTH 0 0
DWIDTH 0 0
BBX 0 0 0 0
BITMAP
ENDCHAR
STARTCHAR 0009
ENCODING 9
SWIDTH 200 0
DWIDTH 5 0
BBX 0 0 0 0
BITMAP
ENDCHAR
STARTCHAR 000D
ENCODING 13
SWIDTH 200 0
DWIDTH 5 0
BBX 0 0 0 0
BITMAP
ENDCHAR
STARTCHAR 001D
ENCODING 29
SWIDTH 0 0
DWIDTH 0 0
BBX 0 0 0 0
BITMAP
ENDCHAR
STARTCHAR 0020
ENCODING 32
SWIDTH 200 0
DWIDTH 5 0
BBX 0 0 0 0
BITMAP
ENDCHAR
STARTCHAR 0021
ENCODING 33
SWIDTH 240 0
DWIDTH 6 0
BBX 3 17 2 0
BITMAP
E0
E0
E0
E0
E0
E0
E0
E0
E0
C0
40
40
00
00
E0
E0
E0
ENDCHAR
STARTCHAR 0022
ENCODING 34
SWIDTH 400 0
DWIDTH 10 0
BBX 7 6 2 13
BITMAP
CE
CE
CE
CE
CC
C4
ENDCHAR
STARTCHAR 0023
ENCODING 35
SWIDTH 640 0
DWIDTH 16 0
BBX 14 17 1 0
BITMAP
0618
0618
0C38
0C30
FFFC
FFFC
0C30
1830
1860
1860
1860
FFFC
3860
30C0
30C0
30C0
30C0
ENDCHAR
STARTCHAR 0024
ENCODING 36
SWIDTH 560 0
DWIDTH 14 0
BBX 10 22 2 -3
BITMAP
0C00
0C00
0E00
7FC0
F180
E000
C000
E000
F000
7C00
3F00
0780
01C0
00C0
00C0
00C0
E3C0
FF80
1C00
0C00
0C00
0C00
ENDCHAR
STARTCHAR 0025
ENCODING 37
SWIDTH 840 0
DWIDTH 21 0
BBX 19 18 1 0
BITMAP
1C0000
7E0600
670E00
C30C00
C31C00
C31800
E33000
673000
3E6000
00E380
00CFC0
01CC60
019860
039860
031860
061C60
060EE0
0C07C0
ENDCHAR
STARTCHAR 0026
ENCODING 38
SWIDTH 640 0
DWIDTH 16 0
BBX 15 18 1 0
BITMAP
0700
1FC0
38C0
30E0
3060
30C0
39C0
1F80
0F00
3F08
738C
61CC
E0F8
C078
E038
607C
7FEC
1F86
ENDCHAR
STARTCHAR 0027
ENCODING 39
SWIDTH 240 0
DWIDTH 6 0
BBX 2 6 2 13
BITMAP
C0
C0
C0
C0
C0
C0
ENDCHAR
STARTCHAR 0028
ENCODING 40
SWIDTH 320 0
DWIDTH 8 0
BBX 6 23 2 -4
BITMAP
1C
18
38
30
70
60
60
E0
E0
C0
C0
C0
C0
C0
C0
E0
60
60
70
30
38
18
1C
ENDCHAR
STARTCHAR 0029
ENCODING 41
SWIDTH 320 0
DWIDTH 8 0
BBX 6 23 0 -4
BITMAP
E0
60
70
30
38
18
18
1C
0C
0C
0C
0C
0C
0C
0C
1C
1C
18
38
30
70
60
E0
ENDCHAR
STARTCHAR 002A
ENCODING 42
SWIDTH 480 0
DWIDTH 12 0
BBX 10 9 1 8
BITMAP
0C00
0C00
CCC0
FFC0
7F80
1E00
3F00
7380
2100
ENDCHAR
STARTCHAR 002B
ENCODING 43
SWIDTH 560 0
DWIDTH 14 0
BBX 12 13 1 1
BITMAP
0600
0600
0600
0600
0600
0600
FFF0
FFF0
0600
0600
0600
0600
0600
ENDCHAR
STARTCHAR 002C
ENCODING 44
SWIDTH 240 0
DWIDTH 6 0
BBX 3 7 1 -4
BITMAP
60
60
60
60
60
C0
C0
ENDCHAR
STARTCHAR 002D
ENCODING 45
SWIDTH 280 0
DWIDTH 7 0
BBX 6 3 1 6
BITMAP
FC
FC
FC
ENDCHAR
STARTCHAR 002E
ENCODING 46
SWIDTH 240 0
DWIDTH 6 0
BBX 4 3 1 0
BITMAP
60
F0
70
ENDCHAR
STARTCHAR 002F
ENCODING 47
SWIDTH 360 0
DWIDTH 9 0
BBX 11 25 -1 -5
BITMAP
0060
00E0
00C0
00C0
01C0
0180
0180
0380
0300
0300
0700
0600
0600
0E00
0C00
0C00
1C00
1800
1800
3800
3000
7000
7000
6000
E000
ENDCHAR
STARTCHAR 0030
ENCODING 48
SWIDTH 560 0
DWIDTH 14 0
BBX 12 18 1 0
BITMAP
0700
1F80
39C0
70E0
6060
6060
E070
E070
E070
E070
E070
E070
E070
6060
7060
70E0
3FC0
1F80
ENDCHAR
STARTCHAR 0031
ENCODING 49
SWIDTH 560 0
DWIDTH 14 0
BBX 7 17 2 0
BITMAP
06
0E
3E
F6
46
06
06
06
06
06
06
06
06
06
06
06
06
ENDCHAR
STARTCHAR 0032
ENCODING 50
SWIDTH 560 0
DWIDTH 14 0
BBX 11 18 1 0
BITMAP
0E00
7F80
F3C0
40C0
00E0
00E0
00C0
01C0
0180
0380
0700
0E00
1C00
3800
7000
6000
7FE0
7FE0
ENDCHAR
STARTCHAR 0033
ENCODING 51
SWIDTH 560 0
DWIDTH 14 0
BBX 11 18 1 0
BITMAP
1E00
7F80
73C0
00C0
00C0
00C0
00C0
0380
1F00
1FC0
01C0
00E0
0060
0060
00E0
00E0
7FC0
FF80
ENDCHAR
STARTCHAR 0034
ENCODING 52
SWIDTH 560 0
DWIDTH 14 0
BBX 12 17 1 0
BITMAP
01C0
03C0
07C0
06C0
0CC0
18C0
38C0
30C0
60C0
60C0
C0C0
FFF0
FFF0
00C0
00C0
00C0
00C0
ENDCHAR
STARTCHAR 0035
ENCODING 53
SWIDTH 560 0
DWIDTH 14 0
BBX 10 17 2 0
BITMAP
7FC0
7FC0
6000
6000
6000
6000
7000
7F00
0F80
01C0
01C0
00C0
00C0
00C0
01C0
FF80
FF00
ENDCHAR
STARTCHAR 0036
ENCODING 54
SWIDTH 560 0
DWIDTH 14 0
BBX 11 17 2 0
BITMAP
07C0
1FC0
3800
7000
6000
E000
CC00
FF80
E3C0
C0C0
C0E0
C0E0
C0E0
E0E0
E1C0
7FC0
3F00
ENDCHAR
STARTCHAR 0037
ENCODING 55
SWIDTH 560 0
DWIDTH 14 0
BBX 12 17 1 0
BITMAP
FFF0
FFF0
00E0
00C0
01C0
0380
0300
0300
0700
0600
0E00
0E00
0C00
0C00
1C00
1C00
1C00
ENDCHAR
STARTCHAR 0038
ENCODING 56
SWIDTH 560 0
DWIDTH 14 0
BBX 12 18 1 0
BITMAP
0600
3FC0
39E0
6060
6060
6060
7060
78C0
3F80
1F80
31E0
6060
6070
E070
E070
6060
7FE0
3FC0
ENDCHAR
STARTCHAR 0039
ENCODING 57
SWIDTH 560 0
DWIDTH 14 0
BBX 12 18 1 0
BITMAP
0E00
3F80
79C0
60E0
E060
E060
E060
E070
7070
7FE0
1FE0
0060
00E0
00C0
01C0
0780
7F00
7800
ENDCHAR
STARTCHAR 003A
ENCODING 58
SWIDTH 240 0
DWIDTH 6 0
BBX 4 13 1 0
BITMAP
60
F0
70
00
00
00
00
00
00
00
60
F0
70
ENDCHAR
STARTCHAR 003B
ENCODING 59
SWIDTH 240 0
DWIDTH 6 0
BBX 4 17 1 -4
BITMAP
60
F0
70
00
00
00
00
00
00
00
60
60
60
60
60
C0
C0
ENDCHAR
STARTCHAR 003C
ENCODING 60
SWIDTH 560 0
DWIDTH 14 0
BBX 12 11 1 2
BITMAP
0020
01F0
07C0
1F00
F800
E000
F800
1F00
07C0
01F0
0020
ENDCHAR
STARTCHAR 003D
ENCODING 61
SWIDTH 560 0
DWIDTH 14 0
BBX 12 7 1 4
BITMAP
FFF0
FFF0
0000
0000
0000
FFF0
FFF0
ENDCHAR
STARTCHAR 003E
ENCODING 62
SWIDTH 560 0
DWIDTH 14 0
BBX 12 11 1 2
BITMAP
4000
F800
3E00
0F80
01F0
0070
01F0
0FC0
3E00
F800
4000
ENDCHAR
STARTCHAR 003F
ENCODING 63
SWIDTH 400 0
DWIDTH 10 0
BBX 8 18 1 0
BITMAP
38
FE
C7
03
03
03
07
0E
1C
18
30
30
30
00
00
30
38
38
ENDCHAR
STARTCHAR 0040
ENCODING 64
SWIDTH 920 0
DWIDTH 23 0
BBX 20 22 2 -4
BITMAP
00F000
07FE00
1F0F80
3801C0
7000E0
607860
E1FC70
C38C30
C70C30
C60C30
C60C30
C60C30
C60C30
C70C70
C38E60
E3FFC0
60F380
700000
380000
1F0000
07FC00
00FC00
ENDCHAR
STARTCHAR 0041
ENCODING 65
SWIDTH 640 0
DWIDTH 16 0
BBX 16 17 0 0
BITMAP
01C0
03C0
03E0
0760
0670
0670
0E30
0C38
1C18
181C
181C
3FFC
3FFE
700E
7006
6007
E003
ENDCHAR
STARTCHAR 0042
ENCODING 66
SWIDTH 640 0
DWIDTH 16 0
BBX 13 17 2 1
BITMAP
FFC0
FFE0
E070
E070
E070
E070
E0E0
FFC0
FFE0
E070
E038
E038
E038
E038
E070
FFE0
FF80
ENDCHAR
STARTCHAR 0043
ENCODING 67
SWIDTH 600 0
DWIDTH 15 0
BBX 14 18 1 0
BITMAP
01E0
0FFC
1F38
3800
3000
7000
6000
6000
E000
E000
E000
6000
6000
7000
3800
3C00
1FFC
07F8
ENDCHAR
STARTCHAR 0044
ENCODING 68
SWIDTH 680 0
DWIDTH 17 0
BBX 14 17 2 1
BITMAP
FFC0
FFE0
E078
E038
E01C
E01C
E00C
E00C
E00C
E00C
E00C
E01C
E01C
E038
E0F0
FFE0
FF80
ENDCHAR
STARTCHAR 0045
ENCODING 69
SWIDTH 560 0
DWIDTH 14 0
BBX 11 17 2 0
BITMAP
FFE0
FFE0
E000
E000
E000
E000
E000
FFC0
FFC0
E000
E000
E000
E000
E000
E000
FFE0
FFE0
ENDCHAR
STARTCHAR 0046
ENCODING 70
SWIDTH 520 0
DWIDTH 13 0
BBX 11 17 2 0
BITMAP
FFE0
FFE0
E000
E000
E000
E000
E000
FFC0
FFC0
E000
E000
E000
E000
E000
E000
E000
E000
ENDCHAR
STARTCHAR 0047
ENCODING 71
SWIDTH 640 0
DWIDTH 16 0
BBX 14 18 1 0
BITMAP
01E0
0FFC
1F3C
3800
3000
7000
6000
6000
E000
E00C
E00C
600C
600C
700C
380C
3C0C
1FFC
07FC
ENDCHAR
STARTCHAR 0048
ENCODING 72
SWIDTH 680 0
DWIDTH 17 0
BBX 13 17 2 0
BITMAP
E018
E018
E018
E018
E018
E018
E018
FFF8
FFF8
E018
E018
E018
E018
E018
E018
E018
E018
ENDCHAR
STARTCHAR 0049
ENCODING 73
SWIDTH 240 0
DWIDTH 6 0
BBX 3 17 2 0
BITMAP
E0
E0
E0
E0
E0
E0
E0
E0
E0
E0
E0
E0
E0
E0
E0
E0
E0
ENDCHAR
STARTCHAR 004A
ENCODING 74
SWIDTH 480 0
DWIDTH 12 0
BBX 10 17 0 0
BITMAP
00C0
00C0
00C0
00C0
00C0
00C0
00C0
00C0
00C0
00C0
00C0
00C0
00C0
00C0
41C0
FF80
7F00
ENDCHAR
STARTCHAR 004B
ENCODING 75
SWIDTH 600 0
DWIDTH 15 0
BBX 13 17 2 0
BITMAP
E070
E0E0
E1C0
E380
E700
EE00
FC00
F800
FC00
EE00
E700
E380
E1C0
E0E0
E070
E038
E038
ENDCHAR
STARTCHAR 004C
ENCODING 76
SWIDTH 480 0
DWIDTH 12 0
BBX 11 17 2 0
BITMAP
E000
E000
E000
E000
E000
E000
E000
E000
E000
E000
E000
E000
E000
E000
E000
FFE0
FFE0
ENDCHAR
STARTCHAR 004D
ENCODING 77
SWIDTH 840 0
DWIDTH 21 0
BBX 18 17 2 0
BITMAP
700380
700380
780780
780780
FC0F80
EC0D80
EE1D80
E619C0
C639C0
C331C0
C371C0
C1E0C0
C1E0C0
C1C0C0
C0C0C0
C000C0
C000C0
ENDCHAR
STARTCHAR 004E
ENCODING 78
SWIDTH 720 0
DWIDTH 18 0
BBX 14 17 2 0
BITMAP
E00C
F00C
F80C
F80C
FC0C
EE0C
E70C
E30C
E38C
E1CC
E0CC
E06C
E07C
E03C
E03C
E01C
E00C
ENDCHAR
STARTCHAR 004F
ENCODING 79
SWIDTH 760 0
DWIDTH 19 0
BBX 17 18 1 0
BITMAP
01E000
0FF800
1F7C00
380E00
300700
700300
600380
600380
E00380
E00380
E00380
600380
600380
700700
380700
3C0E00
1FFC00
07F800
ENDCHAR
STARTCHAR 0050
ENCODING 80
SWIDTH 600 0
DWIDTH 15 0
BBX 12 17 2 1
BITMAP
FFC0
FFE0
E070
E070
E030
E030
E070
E070
FFE0
FFC0
F800
E000
E000
E000
E000
E000
E000
ENDCHAR
STARTCHAR 0051
ENCODING 81
SWIDTH 760 0
DWIDTH 19 0
BBX 17 22 1 -5
BITMAP
01E000
0FF800
1F7C00
380E00
300700
700300
600380
600380
E00380
E00380
E00380
600380
600380
700700
380700
3C0E00
1FFC00
07F800
00E000
00E000
007C00
001F00
ENDCHAR
STARTCHAR 0052
ENCODING 82
SWIDTH 600 0
DWIDTH 15 0
BBX 13 17 2 1
BITMAP
FFC0
FFE0
E070
E070
E030
E030
E070
E0F0
FFE0
FF80
E380
E1C0
E0E0
E060
E070
E038
E038
ENDCHAR
STARTCHAR 0053
ENCODING 83
SWIDTH 520 0
DWIDTH 13 0
BBX 12 18 1 0
BITMAP
0F00
3FE0
79C0
E000
E000
E000
E000
7800
3E00
1F80
03C0
00E0
0060
0070
0060
80E0
FFE0
7F80
ENDCHAR
STARTCHAR 0054
ENCODING 84
SWIDTH 560 0
DWIDTH 14 0
BBX 14 17 0 0
BITMAP
FFFC
FFFC
0300
0300
0300
0300
0300
0300
0300
0300
0300
0300
0300
0300
0300
0300
0300
ENDCHAR
STARTCHAR 0055
ENCODING 85
SWIDTH 680 0
DWIDTH 17 0
BBX 13 17 2 0
BITMAP
C018
C018
C018
C018
C018
C018
C018
C018
C018
C018
C018
E018
E038
E038
7070
3FF0
1FC0
ENDCHAR
STARTCHAR 0056
ENCODING 86
SWIDTH 640 0
DWIDTH 16 0
BBX 15 17 1 0
BITMAP
C00E
E00E
E00C
601C
7018
7018
3038
3830
3870
1870
1C60
0CE0
0EC0
07C0
0780
0780
0380
ENDCHAR
STARTCHAR 0057
ENCODING 87
SWIDTH 920 0
DWIDTH 23 0
BBX 21 17 1 0
BITMAP
C00018
E00018
E07018
E07038
607838
60F830
70D830
70DC30
71CC70
318C60
318E60
3B0660
3B06E0
1B07C0
1E03C0
1E03C0
0E0180
ENDCHAR
STARTCHAR 0058
ENCODING 88
SWIDTH 600 0
DWIDTH 15 0
BBX 14 17 1 0
BITMAP
E018
7038
3070
3860
1CE0
0DC0
0F80
0780
0780
0FC0
0CC0
1CE0
3870
3030
7038
E018
E01C
ENDCHAR
STARTCHAR 0059
ENCODING 89
SWIDTH 560 0
DWIDTH 14 0
BBX 13 17 1 0
BITMAP
C018
E038
6030
7070
3060
38E0
1DC0
0D80
0F80
0700
0700
0700
0700
0700
0700
0700
0700
ENDCHAR
STARTCHAR 005A
ENCODING 90
SWIDTH 560 0
DWIDTH 14 0
BBX 12 17 1 0
BITMAP
FFF0
FFF0
0060
00E0
01C0
0380
0700
0600
0E00
1C00
1800
3800
7000
6000
E000
FFF0
FFF0
ENDCHAR
STARTCHAR 005B
ENCODING 91
SWIDTH 320 0
DWIDTH 8 0
BBX 6 25 2 -5
BITMAP
FC
FC
E0
E0
E0
E0
E0
E0
E0
E0
E0
E0
E0
E0
E0
E0
E0
E0
E0
E0
E0
E0
E0
FC
FC
ENDCHAR
STARTCHAR 005C
ENCODING 92
SWIDTH 360 0
DWIDTH 9 0
BBX 11 25 -1 -5
BITMAP
E000
6000
6000
7000
3000
3800
1800
1800
1C00
0C00
0C00
0E00
0600
0600
0700
0300
0300
0380
0180
0180
01C0
00C0
00C0
00E0
0060
ENDCHAR
STARTCHAR 005D
ENCODING 93
SWIDTH 320 0
DWIDTH 8 0
BBX 6 25 0 -5
BITMAP
FC
FC
0C
0C
0C
0C
0C
0C
0C
0C
0C
0C
0C
0C
0C
0C
0C
0C
0C
0C
0C
0C
0C
FC
FC
ENDCHAR
STARTCHAR 005E
ENCODING 94
SWIDTH 560 0
DWIDTH 14 0
BBX 11 9 2 8
BITMAP
0E00
1E00
3F00
3300
7380
6180
E0C0
C0E0
8040
ENDCHAR
STARTCHAR 005F
ENCODING 95
SWIDTH 480 0
DWIDTH 12 0
BBX 12 2 0 -5
BITMAP
FFF0
FFF0
ENDCHAR
STARTCHAR 0060
ENCODING 96
SWIDTH 360 0
DWIDTH 9 0
BBX 4 4 2 14
BITMAP
C0
E0
60
30
ENDCHAR
STARTCHAR 0061
ENCODING 97
SWIDTH 520 0
DWIDTH 13 0
BBX 10 13 1 0
BITMAP
7F00
3F80
01C0
00C0
00C0
1FC0
7FC0
E0C0
E0C0
C0C0
E0C0
7FC0
3FC0
ENDCHAR
STARTCHAR 0062
ENCODING 98
SWIDTH 560 0
DWIDTH 14 0
BBX 11 19 2 0
BITMAP
C000
C000
C000
C000
C000
C000
FF80
FFC0
E0E0
C0E0
C060
C060
C060
C060
C060
C0E0
C1C0
FFC0
FF00
ENDCHAR
STARTCHAR 0063
ENCODING 99
SWIDTH 440 0
DWIDTH 11 0
BBX 10 13 1 0
BITMAP
1FC0
3FC0
7000
6000
E000
E000
E000
E000
E000
6000
7000
3FC0
1FC0
ENDCHAR
STARTCHAR 0064
ENCODING 100
SWIDTH 560 0
DWIDTH 14 0
BBX 12 19 1 0
BITMAP
0070
0070
0070
0070
0070
0070
1FF0
3FF0
7070
6070
E070
E070
E070
E070
E070
6070
7070
3FF0
1FF0
ENDCHAR
STARTCHAR 0065
ENCODING 101
SWIDTH 520 0
DWIDTH 13 0
BBX 12 13 1 0
BITMAP
1F80
3FC0
70E0
6060
E060
FFF0
FFF0
E000
E000
6000
7000
3FE0
1FE0
ENDCHAR
STARTCHAR 0066
ENCODING 102
SWIDTH 360 0
DWIDTH 9 0
BBX 8 19 2 0
BITMAP
3F
7F
E0
E0
C0
C0
FE
FE
C0
C0
C0
C0
C0
C0
C0
C0
C0
C0
C0
ENDCHAR
STARTCHAR 0067
ENCODING 103
SWIDTH 560 0
DWIDTH 14 0
BBX 11 18 1 -5
BITMAP
1FE0
3FE0
7060
6060
E060
E060
E060
E060
6060
7060
3FE0
3FE0
0060
0060
0060
61E0
7FC0
1F00
ENDCHAR
STARTCHAR 0068
ENCODING 104
SWIDTH 560 0
DWIDTH 14 0
BBX 11 19 2 0
BITMAP
C000
C000
C000
C000
C000
C000
FF00
FF80
C1C0
C0C0
C0C0
C0C0
C0E0
C0E0
C0E0
C0E0
C0E0
C0E0
C0E0
ENDCHAR
STARTCHAR 0069
ENCODING 105
SWIDTH 240 0
DWIDTH 6 0
BBX 3 18 2 0
BITMAP
E0
E0
40
00
00
C0
C0
C0
C0
C0
C0
C0
C0
C0
C0
C0
C0
C0
ENDCHAR
STARTCHAR 006A
ENCODING 106
SWIDTH 240 0
DWIDTH 6 0
BBX 7 23 -2 -5
BITMAP
0E
0E
04
00
00
0C
0C
0C
0C
0C
0C
0C
0C
0C
0C
0C
0C
0C
0C
0C
1C
F8
60
ENDCHAR
STARTCHAR 006B
ENCODING 107
SWIDTH 520 0
DWIDTH 13 0
BBX 10 19 2 0
BITMAP
C000
C000
C000
C000
C000
C000
C1C0
C380
C700
CE00
DC00
F800
F800
DC00
CE00
C700
C380
C1C0
C0C0
ENDCHAR
STARTCHAR 006C
ENCODING 108
SWIDTH 240 0
DWIDTH 6 0
BBX 4 19 2 0
BITMAP
C0
C0
C0
C0
C0
C0
C0
C0
C0
C0
C0
C0
C0
C0
C0
C0
E0
F0
70
ENDCHAR
STARTCHAR 006D
ENCODING 109
SWIDTH 840 0
DWIDTH 21 0
BBX 18 13 2 0
BITMAP
FF3F00
FFFF80
C1C180
C1C1C0
C0C1C0
C0C1C0
C0C1C0
C0C1C0
C0C1C0
C0C1C0
C0C1C0
C0C1C0
C0C1C0
ENDCHAR
STARTCHAR 006E
ENCODING 110
SWIDTH 560 0
DWIDTH 14 0
BBX 11 13 2 0
BITMAP
FF00
FF80
C1C0
C0C0
C0C0
C0C0
C0E0
C0E0
C0E0
C0E0
C0E0
C0E0
C0E0
ENDCHAR
STARTCHAR 006F
ENCODING 111
SWIDTH 560 0
DWIDTH 14 0
BBX 12 13 1 0
BITMAP
1F80
3FE0
7060
6070
E030
E030
E030
E030
E030
6070
7060
3FE0
1FC0
ENDCHAR
STARTCHAR 0070
ENCODING 112
SWIDTH 560 0
DWIDTH 14 0
BBX 11 18 2 -5
BITMAP
FF00
FFC0
C1C0
C0E0
C060
C060
C060
C060
C060
C0E0
E0E0
FFC0
FF80
C000
C000
C000
C000
C000
ENDCHAR
STARTCHAR 0071
ENCODING 113
SWIDTH 560 0
DWIDTH 14 0
BBX 12 18 1 -5
BITMAP
1FF0
3FF0
7070
6070
E070
E070
E070
E070
E070
6070
7070
3FF0
1FF0
0070
0070
0070
0070
0070
ENDCHAR
STARTCHAR 0072
ENCODING 114
SWIDTH 360 0
DWIDTH 9 0
BBX 7 13 2 0
BITMAP
FE
FE
C0
C0
C0
C0
C0
C0
C0
C0
C0
C0
C0
ENDCHAR
STARTCHAR 0073
ENCODING 115
SWIDTH 440 0
DWIDTH 11 0
BBX 9 13 1 0
BITMAP
3F00
7F00
E000
E000
E000
7800
3E00
0F80
0380
0180
0180
FF80
FF00
ENDCHAR
STARTCHAR 0074
ENCODING 116
SWIDTH 400 0
DWIDTH 10 0
BBX 8 17 2 0
BITMAP
C0
C0
C0
C0
FE
FE
C0
C0
C0
C0
C0
C0
C0
C0
E0
7E
7F
ENDCHAR
STARTCHAR 0075
ENCODING 117
SWIDTH 560 0
DWIDTH 14 0
BBX 10 13 2 0
BITMAP
C0C0
C0C0
C0C0
C0C0
C0C0
C0C0
C0C0
C0C0
C0C0
E0C0
E0C0
7FC0
3FC0
ENDCHAR
STARTCHAR 0076
ENCODING 118
SWIDTH 480 0
DWIDTH 12 0
BBX 11 13 1 0
BITMAP
C060
C0E0
E0C0
E0C0
61C0
7180
7180
3380
3B00
1B00
1E00
0E00
0E00
ENDCHAR
STARTCHAR 0077
ENCODING 119
SWIDTH 760 0
DWIDTH 19 0
BBX 18 13 1 0
BITMAP
C0C1C0
C1C1C0
E1C180
E1E180
61E380
636300
736300
333300
363600
3E3600
1E1E00
1C1C00
0C1C00
ENDCHAR
STARTCHAR 0078
ENCODING 120
SWIDTH 480 0
DWIDTH 12 0
BBX 11 13 1 0
BITMAP
E0E0
61C0
7180
3B80
1F00
1E00
0E00
1F00
3B80
3180
61C0
E0C0
C060
ENDCHAR
STARTCHAR 0079
ENCODING 121
SWIDTH 480 0
DWIDTH 12 0
BBX 12 18 0 -5
BITMAP
6070
6070
7060
7060
30E0
38C0
18C0
18C0
1DC0
0D80
0F80
0700
0700
0700
0600
8C00
FC00
7000
ENDCHAR
STARTCHAR 007A
ENCODING 122
SWIDTH 440 0
DWIDTH 11 0
BBX 10 13 1 0
BITMAP
FFC0
FFC0
0380
0700
0600
0E00
1C00
3800
3000
7000
E000
FFC0
FFC0
ENDCHAR
STARTCHAR 007B
ENCODING 123
SWIDTH 320 0
DWIDTH 8 0
BBX 7 25 1 -5
BITMAP
02
1E
1C
38
30
30
30
30
30
30
30
70
E0
F0
30
30
30
30
30
30
30
38
1C
1E
02
ENDCHAR
STARTCHAR 007C
ENCODING 124
SWIDTH 240 0
DWIDTH 6 0
BBX 3 25 2 -5
BITMAP
E0
E0
E0
E0
E0
E0
E0
E0
E0
E0
E0
E0
E0
E0
E0
E0
E0
E0
E0
E0
E0
E0
E0
E0
E0
ENDCHAR
STARTCHAR 007D
ENCODING 125
SWIDTH 320 0
DWIDTH 8 0
BBX 7 25 0 -5
BITMAP
80
F0
38
18
18
18
18
18
18
18
18
1E
0E
0E
18
18
18
18
18
18
18
18
38
F0
80
ENDCHAR
STARTCHAR 007E
ENCODING 126
SWIDTH 560 0
DWIDTH 14 0
BBX 12 5 1 5
BITMAP
1000
7C30
6F70
C3E0
0080
ENDCHAR
STARTCHAR 00A0
ENCODING 160
SWIDTH 200 0
DWIDTH 5 0
BBX 0 0 0 0
BITMAP
ENDCHAR
STARTCHAR 00A1
ENCODING 161
SWIDTH 240 0
DWIDTH 6 0
BBX 3 18 2 -5
BITMAP
E0
E0
E0
00
00
00
40
C0
C0
E0
E0
E0
E0
E0
E0
E0
E0
E0
ENDCHAR
STARTCHAR 00A2
ENCODING 162
SWIDTH 560 0
DWIDTH 14 0
BBX 10 20 2 -3
BITMAP
0600
0600
0600
0F80
3FC0
7800
6000
E000
E000
E000
E000
E000
6000
7000
3FC0
1FC0
0600
0600
0600
0600
ENDCHAR
STARTCHAR 00A3
ENCODING 163
SWIDTH 560 0
DWIDTH 14 0
BBX 12 18 1 0
BITMAP
01C0
0FE0
0F60
1C00
1800
1800
1800
1800
1800
FFC0
FFC0
1800
1800
1800
1800
3800
3FF0
3FF0
ENDCHAR
STARTCHAR 00A4
ENCODING 164
SWIDTH 560 0
DWIDTH 14 0
BBX 12 12 1 3
BITMAP
4020
E070
7FE0
39C0
30E0
6060
6060
6060
30C0
7FE0
EFF0
4020
ENDCHAR
STARTCHAR 00A5
ENCODING 165
SWIDTH 560 0
DWIDTH 14 0
BBX 12 17 1 0
BITMAP
C030
E070
6060
70E0
30C0
19C0
1D80
0F00
7FE0
7FE0
0600
0600
0600
7FE0
0600
0600
0600
ENDCHAR
STARTCHAR 00A6
ENCODING 166
SWIDTH 240 0
DWIDTH 6 0
BBX 3 25 2 -5
BITMAP
E0
E0
E0
E0
E0
E0
E0
E0
E0
E0
00
00
00
00
00
E0
E0
E0
E0
E0
E0
E0
E0
E0
E0
ENDCHAR
STARTCHAR 00A7
ENCODING 167
SWIDTH 480 0
DWIDTH 12 0
BBX 10 21 1 -3
BITMAP
0F00
3FC0
7080
6000
6000
7000
3E00
7F80
63C0
C0C0
C0C0
E0C0
71C0
3F80
0F80
0380
01C0
01C0
4380
FF80
3E00
ENDCHAR
STARTCHAR 00A8
ENCODING 168
SWIDTH 360 0
DWIDTH 9 0
BBX 7 3 1 15
BITMAP
E6
E6
40
ENDCHAR
STARTCHAR 00A9
ENCODING 169
SWIDTH 800 0
DWIDTH 20 0
BBX 17 18 2 0
BITMAP
03C000
0FF800
381C00
700E00
61E700
C7E300
CE0300
CC0180
CC0180
8C0180
CC0180
CC0180
CE0300
C7F300
608600
300E00
1E3C00
0FF000
ENDCHAR
STARTCHAR 00AA
ENCODING 170
SWIDTH 360 0
DWIDTH 9 0
BBX 7 10 1 8
BITMAP
38
7E
06
02
7E
FE
C2
C2
FE
3E
ENDCHAR
STARTCHAR 00AB
ENCODING 171
SWIDTH 480 0
DWIDTH 12 0
BBX 10 10 1 3
BITMAP
18C0
39C0
7180
6380
E700
E700
6380
3180
39C0
18C0
ENDCHAR
STARTCHAR 00AC
ENCODING 172
SWIDTH 560 0
DWIDTH 14 0
BBX 12 9 1 1
BITMAP
FFF0
FFF0
0030
0030
0030
0030
0030
0030
0030
ENDCHAR
STARTCHAR 00AD
ENCODING 173
SWIDTH 280 0
DWIDTH 7 0
BBX 6 3 1 6
BITMAP
FC
FC
FC
ENDCHAR
STARTCHAR 00AE
ENCODING 174
SWIDTH 800 0
DWIDTH 20 0
BBX 17 18 2 0
BITMAP
03C000
0FF800
381C00
700E00
678700
C7E300
C43300
C43180
C43180
87E180
C7C180
C46180
C43300
C43300
600600
300E00
1E3C00
0FF000
ENDCHAR
STARTCHAR 00AF
ENCODING 175
SWIDTH 360 0
DWIDTH 9 0
BBX 7 2 1 16
BITMAP
FE
FE
ENDCHAR
STARTCHAR 00B0
ENCODING 176
SWIDTH 320 0
DWIDTH 8 0
BBX 7 6 1 12
BITMAP
7C
CC
86
86
CC
7C
ENDCHAR
STARTCHAR 00B1
ENCODING 177
SWIDTH 560 0
DWIDTH 14 0
BBX 12 16 1 0
BITMAP
0600
0600
0600
0600
0600
0600
FFF0
FFF0
0600
0600
0600
0600
0600
0000
FFF0
FFF0
ENDCHAR
STARTCHAR 00B2
ENCODING 178
SWIDTH 320 0
DWIDTH 8 0
BBX 7 10 1 8
BITMAP
38
FC
8C
0C
0C
18
30
60
C0
FE
ENDCHAR
STARTCHAR 00B3
ENCODING 179
SWIDTH 320 0
DWIDTH 8 0
BBX 7 10 1 8
BITMAP
38
FC
0C
0C
38
3C
06
06
8E
FC
ENDCHAR
STARTCHAR 00B4
ENCODING 180
SWIDTH 360 0
DWIDTH 9 0
BBX 4 4 3 14
BITMAP
10
30
60
C0
ENDCHAR
STARTCHAR 00B5
ENCODING 181
SWIDTH 560 0
DWIDTH 14 0
BBX 11 18 2 -5
BITMAP
C0E0
C0E0
C0E0
C0E0
C0E0
C0E0
C0E0
C0E0
C0E0
E0E0
E0E0
FFE0
DFE0
C000
C000
C000
C000
C000
ENDCHAR
STARTCHAR 00B6
ENCODING 182
SWIDTH 640 0
DWIDTH 16 0
BBX 13 22 1 -4
BITMAP
1FF8
7F38
7F18
FF18
FF18
FF18
FF18
7F18
7F18
1F18
0318
0318
0318
0318
0318
0318
0318
0318
0318
0318
0318
0318
ENDCHAR
STARTCHAR 00B7
ENCODING 183
SWIDTH 240 0
DWIDTH 6 0
BBX 4 3 1 6
BITMAP
60
F0
70
ENDCHAR
STARTCHAR 00B8
ENCODING 184
SWIDTH 360 0
DWIDTH 9 0
BBX 4 6 2 -5
BITMAP
30
20
70
30
F0
E0
ENDCHAR
STARTCHAR 00B9
ENCODING 185
SWIDTH 320 0
DWIDTH 8 0
BBX 5 10 1 8
BITMAP
08
38
F8
58
18
18
18
18
18
18
ENDCHAR
STARTCHAR 00BA
ENCODING 186
SWIDTH 440 0
DWIDTH 11 0
BBX 9 10 1 8
BITMAP
1C00
7F00
6300
C180
C180
C180
C180
6380
7F00
1C00
ENDCHAR
STARTCHAR 00BB
ENCODING 187
SWIDTH 480 0
DWIDTH 12 0
BBX 10 11 1 2
BITMAP
4000
C700
6300
7180
39C0
18C0
38C0
31C0
7380
6300
C600
ENDCHAR
STARTCHAR 00BC
ENCODING 188
SWIDTH 840 0
DWIDTH 21 0
BBX 20 18 1 0
BITMAP
080000
380600
F80600
580C00
181C00
181800
183800
183000
186060
1860E0
00C1E0
00C360
018260
038660
030FF0
070FF0
060060
0C0060
ENDCHAR
STARTCHAR 00BD
ENCODING 189
SWIDTH 840 0
DWIDTH 21 0
BBX 20 18 1 0
BITMAP
080000
380600
F80C00
580C00
181800
183800
183000
186000
1863C0
18C7E0
00C460
018060
038060
0301C0
070380
060300
0C07F0
0C07F0
ENDCHAR
STARTCHAR 00BE
ENCODING 190
SWIDTH 840 0
DWIDTH 21 0
BBX 20 18 1 0
BITMAP
380000
FC0300
0C0600
0C0E00
380C00
3C1C00
061800
063000
8E3060
FC60E0
00E1E0
00C360
01C260
018660
030FF0
030FF0
060060
060060
ENDCHAR
STARTCHAR 00BF
ENCODING 191
SWIDTH 400 0
DWIDTH 10 0
BBX 9 18 1 -5
BITMAP
0C00
1C00
1C00
0000
0000
0000
0C00
0C00
1800
3800
7000
6000
C000
C000
C000
E100
7F80
1E00
ENDCHAR
STARTCHAR 00C0
ENCODING 192
SWIDTH 640 0
DWIDTH 16 0
BBX 16 23 0 0
BITMAP
0200
0300
0180
00C0
0000
0000
01C0
03C0
03E0
0760
0670
0670
0E30
0C38
1C18
181C
181C
3FFC
3FFE
700E
7006
6007
E003
ENDCHAR
STARTCHAR 00C1
ENCODING 193
SWIDTH 640 0
DWIDTH 16 0
BBX 16 23 0 0
BITMAP
0060
00E0
00C0
0180
0000
0000
01C0
03C0
03E0
0760
0670
0670
0E30
0C38
1C18
181C
181C
3FFC
3FFE
700E
7006
6007
E003
ENDCHAR
STARTCHAR 00C2
ENCODING 194
SWIDTH 640 0
DWIDTH 16 0
BBX 16 23 0 0
BITMAP
0080
01C0
03E0
0630
0000
0000
01C0
03C0
03E0
0760
0670
0670
0E30
0C38
1C18
181C
181C
3FFC
3FFE
700E
7006
6007
E003
ENDCHAR
STARTCHAR 00C3
ENCODING 195
SWIDTH 640 0
DWIDTH 16 0
BBX 16 22 0 0
BITMAP
0790
0FF0
0440
0000
0000
01C0
03C0
03E0
0760
0670
0670
0E30
0C38
1C18
181C
181C
3FFC
3FFE
700E
7006
6007
E003
ENDCHAR
STARTCHAR 00C4
ENCODING 196
SWIDTH 640 0
DWIDTH 16 0
BBX 16 22 0 0
BITMAP
0670
0E70
0420
0000
0000
01C0
03C0
03E0
0760
0670
0670
0E30
0C38
1C18
181C
181C
3FFC
3FFE
700E
7006
6007
E003
ENDCHAR
STARTCHAR 00C5
ENCODING 197
SWIDTH 640 0
DWIDTH 16 0
BBX 16 21 0 0
BITMAP
01C0
0260
0220
0260
03C0
03C0
03E0
0760
0670
0670
0E30
0C38
1C18
181C
181C
3FFC
3FFE
700E
7006
6007
E003
ENDCHAR
STARTCHAR 00C6
ENCODING 198
SWIDTH 920 0
DWIDTH 23 0
BBX 22 17 0 0
BITMAP
003FFC
007FFC
006C00
00EC00
01CC00
018C00
038C00
030FF8
060FF8
0E0C00
0C0C00
1FFC00
1FFC00
380C00
700C00
600FFC
E00FFC
ENDCHAR
STARTCHAR 00C7
ENCODING 199
SWIDTH 600 0
DWIDTH 15 0
BBX 14 23 1 -5
BITMAP
01E0
0FFC
1F38
3800
3000
7000
6000
6000
E000
E000
E000
6000
6000
7000
3800
3C00
1FFC
07F8
0180
0180
00C0
07C0
0380
ENDCHAR
STARTCHAR 00C8
ENCODING 200
SWIDTH 560 0
DWIDTH 14 0
BBX 11 23 2 0
BITMAP
0800
1C00
0E00
0700
0200
0000
FFE0
FFE0
E000
E000
E000
E000
E000
FFC0
FFC0
E000
E000
E000
E000
E000
E000
FFE0
FFE0
ENDCHAR
STARTCHAR 00C9
ENCODING 201
SWIDTH 560 0
DWIDTH 14 0
BBX 11 23 2 0
BITMAP
0100
0380
0700
0E00
0400
0000
FFE0
FFE0
E000
E000
E000
E000
E000
FFC0
FFC0
E000
E000
E000
E000
E000
E000
FFE0
FFE0
ENDCHAR
STARTCHAR 00CA
ENCODING 202
SWIDTH 560 0
DWIDTH 14 0
BBX 11 23 2 0
BITMAP
0400
0E00
1B00
3180
0000
0000
FFE0
FFE0
E000
E000
E000
E000
E000
FFC0
FFC0
E000
E000
E000
E000
E000
E000
FFE0
FFE0
ENDCHAR
STARTCHAR 00CB
ENCODING 203
SWIDTH 560 0
DWIDTH 14 0
BBX 11 22 2 0
BITMAP
3180
3380
1100
0000
0000
FFE0
FFE0
E000
E000
E000
E000
E000
FFC0
FFC0
E000
E000
E000
E000
E000
E000
FFE0
FFE0
ENDCHAR
STARTCHAR 00CC
ENCODING 204
SWIDTH 240 0
DWIDTH 6 0
BBX 4 23 1 0
BITMAP
C0
C0
60
30
00
00
70
70
70
70
70
70
70
70
70
70
70
70
70
70
70
70
70
ENDCHAR
STARTCHAR 00CD
ENCODING 205
SWIDTH 240 0
DWIDTH 6 0
BBX 4 23 2 0
BITMAP
30
70
60
C0
00
00
E0
E0
E0
E0
E0
E0
E0
E0
E0
E0
E0
E0
E0
E0
E0
E0
E0
ENDCHAR
STARTCHAR 00CE
ENCODING 206
SWIDTH 240 0
DWIDTH 6 0
BBX 7 23 0 0
BITMAP
10
38
6C
C6
00
00
38
38
38
38
38
38
38
38
38
38
38
38
38
38
38
38
38
ENDCHAR
STARTCHAR 00CF
ENCODING 207
SWIDTH 240 0
DWIDTH 6 0
BBX 7 22 0 0
BITMAP
CE
CE
04
00
00
38
38
38
38
38
38
38
38
38
38
38
38
38
38
38
38
38
ENDCHAR
STARTCHAR 00D0
ENCODING 208
SWIDTH 720 0
DWIDTH 18 0
BBX 17 17 0 1
BITMAP
3FF000
3FFC00
381E00
380700
380700
380300
380380
FF0380
FF0380
380380
380380
380300
380700
380E00
381E00
3FF800
3FE000
ENDCHAR
STARTCHAR 00D1
ENCODING 209
SWIDTH 720 0
DWIDTH 18 0
BBX 14 22 2 0
BITMAP
0F60
1FE0
0080
0000
0000
E00C
F00C
F80C
F80C
FC0C
EE0C
E70C
E30C
E38C
E1CC
E0CC
E06C
E07C
E03C
E03C
E01C
E00C
ENDCHAR
STARTCHAR 00D2
ENCODING 210
SWIDTH 760 0
DWIDTH 19 0
BBX 17 23 1 0
BITMAP
030000
038000
01C000
00C000
000000
01E000
0FF800
1F7C00
380E00
300700
700300
600380
600380
E00380
E00380
E00380
600380
600380
700700
380700
3C0E00
1FFC00
07F800
ENDCHAR
STARTCHAR 00D3
ENCODING 211
SWIDTH 760 0
DWIDTH 19 0
BBX 17 23 1 0
BITMAP
002000
006000
00C000
018000
000000
01E000
0FF800
1F7C00
380E00
300700
700300
600380
600380
E00380
E00380
E00380
600380
600380
700700
380700
3C0E00
1FFC00
07F800
ENDCHAR
STARTCHAR 00D4
ENCODING 212
SWIDTH 760 0
DWIDTH 19 0
BBX 17 23 1 0
BITMAP
008000
01C000
03E000
063000
000000
01E000
0FF800
1F7C00
380E00
300700
700300
600380
600380
E00380
E00380
E00380
600380
600380
700700
380700
3C0E00
1FFC00
07F800
ENDCHAR
STARTCHAR 00D5
ENCODING 213
SWIDTH 760 0
DWIDTH 19 0
BBX 17 22 1 0
BITMAP
039800
07F000
042000
000000
01E000
0FF800
1F7C00
380E00
300700
700300
600380
600380
E00380
E00380
E00380
600380
600380
700700
380700
3C0E00
1FFC00
07F800
ENDCHAR
STARTCHAR 00D6
ENCODING 214
SWIDTH 760 0
DWIDTH 19 0
BBX 17 22 1 0
BITMAP
073000
073800
021000
000000
01E000
0FF800
1F7C00
380E00
300700
700300
600380
600380
E00380
E00380
E00380
600380
600380
700700
380700
3C0E00
1FFC00
07F800
ENDCHAR
STARTCHAR 00D7
ENCODING 215
SWIDTH 560 0
DWIDTH 14 0
BBX 10 9 2 3
BITMAP
C0C0
6180
3300
1E00
0C00
1E00
3300
6180
C0C0
ENDCHAR
STARTCHAR 00D8
ENCODING 216
SWIDTH 760 0
DWIDTH 19 0
BBX 17 19 1 -1
BITMAP
01C300
0FFB00
1F7E00
380E00
301F00
703B00
603380
606380
E0E380
E1C380
E18380
630380
670380
7E0700
3C0700
3C0E00
3FFC00
77F800
200000
ENDCHAR
STARTCHAR 00D9
ENCODING 217
SWIDTH 680 0
DWIDTH 17 0
BBX 13 23 2 0
BITMAP
0C00
0E00
0600
0300
0000
0000
C018
C018
C018
C018
C018
C018
C018
C018
C018
C018
C018
E018
E038
E038
7070
3FF0
1FC0
ENDCHAR
STARTCHAR 00DA
ENCODING 218
SWIDTH 680 0
DWIDTH 17 0
BBX 13 23 2 0
BITMAP
0180
0180
0300
0600
0000
0000
C018
C018
C018
C018
C018
C018
C018
C018
C018
C018
C018
E018
E038
E038
7070
3FF0
1FC0
ENDCHAR
STARTCHAR 00DB
ENCODING 219
SWIDTH 680 0
DWIDTH 17 0
BBX 13 23 2 0
BITMAP
0200
0700
0D80
18C0
0000
0000
C018
C018
C018
C018
C018
C018
C018
C018
C018
C018
C018
E018
E038
E038
7070
3FF0
1FC0
ENDCHAR
STARTCHAR 00DC
ENCODING 220
SWIDTH 680 0
DWIDTH 17 0
BBX 13 22 2 0
BITMAP
18C0
1CC0
0800
0000
0000
C018
C018
C018
C018
C018
C018
C018
C018
C018
C018
C018
E018
E038
E038
7070
3FF0
1FC0
ENDCHAR
STARTCHAR 00DD
ENCODING 221
SWIDTH 560 0
DWIDTH 14 0
BBX 13 23 1 0
BITMAP
0180
0180
0300
0600
0000
0000
C018
E038
6030
7070
3060
38E0
1DC0
0D80
0F80
0700
0700
0700
0700
0700
0700
0700
0700
ENDCHAR
STARTCHAR 00DE
ENCODING 222
SWIDTH 600 0
DWIDTH 15 0
BBX 12 17 2 0
BITMAP
E000
E000
F800
FFC0
FFE0
E070
E070
E030
E030
E070
E070
FFE0
FFC0
E000
E000
E000
E000
ENDCHAR
STARTCHAR 00DF
ENCODING 223
SWIDTH 600 0
DWIDTH 15 0
BBX 13 19 2 0
BITMAP
3F80
7FC0
E0C0
E0C0
C0C0
C1C0
C180
C300
C600
C600
C700
C3C0
C0F0
C070
C038
C038
C030
CFF0
CFE0
ENDCHAR
STARTCHAR 00E0
ENCODING 224
SWIDTH 520 0
DWIDTH 13 0
BBX 10 19 1 0
BITMAP
1800
1C00
0C00
0600
0000
0000
7F00
3F80
01C0
00C0
00C0
1FC0
7FC0
E0C0
E0C0
C0C0
E0C0
7FC0
3FC0
ENDCHAR
STARTCHAR 00E1
ENCODING 225
SWIDTH 520 0
DWIDTH 13 0
BBX 10 19 1 0
BITMAP
0300
0300
0600
0C00
0000
0000
7F00
3F80
01C0
00C0
00C0
1FC0
7FC0
E0C0
E0C0
C0C0
E0C0
7FC0
3FC0
ENDCHAR
STARTCHAR 00E2
ENCODING 226
SWIDTH 520 0
DWIDTH 13 0
BBX 10 19 1 0
BITMAP
0400
0E00
1B00
3180
0000
0000
7F00
3F80
01C0
00C0
00C0
1FC0
7FC0
E0C0
E0C0
C0C0
E0C0
7FC0
3FC0
ENDCHAR
STARTCHAR 00E3
ENCODING 227
SWIDTH 520 0
DWIDTH 13 0
BBX 10 18 1 0
BITMAP
3CC0
3F80
2000
0000
0000
7F00
3F80
01C0
00C0
00C0
1FC0
7FC0
E0C0
E0C0
C0C0
E0C0
7FC0
3FC0
ENDCHAR
STARTCHAR 00E4
ENCODING 228
SWIDTH 520 0
DWIDTH 13 0
BBX 10 18 1 0
BITMAP
3980
3980
0080
0000
0000
7F00
3F80
01C0
00C0
00C0
1FC0
7FC0
E0C0
E0C0
C0C0
E0C0
7FC0
3FC0
ENDCHAR
STARTCHAR 00E5
ENCODING 229
SWIDTH 520 0
DWIDTH 13 0
BBX 10 19 1 0
BITMAP
0F00
1100
1100
1F00
0400
0000
7F00
3F80
01C0
00C0
00C0
1FC0
7FC0
E0C0
E0C0
C0C0
E0C0
7FC0
3FC0
ENDCHAR
STARTCHAR 00E6
ENCODING 230
SWIDTH 840 0
DWIDTH 21 0
BBX 19 13 1 0
BITMAP
7F1F80
3FBFC0
01F0C0
00E0E0
00C060
1FFFE0
7FFFE0
E0C000
E0C000
C0E000
E07000
7FFFC0
3F9FC0
ENDCHAR
STARTCHAR 00E7
ENCODING 231
SWIDTH 440 0
DWIDTH 11 0
BBX 10 18 1 -5
BITMAP
1FC0
3FC0
7000
6000
E000
E000
E000
E000
E000
6000
7000
3FC0
1FC0
0600
0700
0300
0F00
0E00
ENDCHAR
STARTCHAR 00E8
ENCODING 232
SWIDTH 520 0
DWIDTH 13 0
BBX 12 19 1 0
BITMAP
0800
0C00
0600
0300
0000
0000
1F80
3FC0
70E0
6060
E060
FFF0
FFF0
E000
E000
6000
7000
3FE0
1FE0
ENDCHAR
STARTCHAR 00E9
ENCODING 233
SWIDTH 520 0
DWIDTH 13 0
BBX 12 19 1 0
BITMAP
0180
0380
0700
0600
0000
0000
1F80
3FC0
70E0
6060
E060
FFF0
FFF0
E000
E000
6000
7000
3FE0
1FE0
ENDCHAR
STARTCHAR 00EA
ENCODING 234
SWIDTH 520 0
DWIDTH 13 0
BBX 12 19 1 0
BITMAP
0600
0700
0F80
1880
0000
0000
1F80
3FC0
70E0
6060
E060
FFF0
FFF0
E000
E000
6000
7000
3FE0
1FE0
ENDCHAR
STARTCHAR 00EB
ENCODING 235
SWIDTH 520 0
DWIDTH 13 0
BBX 12 18 1 0
BITMAP
39C0
39C0
0080
0000
0000
1F80
3FC0
70E0
6060
E060
FFF0
FFF0
E000
E000
6000
7000
3FE0
1FE0
ENDCHAR
STARTCHAR 00EC
ENCODING 236
SWIDTH 240 0
DWIDTH 6 0
BBX 4 19 1 0
BITMAP
80
C0
60
30
00
00
60
60
60
60
60
60
60
60
60
60
60
60
60
ENDCHAR
STARTCHAR 00ED
ENCODING 237
SWIDTH 240 0
DWIDTH 6 0
BBX 4 19 2 0
BITMAP
30
70
E0
C0
00
00
C0
C0
C0
C0
C0
C0
C0
C0
C0
C0
C0
C0
C0
ENDCHAR
STARTCHAR 00EE
ENCODING 238
SWIDTH 240 0
DWIDTH 6 0
BBX 6 19 0 0
BITMAP
30
38
7C
C4
00
00
30
30
30
30
30
30
30
30
30
30
30
30
30
ENDCHAR
STARTCHAR 00EF
ENCODING 239
SWIDTH 240 0
DWIDTH 6 0
BBX 8 18 -1 0
BITMAP
E7
E7
02
00
00
18
18
18
18
18
18
18
18
18
18
18
18
18
ENDCHAR
STARTCHAR 00F0
ENCODING 240
SWIDTH 560 0
DWIDTH 14 0
BBX 13 19 1 0
BITMAP
0300
0398
01F8
07C0
0760
0060
0070
1FB0
3FF0
7070
6030
E030
E030
E030
E070
6070
70E0
3FC0
1F80
ENDCHAR
STARTCHAR 00F1
ENCODING 241
SWIDTH 560 0
DWIDTH 14 0
BBX 11 18 2 0
BITMAP
3D80
7F80
0000
0000
0000
FF00
FF80
C1C0
C0C0
C0C0
C0C0
C0E0
C0E0
C0E0
C0E0
C0E0
C0E0
C0E0
ENDCHAR
STARTCHAR 00F2
ENCODING 242
SWIDTH 560 0
DWIDTH 14 0
BBX 12 19 1 0
BITMAP
0C00
0C00
0600
0300
0000
0000
1F80
3FE0
7060
6070
E030
E030
E030
E030
E030
6070
7060
3FE0
1FC0
ENDCHAR
STARTCHAR 00F3
ENCODING 243
SWIDTH 560 0
DWIDTH 14 0
BBX 12 19 1 0
BITMAP
0180
0380
0700
0600
0000
0000
1F80
3FE0
7060
6070
E030
E030
E030
E030
E030
6070
7060
3FE0
1FC0
ENDCHAR
STARTCHAR 00F4
ENCODING 244
SWIDTH 560 0
DWIDTH 14 0
BBX 12 19 1 0
BITMAP
0200
0700
0D80
18C0
0000
0000
1F80
3FE0
7060
6070
E030
E030
E030
E030
E030
6070
7060
3FE0
1FC0
ENDCHAR
STARTCHAR 00F5
ENCODING 245
SWIDTH 560 0
DWIDTH 14 0
BBX 12 18 1 0
BITMAP
1EC0
3FC0
1000
0000
0000
1F80
3FE0
7060
6070
E030
E030
E030
E030
E030
6070
7060
3FE0
1FC0
ENDCHAR
STARTCHAR 00F6
ENCODING 246
SWIDTH 560 0
DWIDTH 14 0
BBX 12 18 1 0
BITMAP
19C0
19C0
0800
0000
0000
1F80
3FE0
7060
6070
E030
E030
E030
E030
E030
6070
7060
3FE0
1FC0
ENDCHAR
STARTCHAR 00F7
ENCODING 247
SWIDTH 560 0
DWIDTH 14 0
BBX 12 13 1 1
BITMAP
0600
0700
0600
0000
0000
0000
FFF0
FFF0
0000
0000
0600
0700
0600
ENDCHAR
STARTCHAR 00F8
ENCODING 248
SWIDTH 560 0
DWIDTH 14 0
BBX 12 15 1 -1
BITMAP
0010
1FB0
3FE0
70E0
60F0
E1B0
E330
E630
E630
EC30
7870
7060
7FE0
7FC0
4000
ENDCHAR
STARTCHAR 00F9
ENCODING 249
SWIDTH 560 0
DWIDTH 14 0
BBX 10 19 2 0
BITMAP
1000
1800
0C00
0600
0000
0000
C0C0
C0C0
C0C0
C0C0
C0C0
C0C0
C0C0
C0C0
C0C0
E0C0
E0C0
7FC0
3FC0
ENDCHAR
STARTCHAR 00FA
ENCODING 250
SWIDTH 560 0
DWIDTH 14 0
BBX 10 19 2 0
BITMAP
0300
0700
0E00
1C00
0000
0000
C0C0
C0C0
C0C0
C0C0
C0C0
C0C0
C0C0
C0C0
C0C0
E0C0
E0C0
7FC0
3FC0
ENDCHAR
STARTCHAR 00FB
ENCODING 251
SWIDTH 560 0
DWIDTH 14 0
BBX 10 19 2 0
BITMAP
0C00
1E00
1F00
3300
0000
0000
C0C0
C0C0
C0C0
C0C0
C0C0
C0C0
C0C0
C0C0
C0C0
E0C0
E0C0
7FC0
3FC0
ENDCHAR
STARTCHAR 00FC
ENCODING 252
SWIDTH 560 0
DWIDTH 14 0
BBX 10 18 2 0
BITMAP
7380
7380
2100
0000
0000
C0C0
C0C0
C0C0
C0C0
C0C0
C0C0
C0C0
C0C0
C0C0
E0C0
E0C0
7FC0
3FC0
ENDCHAR
STARTCHAR 00FD
ENCODING 253
SWIDTH 480 0
DWIDTH 12 0
BBX 12 24 0 -5
BITMAP
0180
0380
0300
0600
0000
0000
6070
6070
7060
7060
30E0
38C0
18C0
18C0
1DC0
0D80
0F80
0700
0700
0700
0600
8C00
FC00
7000
ENDCHAR
STARTCHAR 00FE
ENCODING 254
SWIDTH 560 0
DWIDTH 14 0
BBX 11 24 2 -5
BITMAP
C000
C000
C000
C000
C000
C000
FF00
FFC0
C1C0
C0E0
C060
C060
C060
C060
C060
C0E0
E0E0
FFC0
FF80
C000
C000
C000
C000
C000
ENDCHAR
STARTCHAR 00FF
ENCODING 255
SWIDTH 480 0
DWIDTH 12 0
BBX 12 23 0 -5
BITMAP
18C0
1DC0
0000
0000
0000
6070
6070
7060
7060
30E0
38C0
18C0
18C0
1DC0
0D80
0F80
0700
0700
0700
0600
8C00
FC00
7000
ENDCHAR
STARTCHAR 0100
ENCODING 256
SWIDTH 640 0
DWIDTH 16 0
BBX 16 22 0 0
BITMAP
07F0
07F0
0000
0000
0000
01C0
03C0
03E0
0760
0670
0670
0E30
0C38
1C18
181C
181C
3FFC
3FFE
700E
7006
6007
E003
ENDCHAR
STARTCHAR 0101
ENCODING 257
SWIDTH 520 0
DWIDTH 13 0
BBX 10 18 1 0
BITMAP
3F80
3F80
0000
0000
0000
7F00
3F80
01C0
00C0
00C0
1FC0
7FC0
E0C0
E0C0
C0C0
E0C0
7FC0
3FC0
ENDCHAR
STARTCHAR 0102
ENCODING 258
SWIDTH 640 0
DWIDTH 16 0
BBX 16 23 0 0
BITMAP
0430
0630
03E0
01C0
0000
0000
01C0
03C0
03E0
0760
0670
0670
0E30
0C38
1C18
181C
181C
3FFC
3FFE
700E
7006
6007
E003
ENDCHAR
STARTCHAR 0103
ENCODING 259
SWIDTH 520 0
DWIDTH 13 0
BBX 10 19 1 0
BITMAP
3180
3180
1F00
0E00
0000
0000
7F00
3F80
01C0
00C0
00C0
1FC0
7FC0
E0C0
E0C0
C0C0
E0C0
7FC0
3FC0
ENDCHAR
STARTCHAR 0104
ENCODING 260
SWIDTH 640 0
DWIDTH 16 0
BBX 16 22 0 -5
BITMAP
01C0
03C0
03E0
0760
0670
0670
0E30
0C38
1C18
181C
181C
3FFC
3FFE
700E
7006
6007
E003
0007
000E
000C
000F
0007
ENDCHAR
STARTCHAR 0105
ENCODING 261
SWIDTH 520 0
DWIDTH 13 0
BBX 10 18 1 -5
BITMAP
7F00
3F80
01C0
00C0
00C0
1FC0
7FC0
E0C0
E0C0
C0C0
E0C0
7FC0
3FC0
0180
0300
0300
03C0
01C0
ENDCHAR
STARTCHAR 0106
ENCODING 262
SWIDTH 600 0
DWIDTH 15 0
BBX 14 23 1 0
BITMAP
0060
00E0
01C0
0180
0000
01E0
0FFC
1F38
3800
3000
7000
6000
6000
E000
E000
E000
6000
6000
7000
3800
3C00
1FFC
07F8
ENDCHAR
STARTCHAR 0107
ENCODING 263
SWIDTH 440 0
DWIDTH 11 0
BBX 10 19 1 0
BITMAP
0180
0380
0700
0600
0000
0000
1FC0
3FC0
7000
6000
E000
E000
E000
E000
E000
6000
7000
3FC0
1FC0
ENDCHAR
STARTCHAR 0108
ENCODING 264
SWIDTH 600 0
DWIDTH 15 0
BBX 14 23 1 0
BITMAP
0080
01C0
03E0
0670
0000
01E0
0FFC
1F38
3800
3000
7000
6000
6000
E000
E000
E000
6000
6000
7000
3800
3C00
1FFC
07F8
ENDCHAR
STARTCHAR 0109
ENCODING 265
SWIDTH 440 0
DWIDTH 11 0
BBX 10 19 1 0
BITMAP
0600
0700
0F80
1880
0000
0000
1FC0
3FC0
7000
6000
E000
E000
E000
E000
E000
6000
7000
3FC0
1FC0
ENDCHAR
STARTCHAR 010A
ENCODING 266
SWIDTH 600 0
DWIDTH 15 0
BBX 14 22 1 0
BITMAP
01C0
01C0
0080
0000
01E0
0FFC
1F38
3800
3000
7000
6000
6000
E000
E000
E000
6000
6000
7000
3800
3C00
1FFC
07F8
ENDCHAR
STARTCHAR 010B
ENCODING 267
SWIDTH 440 0
DWIDTH 11 0
BBX 10 18 1 0
BITMAP
0700
0700
0200
0000
0000
1FC0
3FC0
7000
6000
E000
E000
E000
E000
E000
6000
7000
3FC0
1FC0
ENDCHAR
STARTCHAR 010C
ENCODING 268
SWIDTH 600 0
DWIDTH 15 0
BBX 14 23 1 0
BITMAP
0620
0760
03C0
0180
0000
01E0
0FFC
1F38
3800
3000
7000
6000
6000
E000
E000
E000
6000
6000
7000
3800
3C00
1FFC
07F8
ENDCHAR
STARTCHAR 010D
ENCODING 269
SWIDTH 440 0
DWIDTH 11 0
BBX 10 19 1 0
BITMAP
1880
1D80
0F00
0600
0000
0000
1FC0
3FC0
7000
6000
E000
E000
E000
E000
E000
6000
7000
3FC0
1FC0
ENDCHAR
STARTCHAR 010E
ENCODING 270
SWIDTH 680 0
DWIDTH 17 0
BBX 14 23 2 0
BITMAP
1880
1D80
0F00
0600
0000
0000
FFC0
FFE0
E078
E038
E01C
E01C
E00C
E00C
E00C
E00C
E00C
E01C
E01C
E038
E0F0
FFE0
FF80
ENDCHAR
STARTCHAR 010F
ENCODING 271
SWIDTH 600 0
DWIDTH 15 0
BBX 16 19 1 0
BITMAP
0077
0076
0076
0076
0076
0070
1FF0
3FF0
7070
6070
E070
E070
E070
E070
E070
6070
7070
3FF0
1FF0
ENDCHAR
STARTCHAR 0110
ENCODING 272
SWIDTH 720 0
DWIDTH 18 0
BBX 17 17 0 1
BITMAP
3FF000
3FFC00
381E00
380700
380700
380300
380380
FF0380
FF0380
380380
380380
380300
380700
380E00
381E00
3FF800
3FE000
ENDCHAR
STARTCHAR 0111
ENCODING 273
SWIDTH 560 0
DWIDTH 14 0
BBX 14 19 1 0
BITMAP
0070
0070
07FC
07FC
0070
0070
1FF0
3FF0
7070
6070
E070
E070
E070
E070
E070
6070
7070
3FF0
1FF0
ENDCHAR
STARTCHAR 0112
ENCODING 274
SWIDTH 560 0
DWIDTH 14 0
BBX 11 22 2 0
BITMAP
3F80
3F80
0000
0000
0000
FFE0
FFE0
E000
E000
E000
E000
E000
FFC0
FFC0
E000
E000
E000
E000
E000
E000
FFE0
FFE0
ENDCHAR
STARTCHAR 0113
ENCODING 275
SWIDTH 520 0
DWIDTH 13 0
BBX 12 18 1 0
BITMAP
3FC0
3FC0
0000
0000
0000
1F80
3FC0
70E0
6060
E060
FFF0
FFF0
E000
E000
6000
7000
3FE0
1FE0
ENDCHAR
STARTCHAR 0114
ENCODING 276
SWIDTH 560 0
DWIDTH 14 0
BBX 11 23 2 0
BITMAP
2180
3100
3F00
0E00
0000
0000
FFE0
FFE0
E000
E000
E000
E000
E000
FFC0
FFC0
E000
E000
E000
E000
E000
E000
FFE0
FFE0
ENDCHAR
STARTCHAR 0115
ENCODING 277
SWIDTH 520 0
DWIDTH 13 0
BBX 12 19 1 0
BITMAP
1080
1980
1F80
0600
0000
0000
1F80
3FC0
70E0
6060
E060
FFF0
FFF0
E000
E000
6000
7000
3FE0
1FE0
ENDCHAR
STARTCHAR 0116
ENCODING 278
SWIDTH 560 0
DWIDTH 14 0
BBX 11 22 2 0
BITMAP
0E00
0E00
0400
0000
0000
FFE0
FFE0
E000
E000
E000
E000
E000
FFC0
FFC0
E000
E000
E000
E000
E000
E000
FFE0
FFE0
ENDCHAR
STARTCHAR 0117
ENCODING 279
SWIDTH 520 0
DWIDTH 13 0
BBX 12 18 1 0
BITMAP
0700
0700
0200
0000
0000
1F80
3FC0
70E0
6060
E060
FFF0
FFF0
E000
E000
6000
7000
3FE0
1FE0
ENDCHAR
STARTCHAR 0118
ENCODING 280
SWIDTH 560 0
DWIDTH 14 0
BBX 11 22 2 -5
BITMAP
FFE0
FFE0
E000
E000
E000
E000
E000
FFC0
FFC0
E000
E000
E000
E000
E000
E000
FFE0
FFE0
00E0
01C0
0180
01E0
00E0
ENDCHAR
STARTCHAR 0119
ENCODING 281
SWIDTH 520 0
DWIDTH 13 0
BBX 12 18 1 -5
BITMAP
1F80
3FC0
70E0
6060
E060
FFF0
FFF0
E000
E000
6000
7000
3FE0
1FE0
01C0
0380
0300
03C0
00C0
ENDCHAR
STARTCHAR 011A
ENCODING 282
SWIDTH 560 0
DWIDTH 14 0
BBX 11 23 2 0
BITMAP
3100
3B00
1E00
0C00
0000
0000
FFE0
FFE0
E000
E000
E000
E000
E000
FFC0
FFC0
E000
E000
E000
E000
E000
E000
FFE0
FFE0
ENDCHAR
STARTCHAR 011B
ENCODING 283
SWIDTH 520 0
DWIDTH 13 0
BBX 12 19 1 0
BITMAP
1880
1D80
0F00
0600
0000
0000
1F80
3FC0
70E0
6060
E060
FFF0
FFF0
E000
E000
6000
7000
3FE0
1FE0
ENDCHAR
STARTCHAR 011C
ENCODING 284
SWIDTH 640 0
DWIDTH 16 0
BBX 14 23 1 0
BITMAP
0080
01C0
0360
0630
0000
01E0
0FFC
1F3C
3800
3000
7000
6000
6000
E000
E00C
E00C
600C
600C
700C
380C
3C0C
1FFC
07FC
ENDCHAR
STARTCHAR 011D
ENCODING 285
SWIDTH 560 0
DWIDTH 14 0
BBX 11 24 1 -5
BITMAP
0200
0700
0D80
18C0
0000
0000
1FE0
3FE0
7060
6060
E060
E060
E060
E060
6060
7060
3FE0
3FE0
0060
0060
0060
61E0
7FC0
1F00
ENDCHAR
STARTCHAR 011E
ENCODING 286
SWIDTH 640 0
DWIDTH 16 0
BBX 14 23 1 0
BITMAP
0630
0630
03E0
01C0
0000
01E0
0FFC
1F3C
3800
3000
7000
6000
6000
E000
E00C
E00C
600C
600C
700C
380C
3C0C
1FFC
07FC
ENDCHAR
STARTCHAR 011F
ENCODING 287
SWIDTH 560 0
DWIDTH 14 0
BBX 11 24 1 -5
BITMAP
18C0
18C0
0F80
0700
0000
0000
1FE0
3FE0
7060
6060
E060
E060
E060
E060
6060
7060
3FE0
3FE0
0060
0060
0060
61E0
7FC0
1F00
ENDCHAR
STARTCHAR 0120
ENCODING 288
SWIDTH 640 0
DWIDTH 16 0
BBX 14 22 1 0
BITMAP
01C0
01C0
0080
0000
01E0
0FFC
1F3C
3800
3000
7000
6000
6000
E000
E00C
E00C
600C
600C
700C
380C
3C0C
1FFC
07FC
ENDCHAR
STARTCHAR 0121
ENCODING 289
SWIDTH 560 0
DWIDTH 14 0
BBX 11 23 1 -5
BITMAP
0700
0700
0200
0000
0000
1FE0
3FE0
7060
6060
E060
E060
E060
E060
6060
7060
3FE0
3FE0
0060
0060
0060
61E0
7FC0
1F00
ENDCHAR
STARTCHAR 0122
ENCODING 290
SWIDTH 640 0
DWIDTH 16 0
BBX 14 23 1 -5
BITMAP
01E0
0FFC
1F3C
3800
3000
7000
6000
6000
E000
E00C
E00C
600C
600C
700C
380C
3C0C
1FFC
07FC
0000
01C0
01C0
0380
0300
ENDCHAR
STARTCHAR 0123
ENCODING 291
SWIDTH 560 0
DWIDTH 14 0
BBX 11 24 1 -4
BITMAP
0380
0300
0700
0700
0000
0000
1FE0
3FE0
7060
6060
E060
E060
E060
E060
6060
7060
3FE0
3FE0
0060
0060
0060
61E0
7FC0
1F00
ENDCHAR
STARTCHAR 0124
ENCODING 292
SWIDTH 680 0
DWIDTH 17 0
BBX 13 23 2 0
BITMAP
0200
0700
0F80
1CC0
0000
0000
E018
E018
E018
E018
E018
E018
E018
FFF8
FFF8
E018
E018
E018
E018
E018
E018
E018
E018
ENDCHAR
STARTCHAR 0125
ENCODING 293
SWIDTH 560 0
DWIDTH 14 0
BBX 12 24 1 0
BITMAP
1000
7800
EC00
0000
0000
6000
6000
6000
6000
6000
6000
7F80
7FC0
60E0
6060
6060
6060
6070
6070
6070
6070
6070
6070
6070
ENDCHAR
STARTCHAR 0126
ENCODING 294
SWIDTH 720 0
DWIDTH 18 0
BBX 18 17 0 0
BITMAP
380700
380700
FFFFC0
FFFFC0
380700
380700
380700
3FFF00
3FFF00
380700
380700
380700
380700
380700
380700
380700
380700
ENDCHAR
STARTCHAR 0127
ENCODING 295
SWIDTH 560 0
DWIDTH 14 0
BBX 13 19 0 0
BITMAP
3000
3000
FF80
FF80
3000
3000
3FC0
3FE0
3070
3030
3030
3030
3038
3038
3038
3038
3038
3038
3038
ENDCHAR
STARTCHAR 0128
ENCODING 296
SWIDTH 240 0
DWIDTH 6 0
BBX 7 22 0 0
BITMAP
F2
FE
80
00
00
38
38
38
38
38
38
38
38
38
38
38
38
38
38
38
38
38
ENDCHAR
STARTCHAR 0129
ENCODING 297
SWIDTH 240 0
DWIDTH 6 0
BBX 8 18 -1 0
BITMAP
7B
FF
00
00
00
18
18
18
18
18
18
18
18
18
18
18
18
18
ENDCHAR
STARTCHAR 012A
ENCODING 298
SWIDTH 240 0
DWIDTH 6 0
BBX 7 22 0 0
BITMAP
FE
FE
00
00
00
38
38
38
38
38
38
38
38
38
38
38
38
38
38
38
38
38
ENDCHAR
STARTCHAR 012B
ENCODING 299
SWIDTH 240 0
DWIDTH 6 0
BBX 7 18 0 0
BITMAP
FE
FE
00
00
00
30
30
30
30
30
30
30
30
30
30
30
30
30
ENDCHAR
STARTCHAR 012C
ENCODING 300
SWIDTH 240 0
DWIDTH 6 0
BBX 7 23 0 0
BITMAP
C6
C6
7C
38
00
00
38
38
38
38
38
38
38
38
38
38
38
38
38
38
38
38
38
ENDCHAR
STARTCHAR 012D
ENCODING 301
SWIDTH 240 0
DWIDTH 6 0
BBX 7 19 0 0
BITMAP
86
C4
FC
38
00
00
30
30
30
30
30
30
30
30
30
30
30
30
30
ENDCHAR
STARTCHAR 012E
ENCODING 302
SWIDTH 240 0
DWIDTH 6 0
BBX 5 22 0 -5
BITMAP
38
38
38
38
38
38
38
38
38
38
38
38
38
38
38
38
38
30
60
E0
78
30
ENDCHAR
STARTCHAR 012F
ENCODING 303
SWIDTH 240 0
DWIDTH 6 0
BBX 5 23 0 -5
BITMAP
38
38
10
00
00
30
30
30
30
30
30
30
30
30
30
30
30
30
70
60
C0
F8
30
ENDCHAR
STARTCHAR 0130
ENCODING 304
SWIDTH 240 0
DWIDTH 6 0
BBX 3 22 2 0
BITMAP
E0
E0
40
00
00
E0
E0
E0
E0
E0
E0
E0
E0
E0
E0
E0
E0
E0
E0
E0
E0
E0
ENDCHAR
STARTCHAR 0131
ENCODING 305
SWIDTH 240 0
DWIDTH 6 0
BBX 2 13 2 0
BITMAP
C0
C0
C0
C0
C0
C0
C0
C0
C0
C0
C0
C0
C0
ENDCHAR
STARTCHAR 0132
ENCODING 306
SWIDTH 760 0
DWIDTH 19 0
BBX 15 17 2 0
BITMAP
E006
E006
E006
E006
E006
E006
E006
E006
E006
E006
E006
E006
E006
E006
E20E
E7FC
E3F8
ENDCHAR
STARTCHAR 0133
ENCODING 307
SWIDTH 480 0
DWIDTH 12 0
BBX 9 23 2 -5
BITMAP
E380
E380
4100
0000
0000
C380
C380
C380
C380
C380
C380
C380
C380
C380
C380
C380
C380
C380
0380
0380
0700
1F00
1800
ENDCHAR
STARTCHAR 0134
ENCODING 308
SWIDTH 480 0
DWIDTH 12 0
BBX 13 23 0 0
BITMAP
0040
00E0
01F0
0318
0000
0000
00C0
00C0
00C0
00C0
00C0
00C0
00C0
00C0
00C0
00C0
00C0
00C0
00C0
00C0
41C0
FF80
7F00
ENDCHAR
STARTCHAR 0135
ENCODING 309
SWIDTH 240 0
DWIDTH 6 0
BBX 8 24 -2 -5
BITMAP
0C
0E
1F
31
00
00
0C
0C
0C
0C
0C
0C
0C
0C
0C
0C
0C
0C
0C
0C
0C
1C
F8
60
ENDCHAR
STARTCHAR 0136
ENCODING 310
SWIDTH 600 0
DWIDTH 15 0
BBX 13 22 2 -5
BITMAP
E070
E0E0
E1C0
E380
E700
EE00
FC00
F800
FC00
EE00
E700
E380
E1C0
E0E0
E070
E038
E038
0000
0600
0600
0E00
0C00
ENDCHAR
STARTCHAR 0137
ENCODING 311
SWIDTH 520 0
DWIDTH 13 0
BBX 10 24 2 -5
BITMAP
C000
C000
C000
C000
C000
C000
C1C0
C380
C700
CE00
DC00
F800
F800
DC00
CE00
C700
C380
C1C0
C0C0
0000
0C00
0C00
3C00
3000
ENDCHAR
STARTCHAR 0138
ENCODING 312
SWIDTH 520 0
DWIDTH 13 0
BBX 11 13 2 0
BITMAP
C1C0
C380
C700
CE00
DC00
F800
FC00
DE00
CF00
C780
C380
C1C0
C0E0
ENDCHAR
STARTCHAR 0139
ENCODING 313
SWIDTH 480 0
DWIDTH 12 0
BBX 11 23 2 0
BITMAP
1000
3800
7000
E000
4000
0000
E000
E000
E000
E000
E000
E000
E000
E000
E000
E000
E000
E000
E000
E000
E000
FFE0
FFE0
ENDCHAR
STARTCHAR 013A
ENCODING 314
SWIDTH 240 0
DWIDTH 6 0
BBX 4 24 2 0
BITMAP
10
70
E0
00
00
C0
C0
C0
C0
C0
C0
C0
C0
C0
C0
C0
C0
C0
C0
C0
C0
E0
F0
70
ENDCHAR
STARTCHAR 013B
ENCODING 315
SWIDTH 480 0
DWIDTH 12 0
BBX 11 22 2 -5
BITMAP
E000
E000
E000
E000
E000
E000
E000
E000
E000
E000
E000
E000
E000
E000
E000
FFE0
FFE0
0000
0E00
0E00
1C00
1800
ENDCHAR
STARTCHAR 013C
ENCODING 316
SWIDTH 240 0
DWIDTH 6 0
BBX 5 24 1 -5
BITMAP
60
60
60
60
60
60
60
60
60
60
60
60
60
60
60
60
70
78
38
00
30
70
E0
C0
ENDCHAR
STARTCHAR 013D
ENCODING 317
SWIDTH 480 0
DWIDTH 12 0
BBX 11 17 2 0
BITMAP
E600
E600
E600
E600
E400
E000
E000
E000
E000
E000
E000
E000
E000
E000
E000
FFE0
FFE0
ENDCHAR
STARTCHAR 013E
ENCODING 318
SWIDTH 280 0
DWIDTH 7 0
BBX 6 19 2 0
BITMAP
CC
CC
CC
CC
CC
C0
C0
C0
C0
C0
C0
C0
C0
C0
C0
C0
E0
F0
70
ENDCHAR
STARTCHAR 013F
ENCODING 319
SWIDTH 480 0
DWIDTH 12 0
BBX 11 17 2 0
BITMAP
E000
E000
E000
E000
E000
E000
E000
E380
E380
E000
E000
E000
E000
E000
E000
FFE0
FFE0
ENDCHAR
STARTCHAR 0140
ENCODING 320
SWIDTH 360 0
DWIDTH 9 0
BBX 7 19 2 0
BITMAP
C0
C0
C0
C0
C0
C0
C0
C0
C4
CE
CE
C0
C0
C0
C0
C0
E0
F0
70
ENDCHAR
STARTCHAR 0141
ENCODING 321
SWIDTH 520 0
DWIDTH 13 0
BBX 13 17 0 0
BITMAP
1800
1800
1800
1800
1800
1900
1F80
1E00
7800
F800
1800
1800
1800
1800
1800
1FF8
1FF8
ENDCHAR
STARTCHAR 0142
ENCODING 322
SWIDTH 280 0
DWIDTH 7 0
BBX 7 19 0 0
BITMAP
38
38
38
38
38
38
3A
3E
3C
F8
F8
38
38
38
38
38
38
1E
1C
ENDCHAR
STARTCHAR 0143
ENCODING 323
SWIDTH 720 0
DWIDTH 18 0
BBX 14 23 2 0
BITMAP
0080
01C0
0380
0700
0200
0000
E00C
F00C
F80C
F80C
FC0C
EE0C
E70C
E30C
E38C
E1CC
E0CC
E06C
E07C
E03C
E03C
E01C
E00C
ENDCHAR
STARTCHAR 0144
ENCODING 324
SWIDTH 560 0
DWIDTH 14 0
BBX 11 19 2 0
BITMAP
0300
0700
0E00
0C00
0000
0000
FF00
FF80
C1C0
C0C0
C0C0
C0C0
C0E0
C0E0
C0E0
C0E0
C0E0
C0E0
C0E0
ENDCHAR
STARTCHAR 0145
ENCODING 325
SWIDTH 720 0
DWIDTH 18 0
BBX 14 22 2 -5
BITMAP
E00C
F00C
F80C
F80C
FC0C
EE0C
E70C
E30C
E38C
E1CC
E0CC
E06C
E07C
E03C
E03C
E01C
E00C
0000
0300
0300
0F00
0E00
ENDCHAR
STARTCHAR 0146
ENCODING 326
SWIDTH 560 0
DWIDTH 14 0
BBX 11 18 2 -5
BITMAP
FF00
FF80
C1C0
C0C0
C0C0
C0C0
C0E0
C0E0
C0E0
C0E0
C0E0
C0E0
C0E0
0000
0C00
0C00
1C00
1800
ENDCHAR
STARTCHAR 0147
ENCODING 327
SWIDTH 720 0
DWIDTH 18 0
BBX 14 23 2 0
BITMAP
0C40
0EC0
0780
0300
0000
0000
E00C
F00C
F80C
F80C
FC0C
EE0C
E70C
E30C
E38C
E1CC
E0CC
E06C
E07C
E03C
E03C
E01C
E00C
ENDCHAR
STARTCHAR 0148
ENCODING 328
SWIDTH 560 0
DWIDTH 14 0
BBX 11 19 2 0
BITMAP
3100
1B00
1E00
0C00
0000
0000
FF00
FF80
C1C0
C0C0
C0C0
C0C0
C0E0
C0E0
C0E0
C0E0
C0E0
C0E0
C0E0
ENDCHAR
STARTCHAR 0149
ENCODING 329
SWIDTH 560 0
DWIDTH 14 0
BBX 12 19 1 0
BITMAP
C000
C000
C000
C000
8000
0000
7F80
7FC0
60E0
6060
6060
6060
6070
6070
6070
6070
6070
6070
6070
ENDCHAR
STARTCHAR 014A
ENCODING 330
SWIDTH 720 0
DWIDTH 18 0
BBX 14 22 2 -5
BITMAP
E00C
F00C
F80C
F80C
FC0C
EE0C
E70C
E30C
E38C
E1CC
E0CC
E0EC
E07C
E03C
E03C
E01C
E00C
000C
000C
001C
0078
0060
ENDCHAR
STARTCHAR 014B
ENCODING 331
SWIDTH 560 0
DWIDTH 14 0
BBX 11 18 2 -5
BITMAP
FF00
FF80
C1C0
C0C0
C0C0
C0C0
C0E0
C0E0
C0E0
C0E0
C0E0
C0E0
C0E0
00C0
00C0
01C0
07C0
0700
ENDCHAR
STARTCHAR 014C
ENCODING 332
SWIDTH 760 0
DWIDTH 19 0
BBX 17 22 1 0
BITMAP
07F000
07F000
000000
000000
01E000
0FF800
1F7C00
380E00
300700
700300
600380
600380
E00380
E00380
E00380
600380
600380
700700
380700
3C0E00
1FFC00
07F800
ENDCHAR
STARTCHAR 014D
ENCODING 333
SWIDTH 560 0
DWIDTH 14 0
BBX 12 18 1 0
BITMAP
1FC0
1FC0
0000
0000
0000
1F80
3FE0
7060
6070
E030
E030
E030
E030
E030
6070
7060
3FE0
1FC0
ENDCHAR
STARTCHAR 014E
ENCODING 334
SWIDTH 760 0
DWIDTH 19 0
BBX 17 23 1 0
BITMAP
061000
023000
03E000
01C000
000000
01E000
0FF800
1F7C00
380E00
300700
700300
600380
600380
E00380
E00380
E00380
600380
600380
700700
380700
3C0E00
1FFC00
07F800
ENDCHAR
STARTCHAR 014F
ENCODING 335
SWIDTH 560 0
DWIDTH 14 0
BBX 12 19 1 0
BITMAP
18C0
18C0
0F80
0700
0000
0000
1F80
3FE0
7060
6070
E030
E030
E030
E030
E030
6070
7060
3FE0
1FC0
ENDCHAR
STARTCHAR 0150
ENCODING 336
SWIDTH 760 0
DWIDTH 19 0
BBX 17 23 1 0
BITMAP
008800
019C00
039800
033000
000000
01E000
0FF800
1F7C00
380E00
300700
700300
600380
600380
E00380
E00380
E00380
600380
600380
700700
380700
3C0E00
1FFC00
07F800
ENDCHAR
STARTCHAR 0151
ENCODING 337
SWIDTH 560 0
DWIDTH 14 0
BBX 12 19 1 0
BITMAP
0620
0660
0CC0
1980
0000
0000
1F80
3FE0
7060
6070
E030
E030
E030
E030
E030
6070
7060
3FE0
1FC0
ENDCHAR
STARTCHAR 0152
ENCODING 338
SWIDTH 960 0
DWIDTH 24 0
BBX 23 17 1 1
BITMAP
07FFFC
1FFFFC
3C0E00
380E00
700E00
700E00
600E00
E00FF8
E00FF8
E00E00
600E00
700E00
700E00
380E00
1E0E00
0FFFFE
03FFFE
ENDCHAR
STARTCHAR 0153
ENCODING 339
SWIDTH 920 0
DWIDTH 23 0
BBX 21 13 1 0
BITMAP
1F87E0
3FEFF0
707C38
607818
E03818
E03FF8
E03FF8
E03000
E03800
607800
707C00
3FEFF0
1F87F0
ENDCHAR
STARTCHAR 0154
ENCODING 340
SWIDTH 600 0
DWIDTH 15 0
BBX 13 23 2 0
BITMAP
0300
0700
0600
0C00
0000
0000
FFC0
FFE0
E070
E070
E030
E030
E070
E0F0
FFE0
FF80
E380
E1C0
E0E0
E060
E070
E038
E038
ENDCHAR
STARTCHAR 0155
ENCODING 341
SWIDTH 360 0
DWIDTH 9 0
BBX 7 19 2 0
BITMAP
04
0C
18
30
00
00
FE
FE
C0
C0
C0
C0
C0
C0
C0
C0
C0
C0
C0
ENDCHAR
STARTCHAR 0156
ENCODING 342
SWIDTH 600 0
DWIDTH 15 0
BBX 13 22 2 -4
BITMAP
FFC0
FFE0
E070
E070
E030
E030
E070
E0F0
FFE0
FF80
E380
E1C0
E0E0
E060
E070
E038
E038
0000
0600
0600
0E00
0C00
ENDCHAR
STARTCHAR 0157
ENCODING 343
SWIDTH 360 0
DWIDTH 9 0
BBX 9 18 0 -5
BITMAP
3F80
3F80
3000
3000
3000
3000
3000
3000
3000
3000
3000
3000
3000
0000
3000
3000
F000
E000
ENDCHAR
STARTCHAR 0158
ENCODING 344
SWIDTH 600 0
DWIDTH 15 0
BBX 13 23 2 0
BITMAP
3100
1B00
1E00
0C00
0000
0000
FFC0
FFE0
E070
E070
E030
E030
E070
E0F0
FFE0
FF80
E380
E1C0
E0E0
E060
E070
E038
E038
ENDCHAR
STARTCHAR 0159
ENCODING 345
SWIDTH 360 0
DWIDTH 9 0
BBX 7 19 2 0
BITMAP
46
6C
3C
18
00
00
FE
FE
C0
C0
C0
C0
C0
C0
C0
C0
C0
C0
C0
ENDCHAR
STARTCHAR 015A
ENCODING 346
SWIDTH 520 0
DWIDTH 13 0
BBX 12 23 1 0
BITMAP
0100
0380
0700
0E00
0000
0F00
3FE0
79C0
E000
E000
E000
E000
7800
3E00
1F80
03C0
00E0
0060
0070
0060
80E0
FFE0
7F80
ENDCHAR
STARTCHAR 015B
ENCODING 347
SWIDTH 440 0
DWIDTH 11 0
BBX 9 19 1 0
BITMAP
0600
0600
0C00
1800
0000
0000
3F00
7F00
E000
E000
E000
7800
3E00
0F80
0380
0180
0180
FF80
FF00
ENDCHAR
STARTCHAR 015C
ENCODING 348
SWIDTH 520 0
DWIDTH 13 0
BBX 12 23 1 0
BITMAP
0600
0E00
1F00
1980
1000
0F00
3FE0
79C0
E000
E000
E000
E000
7800
3E00
1F80
03C0
00E0
0060
0070
0060
80E0
FFE0
7F80
ENDCHAR
STARTCHAR 015D
ENCODING 349
SWIDTH 440 0
DWIDTH 11 0
BBX 9 19 1 0
BITMAP
0800
1C00
3600
6300
0000
0000
3F00
7F00
E000
E000
E000
7800
3E00
0F80
0380
0180
0180
FF80
FF00
ENDCHAR
STARTCHAR 015E
ENCODING 350
SWIDTH 520 0
DWIDTH 13 0
BBX 12 23 1 -5
BITMAP
0F00
3FE0
79C0
E000
E000
E000
E000
7800
3E00
1F80
03C0
00E0
0060
0070
0060
80E0
FFE0
FF80
0400
0E00
0600
1E00
1C00
ENDCHAR
STARTCHAR 015F
ENCODING 351
SWIDTH 440 0
DWIDTH 11 0
BBX 9 18 1 -5
BITMAP
3F00
7F00
E000
E000
E000
7800
3E00
0F80
0380
0180
0180
FF80
FF00
0800
1C00
0C00
3C00
3800
ENDCHAR
STARTCHAR 0160
ENCODING 352
SWIDTH 520 0
DWIDTH 13 0
BBX 12 23 1 0
BITMAP
1080
1B80
0F00
0600
0000
0F00
3FE0
79C0
E000
E000
E000
E000
7800
3E00
1F80
03C0
00E0
0060
0070
0060
80E0
FFE0
7F80
ENDCHAR
STARTCHAR 0161
ENCODING 353
SWIDTH 440 0
DWIDTH 11 0
BBX 9 19 1 0
BITMAP
6300
3600
1C00
0800
0000
0000
3F00
7F00
E000
E000
E000
7800
3E00
0F80
0380
0180
0180
FF80
FF00
ENDCHAR
STARTCHAR 0162
ENCODING 354
SWIDTH 560 0
DWIDTH 14 0
BBX 14 22 0 -5
BITMAP
FFFC
FFFC
0300
0300
0300
0300
0300
0300
0300
0300
0300
0300
0300
0300
0300
0300
0300
0300
0300
0180
0F80
0E00
ENDCHAR
STARTCHAR 0163
ENCODING 355
SWIDTH 400 0
DWIDTH 10 0
BBX 8 22 2 -5
BITMAP
C0
C0
C0
C0
FE
FE
C0
C0
C0
C0
C0
C0
C0
C0
E0
FE
7F
18
18
0C
7C
38
ENDCHAR
STARTCHAR 0164
ENCODING 356
SWIDTH 560 0
DWIDTH 14 0
BBX 14 23 0 0
BITMAP
0840
0EC0
0780
0300
0000
0000
FFFC
FFFC
0300
0300
0300
0300
0300
0300
0300
0300
0300
0300
0300
0300
0300
0300
0300
ENDCHAR
STARTCHAR 0165
ENCODING 357
SWIDTH 400 0
DWIDTH 10 0
BBX 8 19 2 0
BITMAP
0C
0C
CC
CC
C0
C0
FE
FE
C0
C0
C0
C0
C0
C0
C0
C0
E0
7E
7F
ENDCHAR
STARTCHAR 0166
ENCODING 358
SWIDTH 560 0
DWIDTH 14 0
BBX 14 17 0 0
BITMAP
FFFC
FFFC
0300
0300
0300
0300
0300
1FF0
1FF0
0300
0300
0300
0300
0300
0300
0300
0300
ENDCHAR
STARTCHAR 0167
ENCODING 359
SWIDTH 400 0
DWIDTH 10 0
BBX 8 17 2 0
BITMAP
C0
C0
C0
C0
FE
FE
C0
C0
C0
FE
FE
C0
C0
C0
E0
7E
7F
ENDCHAR
STARTCHAR 0168
ENCODING 360
SWIDTH 680 0
DWIDTH 17 0
BBX 13 22 2 0
BITMAP
0E60
1FC0
1100
0000
0000
C018
C018
C018
C018
C018
C018
C018
C018
C018
C018
C018
E018
E038
E038
7070
3FF0
1FC0
ENDCHAR
STARTCHAR 0169
ENCODING 361
SWIDTH 560 0
DWIDTH 14 0
BBX 10 18 2 0
BITMAP
3D80
7F80
0000
0000
0000
C0C0
C0C0
C0C0
C0C0
C0C0
C0C0
C0C0
C0C0
C0C0
E0C0
E0C0
7FC0
3FC0
ENDCHAR
STARTCHAR 016A
ENCODING 362
SWIDTH 680 0
DWIDTH 17 0
BBX 13 22 2 0
BITMAP
1FC0
1FC0
0000
0000
0000
C018
C018
C018
C018
C018
C018
C018
C018
C018
C018
C018
E018
E038
E038
7070
3FF0
1FC0
ENDCHAR
STARTCHAR 016B
ENCODING 363
SWIDTH 560 0
DWIDTH 14 0
BBX 10 18 2 0
BITMAP
3F80
3F80
0000
0000
0000
C0C0
C0C0
C0C0
C0C0
C0C0
C0C0
C0C0
C0C0
C0C0
E0C0
E0C0
7FC0
3FC0
ENDCHAR
STARTCHAR 016C
ENCODING 364
SWIDTH 680 0
DWIDTH 17 0
BBX 13 23 2 0
BITMAP
18C0
18C0
0F80
0700
0000
0000
C018
C018
C018
C018
C018
C018
C018
C018
C018
C018
C018
E018
E038
E038
7070
3FF0
1FC0
ENDCHAR
STARTCHAR 016D
ENCODING 365
SWIDTH 560 0
DWIDTH 14 0
BBX 10 19 2 0
BITMAP
2100
3300
3F00
0C00
0000
0000
C0C0
C0C0
C0C0
C0C0
C0C0
C0C0
C0C0
C0C0
C0C0
E0C0
E0C0
7FC0
3FC0
ENDCHAR
STARTCHAR 016E
ENCODING 366
SWIDTH 680 0
DWIDTH 17 0
BBX 13 23 2 0
BITMAP
0780
0880
0880
0D80
0700
0000
C018
C018
C018
C018
C018
C018
C018
C018
C018
C018
C018
E018
E038
E038
7070
3FF0
1FC0
ENDCHAR
STARTCHAR 016F
ENCODING 367
SWIDTH 560 0
DWIDTH 14 0
BBX 10 19 2 0
BITMAP
1E00
1300
1300
1E00
0C00
0000
C0C0
C0C0
C0C0
C0C0
C0C0
C0C0
C0C0
C0C0
C0C0
E0C0
E0C0
7FC0
3FC0
ENDCHAR
STARTCHAR 0170
ENCODING 368
SWIDTH 680 0
DWIDTH 17 0
BBX 13 23 2 0
BITMAP
0220
0660
0CE0
0CC0
0000
0000
C018
C018
C018
C018
C018
C018
C018
C018
C018
C018
C018
E018
E038
E038
7070
3FF0
1FC0
ENDCHAR
STARTCHAR 0171
ENCODING 369
SWIDTH 560 0
DWIDTH 14 0
BBX 10 19 2 0
BITMAP
0CC0
1CC0
1980
3300
0000
0000
C0C0
C0C0
C0C0
C0C0
C0C0
C0C0
C0C0
C0C0
C0C0
E0C0
E0C0
7FC0
3FC0
ENDCHAR
STARTCHAR 0172
ENCODING 370
SWIDTH 680 0
DWIDTH 17 0
BBX 13 22 2 -5
BITMAP
C018
C018
C018
C018
C018
C018
C018
C018
C018
C018
C018
E018
E038
E038
7070
3FF0
1FC0
0180
0300
0700
07C0
0180
ENDCHAR
STARTCHAR 0173
ENCODING 371
SWIDTH 560 0
DWIDTH 14 0
BBX 10 18 2 -5
BITMAP
C0C0
C0C0
C0C0
C0C0
C0C0
C0C0
C0C0
C0C0
C0C0
E0C0
E0C0
7FC0
3FC0
0180
0380
0300
03C0
01C0
ENDCHAR
STARTCHAR 0174
ENCODING 372
SWIDTH 920 0
DWIDTH 23 0
BBX 21 23 1 0
BITMAP
002000
007000
00D800
018C00
000000
000000
C00018
E00018
E07018
E07038
607838
60F830
70D830
70DC30
71CC70
318C60
318E60
3B0660
3B06E0
1B07C0
1E03C0
1E03C0
0E0180
ENDCHAR
STARTCHAR 0175
ENCODING 373
SWIDTH 760 0
DWIDTH 19 0
BBX 18 19 1 0
BITMAP
008000
01C000
036000
063000
000000
000000
C0C1C0
C1C1C0
E1C180
E1E180
61E380
636300
736300
333300
363600
3E3600
1E1E00
1C1C00
0C1C00
ENDCHAR
STARTCHAR 0176
ENCODING 374
SWIDTH 560 0
DWIDTH 14 0
BBX 13 23 1 0
BITMAP
0200
0700
0D80
18C0
0000
0000
C018
E038
6030
7070
3060
38E0
1DC0
0D80
0F80
0700
0700
0700
0700
0700
0700
0700
0700
ENDCHAR
STARTCHAR 0177
ENCODING 375
SWIDTH 480 0
DWIDTH 12 0
BBX 12 24 0 -5
BITMAP
0200
0700
0D80
18C0
0000
0000
6070
6070
7060
7060
30E0
38C0
18C0
18C0
1DC0
0D80
0F80
0700
0700
0700
0600
8C00
FC00
7000
ENDCHAR
STARTCHAR 0178
ENCODING 376
SWIDTH 560 0
DWIDTH 14 0
BBX 13 22 1 0
BITMAP
18C0
1DC0
0880
0000
0000
C018
E038
6030
7070
3060
38E0
1DC0
0D80
0F80
0700
0700
0700
0700
0700
0700
0700
0700
ENDCHAR
STARTCHAR 0179
ENCODING 377
SWIDTH 560 0
DWIDTH 14 0
BBX 12 23 1 0
BITMAP
0180
0380
0700
0600
0000
0000
FFF0
FFF0
0060
00E0
01C0
0380
0700
0600
0E00
1C00
1800
3800
7000
6000
E000
FFF0
FFF0
ENDCHAR
STARTCHAR 017A
ENCODING 378
SWIDTH 440 0
DWIDTH 11 0
BBX 10 19 1 0
BITMAP
0200
0600
0C00
1800
0000
0000
FFC0
FFC0
0380
0700
0600
0E00
1C00
3800
3000
7000
E000
FFC0
FFC0
ENDCHAR
STARTCHAR 017B
ENCODING 379
SWIDTH 560 0
DWIDTH 14 0
BBX 12 22 1 0
BITMAP
0700
0700
0200
0000
0000
FFF0
FFF0
0060
00E0
01C0
0380
0700
0600
0E00
1C00
1800
3800
7000
6000
E000
FFF0
FFF0
ENDCHAR
STARTCHAR 017C
ENCODING 380
SWIDTH 440 0
DWIDTH 11 0
BBX 10 18 1 0
BITMAP
1C00
1C00
0800
0000
0000
FFC0
FFC0
0380
0700
0600
0E00
1C00
3800
3000
7000
E000
FFC0
FFC0
ENDCHAR
STARTCHAR 017D
ENCODING 381
SWIDTH 560 0
DWIDTH 14 0
BBX 12 23 1 0
BITMAP
1880
1D80
0F00
0600
0000
0000
FFF0
FFF0
0060
00E0
01C0
0380
0700
0600
0E00
1C00
1800
3800
7000
6000
E000
FFF0
FFF0
ENDCHAR
STARTCHAR 017E
ENCODING 382
SWIDTH 440 0
DWIDTH 11 0
BBX 10 19 1 0
BITMAP
2300
3600
1E00
0C00
0000
0000
FFC0
FFC0
0380
0700
0600
0E00
1C00
3800
3000
7000
E000
FFC0
FFC0
ENDCHAR
STARTCHAR 017F
ENCODING 383
SWIDTH 240 0
DWIDTH 6 0
BBX 8 19 2 0
BITMAP
3F
7F
E0
E0
C0
C0
C0
C0
C0
C0
C0
C0
C0
C0
C0
C0
C0
C0
C0
ENDCHAR
STARTCHAR 0180
ENCODING 384
SWIDTH 560 0
DWIDTH 14 0
BBX 13 19 0 0
BITMAP
3000
3000
FF80
FF80
3000
3000
37C0
3FF0
3870
3038
3018
3018
3018
3018
3018
3038
3070
3FF0
3FC0
ENDCHAR
STARTCHAR 0181
ENCODING 385
SWIDTH 720 0
DWIDTH 18 0
BBX 17 18 0 0
BITMAP
004000
3FFC00
7FFF00
E60700
C60380
C60380
060300
060F00
07FC00
07FF00
060780
060380
060180
060180
060380
060780
07FF00
07FC00
ENDCHAR
STARTCHAR 0182
ENCODING 386
SWIDTH 600 0
DWIDTH 15 0
BBX 12 17 2 0
BITMAP
FFE0
FFE0
E000
E000
E000
E000
FF00
FFE0
E0F0
E070
E030
E030
E030
E070
E0F0
FFE0
FF80
ENDCHAR
STARTCHAR 0183
ENCODING 387
SWIDTH 560 0
DWIDTH 14 0
BBX 11 19 2 0
BITMAP
FFC0
FFC0
C000
C000
C000
C000
DF00
FFC0
E1C0
C0E0
C060
C060
C060
C060
C060
C0E0
C1C0
FFC0
FF00
ENDCHAR
STARTCHAR 0184
ENCODING 388
SWIDTH 560 0
DWIDTH 14 0
BBX 13 19 0 0
BITMAP
3000
F000
7000
3000
3000
3000
3FE0
3FF0
3838
3038
3018
3018
3018
3018
3018
3038
3070
3FF0
3FC0
ENDCHAR
STARTCHAR 0185
ENCODING 389
SWIDTH 600 0
DWIDTH 15 0
BBX 14 17 1 1
BITMAP
7000
F000
7000
7000
7000
7000
7FC0
7FF0
7078
7038
7018
701C
701C
7038
7078
7FF0
7FC0
ENDCHAR
STARTCHAR 0186
ENCODING 390
SWIDTH 600 0
DWIDTH 15 0
BBX 13 18 1 0
BITMAP
3E00
FF80
F3E0
00E0
0070
0030
0038
0038
0038
0038
0038
0038
0038
0030
0070
80E0
FFC0
FF80
ENDCHAR
STARTCHAR 0187
ENCODING 391
SWIDTH 640 0
DWIDTH 16 0
BBX 17 20 1 0
BITMAP
000300
000F80
01EC00
0FFC00
1F3800
380000
300000
700000
600000
600000
E00000
E00000
E00000
600000
600000
700000
380000
3C0000
1FFC00
07F800
ENDCHAR
STARTCHAR 0188
ENCODING 392
SWIDTH 480 0
DWIDTH 12 0
BBX 13 16 1 0
BITMAP
0038
0078
00C0
1FC0
3FC0
7000
6000
E000
E000
E000
E000
E000
6000
7000
3FC0
1FC0
ENDCHAR
STARTCHAR 0189
ENCODING 393
SWIDTH 720 0
DWIDTH 18 0
BBX 17 17 0 1
BITMAP
3FF000
3FFC00
381E00
380700
380700
380300
380380
FF0380
FF0380
380380
380380
380300
380700
380E00
381E00
3FF800
3FE000
ENDCHAR
STARTCHAR 018A
ENCODING 394
SWIDTH 800 0
DWIDTH 20 0
BBX 19 18 0 0
BITMAP
004000
3FFC00
7FFF00
E60780
C601C0
C601C0
0600E0
0600E0
0600E0
0600E0
0600E0
0600E0
0600C0
0601C0
0603C0
060780
07FF00
07F800
ENDCHAR
STARTCHAR 018B
ENCODING 395
SWIDTH 600 0
DWIDTH 15 0
BBX 12 17 1 0
BITMAP
3FF0
3FF0
0030
0030
0030
0030
0FF0
3FF0
7830
E030
E030
E030
E030
E030
7030
3FF0
1FF0
ENDCHAR
STARTCHAR 018C
ENCODING 396
SWIDTH 560 0
DWIDTH 14 0
BBX 12 19 1 0
BITMAP
3FF0
3FF0
0070
0070
0070
0070
1FF0
3FF0
7070
6070
E070
E070
E070
E070
E070
6070
7070
3FF0
1FF0
ENDCHAR
STARTCHAR 018D
ENCODING 397
SWIDTH 560 0
DWIDTH 14 0
BBX 12 18 1 -5
BITMAP
1FC0
3FE0
7060
6070
E030
E030
E030
E030
6070
78E0
3FC0
0F00
0380
01C0
00C0
21C0
3F80
1E00
ENDCHAR
STARTCHAR 018E
ENCODING 398
SWIDTH 560 0
DWIDTH 14 0
BBX 11 17 1 0
BITMAP
7FE0
7FE0
0060
0060
0060
0060
0060
7FE0
7FE0
0060
0060
0060
0060
0060
0060
FFE0
FFE0
ENDCHAR
STARTCHAR 018F
ENCODING 399
SWIDTH 680 0
DWIDTH 17 0
BBX 15 18 1 0
BITMAP
0F80
3FF0
39F8
003C
001C
000E
000E
000E
0006
FFFE
FFFE
E00E
600E
600C
701C
3838
1FF8
0FE0
ENDCHAR
STARTCHAR 0190
ENCODING 400
SWIDTH 560 0
DWIDTH 14 0
BBX 12 18 1 0
BITMAP
0780
1FF0
3CF0
7000
7000
7000
7000
3C00
0FC0
3FC0
7000
6000
E000
E000
E000
7010
7FF0
1FF0
ENDCHAR
STARTCHAR 0191
ENCODING 401
SWIDTH 520 0
DWIDTH 13 0
BBX 14 22 -1 -5
BITMAP
1FFC
1FFC
1C00
1C00
1C00
1C00
1C00
1FF8
1FF8
1C00
1C00
1C00
1C00
1C00
1C00
1C00
1C00
1C00
1800
1800
F800
E000
ENDCHAR
STARTCHAR 0192
ENCODING 402
SWIDTH 360 0
DWIDTH 9 0
BBX 12 24 -2 -5
BITMAP
03F0
07F0
0E00
0C00
0C00
0C00
0FE0
0FE0
0C00
0C00
0C00
0C00
0C00
0C00
0C00
0C00
0C00
0C00
0C00
0C00
0C00
1C00
F800
6000
ENDCHAR
STARTCHAR 0193
ENCODING 403
SWIDTH 640 0
DWIDTH 16 0
BBX 17 20 1 0
BITMAP
000380
000F80
01EE00
0FFC00
1F3800
380000
300000
700000
600000
600000
E00000
E00000
E00C00
600C00
600C00
700C00
380C00
3C0C00
1FFC00
07FC00
ENDCHAR
STARTCHAR 0194
ENCODING 404
SWIDTH 640 0
DWIDTH 16 0
BBX 15 22 1 -5
BITMAP
C00E
E00C
E01C
7018
7038
3030
3870
1860
1CE0
0CC0
0FC0
0780
0780
0380
0780
0EC0
0CC0
0C60
0C60
0FE0
0FC0
0100
ENDCHAR
STARTCHAR 0195
ENCODING 405
SWIDTH 880 0
DWIDTH 22 0
BBX 18 19 2 0
BITMAP
C00000
C00000
C00000
C00000
C00000
C00000
FF00C0
FF80C0
C1C0C0
C0C0C0
C0C0C0
C0C0C0
C0C0C0
C0C0C0
C0C0C0
C0E0C0
C0E1C0
C07F80
C03F00
ENDCHAR
STARTCHAR 0196
ENCODING 406
SWIDTH 360 0
DWIDTH 9 0
BBX 7 17 2 0
BITMAP
E0
E0
E0
E0
E0
E0
E0
E0
E0
E0
E0
E0
E0
E0
E0
7E
7E
ENDCHAR
STARTCHAR 0197
ENCODING 407
SWIDTH 320 0
DWIDTH 8 0
BBX 8 17 0 0
BITMAP
18
18
18
18
18
18
18
FF
FF
18
18
18
18
18
18
18
18
ENDCHAR
STARTCHAR 0198
ENCODING 408
SWIDTH 640 0
DWIDTH 16 0
BBX 14 18 2 0
BITMAP
0018
E07C
E0EC
E1C0
E380
E700
EE00
FC00
F800
FC00
EE00
E700
E380
E1C0
E0E0
E070
E038
E018
ENDCHAR
STARTCHAR 0199
ENCODING 409
SWIDTH 520 0
DWIDTH 13 0
BBX 10 19 2 0
BITMAP
7800
F800
E000
C000
C000
C000
C1C0
C380
C700
CE00
DC00
F800
F800
DC00
CE00
C700
C380
C1C0
C0C0
ENDCHAR
STARTCHAR 019A
ENCODING 410
SWIDTH 280 0
DWIDTH 7 0
BBX 7 19 0 0
BITMAP
38
38
38
38
38
38
38
38
FE
FE
38
38
38
38
38
38
38
1E
1C
ENDCHAR
STARTCHAR 019B
ENCODING 411
SWIDTH 480 0
DWIDTH 12 0
BBX 11 19 1 0
BITMAP
F000
F880
1F80
3E00
7C00
0E00
0E00
0F00
1F00
1B00
3B80
3180
3180
61C0
60C0
E0C0
C0E0
C0E0
C060
ENDCHAR
STARTCHAR 019C
ENCODING 412
SWIDTH 960 0
DWIDTH 24 0
BBX 20 17 2 0
BITMAP
E06030
E06030
E06030
E06030
E06030
E06030
E06030
E06030
E06030
E06030
E06030
E06030
E07030
E07030
707030
7FFFF0
3F9FF0
ENDCHAR
STARTCHAR 019D
ENCODING 413
SWIDTH 720 0
DWIDTH 18 0
BBX 17 22 -1 -5
BITMAP
1C0180
1E0180
1F0180
1F0180
1F8180
1DC180
1CE180
1C6180
1C7180
1C3980
1C1980
1C0D80
1C0F80
1C0780
1C0780
1C0380
1C0180
1C0000
180000
180000
F80000
E00000
ENDCHAR
STARTCHAR 019E
ENCODING 414
SWIDTH 560 0
DWIDTH 14 0
BBX 11 18 2 -5
BITMAP
FF00
FF80
C1C0
C0C0
C0C0
C0C0
C0E0
C0E0
C0E0
C0E0
C0E0
C0E0
C0E0
00E0
00E0
00E0
00E0
00E0
ENDCHAR
STARTCHAR 019F
ENCODING 415
SWIDTH 760 0
DWIDTH 19 0
BBX 17 18 1 0
BITMAP
01E000
0FF800
1F7C00
380E00
300700
700300
600380
600380
FFFF80
FFFF80
E00380
600380
700380
700700
380700
3C0E00
1FFC00
07F800
ENDCHAR
STARTCHAR 01A0
ENCODING 416
SWIDTH 760 0
DWIDTH 19 0
BBX 17 20 1 0
BITMAP
000180
000180
01C380
0FFB00
1F7F00
380E00
300700
700300
600380
600380
E00380
E00380
E00380
600380
600380
700700
380700
3C0E00
1FFC00
07F800
ENDCHAR
STARTCHAR 01A1
ENCODING 417
SWIDTH 560 0
DWIDTH 14 0
BBX 14 16 1 0
BITMAP
001C
001C
0018
1F98
3FF0
7070
6070
E030
E030
E030
E030
E030
6070
7060
3FE0
1FC0
ENDCHAR
STARTCHAR 01A2
ENCODING 418
SWIDTH 1000 0
DWIDTH 25 0
BBX 22 18 1 0
BITMAP
01C1C0
0FFFF8
1F7FFC
380E1C
700E0C
70070C
60070C
60030C
E0030C
E0030C
E0030C
60030C
60070C
70070C
380E0C
3C1C0C
1FF80C
07F00C
ENDCHAR
STARTCHAR 01A3
ENCODING 419
SWIDTH 800 0
DWIDTH 20 0
BBX 18 18 1 -5
BITMAP
1FBF00
3FFF80
70E180
6071C0
E071C0
E031C0
E031C0
E031C0
E071C0
6071C0
70E1C0
3FC1C0
1F81C0
0001C0
0001C0
0001C0
0001C0
0001C0
ENDCHAR
STARTCHAR 01A4
ENCODING 420
SWIDTH 680 0
DWIDTH 17 0
BBX 17 18 0 0
BITMAP
004000
3FFC00
7FFF00
E60700
C60380
C60380
060380
060380
060700
067F00
07FC00
078000
060000
060000
060000
060000
060000
060000
ENDCHAR
STARTCHAR 01A5
ENCODING 421
SWIDTH 560 0
DWIDTH 14 0
BBX 11 24 2 -5
BITMAP
7800
F800
E000
C000
C000
C000
FF00
FFC0
C1C0
C0E0
C060
C060
C060
C060
C060
C0E0
E0E0
FFC0
FF80
C000
C000
C000
C000
C000
ENDCHAR
STARTCHAR 01A6
ENCODING 422
SWIDTH 600 0
DWIDTH 15 0
BBX 14 22 2 -3
BITMAP
E000
E000
FFC0
FFE0
E070
E070
E030
E030
E070
E0F0
FFE0
FF80
E380
E1C0
E0E0
E0E0
E070
E030
E038
0018
001C
000C
ENDCHAR
STARTCHAR 01A7
ENCODING 423
SWIDTH 520 0
DWIDTH 13 0
BBX 11 18 1 0
BITMAP
1E00
7F80
73C0
00E0
0060
00E0
00E0
03C0
0FC0
3F00
7800
E000
E000
C000
C000
E020
7FE0
3FE0
ENDCHAR
STARTCHAR 01A8
ENCODING 424
SWIDTH 440 0
DWIDTH 11 0
BBX 9 13 1 0
BITMAP
7E00
7F00
0380
0180
0380
0F00
3E00
7800
E000
C000
E000
FF80
7F80
ENDCHAR
STARTCHAR 01A9
ENCODING 425
SWIDTH 560 0
DWIDTH 14 0
BBX 12 17 1 0
BITMAP
FFF0
FFF0
7000
3800
1800
0C00
0E00
0700
0700
0E00
1C00
1800
3800
7000
E000
FFF0
FFF0
ENDCHAR
STARTCHAR 01AA
ENCODING 426
SWIDTH 280 0
DWIDTH 7 0
BBX 9 24 -2 -5
BITMAP
7C00
EE00
C600
C600
CE00
7E00
0600
0600
0600
0600
0600
0600
0600
0600
0600
0600
0600
0600
0600
0600
0600
0700
0380
0080
ENDCHAR
STARTCHAR 01AB
ENCODING 427
SWIDTH 400 0
DWIDTH 10 0
BBX 7 22 2 -5
BITMAP
C0
C0
C0
C0
FE
FE
C0
C0
C0
C0
C0
C0
C0
C0
E0
7E
7E
06
06
06
1E
1C
ENDCHAR
STARTCHAR 01AC
ENCODING 428
SWIDTH 560 0
DWIDTH 14 0
BBX 14 17 0 0
BITMAP
3FFC
7FFC
E180
C180
C180
0180
0180
0180
0180
0180
0180
0180
0180
0180
0180
0180
0180
ENDCHAR
STARTCHAR 01AD
ENCODING 429
SWIDTH 400 0
DWIDTH 10 0
BBX 8 19 2 0
BITMAP
3F
7E
E0
C0
C0
C0
FE
FE
C0
C0
C0
C0
C0
C0
C0
C0
E0
7E
7F
ENDCHAR
STARTCHAR 01AE
ENCODING 430
SWIDTH 560 0
DWIDTH 14 0
BBX 14 22 0 -5
BITMAP
FFFC
FFFC
0300
0300
0300
0300
0300
0300
0300
0300
0300
0300
0300
0300
0300
0300
0300
0300
0300
0380
01E0
0060
ENDCHAR
STARTCHAR 01AF
ENCODING 431
SWIDTH 680 0
DWIDTH 17 0
BBX 16 20 2 0
BITMAP
0003
0003
0007
C01E
C018
C018
C018
C018
C018
C018
C018
C018
C018
C018
E018
E038
E038
7070
3FF0
1FC0
ENDCHAR
STARTCHAR 01B0
ENCODING 432
SWIDTH 560 0
DWIDTH 14 0
BBX 13 16 2 0
BITMAP
0018
0018
0018
C0F8
C0E0
C0C0
C0C0
C0C0
C0C0
C0C0
C0C0
C0C0
E0C0
E0C0
7FC0
3FC0
ENDCHAR
STARTCHAR 01B1
ENCODING 433
SWIDTH 760 0
DWIDTH 19 0
BBX 17 17 1 0
BITMAP
FE1F80
FE1F80
1C0C00
380600
300700
700300
700380
600380
600380
600380
600380
700380
700300
380700
3C0E00
1FFC00
07F800
ENDCHAR
STARTCHAR 01B2
ENCODING 434
SWIDTH 680 0
DWIDTH 17 0
BBX 14 17 2 0
BITMAP
C1E0
C1F0
C038
C038
C018
C01C
C01C
C01C
C01C
C01C
C01C
E018
E018
E038
7070
3FE0
1FC0
ENDCHAR
STARTCHAR 01B3
ENCODING 435
SWIDTH 640 0
DWIDTH 16 0
BBX 16 18 1 0
BITMAP
0008
C01F
E03F
6070
7060
38E0
38C0
1DC0
0D80
0F80
0700
0700
0700
0700
0700
0700
0700
0700
ENDCHAR
STARTCHAR 01B4
ENCODING 436
SWIDTH 560 0
DWIDTH 14 0
BBX 14 18 0 -5
BITMAP
603C
607C
7060
7060
30E0
38C0
18C0
18C0
1D80
0D80
0F80
0700
0700
0700
0600
9C00
FC00
7000
ENDCHAR
STARTCHAR 01B5
ENCODING 437
SWIDTH 560 0
DWIDTH 14 0
BBX 12 17 1 0
BITMAP
FFF0
FFF0
0060
00E0
01C0
0380
0700
7FF0
7FF0
1C00
1800
3800
7000
7000
E000
FFF0
FFF0
ENDCHAR
STARTCHAR 01B6
ENCODING 438
SWIDTH 440 0
DWIDTH 11 0
BBX 10 13 1 0
BITMAP
FFC0
FFC0
0380
0700
0600
7F80
7F80
3800
3000
7000
E000
FFC0
FFC0
ENDCHAR
STARTCHAR 01B7
ENCODING 439
SWIDTH 560 0
DWIDTH 14 0
BBX 12 17 1 0
BITMAP
FFF0
FFE0
00E0
01C0
0380
0700
0E00
0F00
0FC0
00E0
0070
0070
0070
0070
80E0
FFE0
FF80
ENDCHAR
STARTCHAR 01B8
ENCODING 440
SWIDTH 560 0
DWIDTH 14 0
BBX 12 17 1 0
BITMAP
7FF0
7FF0
3000
3800
1C00
0E00
0700
0F80
3F80
7000
E000
E000
E000
E000
7010
7FF0
1FF0
ENDCHAR
STARTCHAR 01B9
ENCODING 441
SWIDTH 440 0
DWIDTH 11 0
BBX 11 18 1 -5
BITMAP
7FC0
7FC0
7000
3800
1800
0C00
0E00
0F00
3F00
7000
E000
C000
C000
E000
E000
7DE0
3FE0
0380
ENDCHAR
STARTCHAR 01BA
ENCODING 442
SWIDTH 440 0
DWIDTH 11 0
BBX 11 18 0 -5
BITMAP
7FC0
7FC0
0180
0300
0600
0C00
1F00
0FC0
00C0
00E0
00E0
01C0
07C0
3F00
F800
E000
C000
4000
ENDCHAR
STARTCHAR 01BB
ENCODING 443
SWIDTH 520 0
DWIDTH 13 0
BBX 11 18 1 0
BITMAP
1E00
7F80
F3C0
41C0
00C0
00C0
00C0
01C0
0380
7FE0
7FE0
1C00
3800
3000
7000
6000
FFE0
FFE0
ENDCHAR
STARTCHAR 01BC
ENCODING 444
SWIDTH 520 0
DWIDTH 13 0
BBX 12 17 1 0
BITMAP
FFE0
FFE0
3000
3000
3000
3000
3C00
3F80
0FC0
00E0
0060
0070
0070
0060
00E0
FFC0
FF80
ENDCHAR
STARTCHAR 01BD
ENCODING 445
SWIDTH 480 0
DWIDTH 12 0
BBX 10 13 1 0
BITMAP
FFC0
FFC0
3000
3000
7000
7F00
7F80
01C0
00C0
00C0
01C0
FFC0
FF00
ENDCHAR
STARTCHAR 01BE
ENCODING 446
SWIDTH 440 0
DWIDTH 11 0
BBX 10 17 1 0
BITMAP
6000
6000
6000
6000
7F00
7F00
6000
6000
7000
3C00
1F00
0780
0180
01C0
01C0
FF80
FF00
ENDCHAR
STARTCHAR 01BF
ENCODING 447
SWIDTH 560 0
DWIDTH 14 0
BBX 11 18 2 -5
BITMAP
7F00
FFC0
C1C0
C0E0
C0E0
C060
C0E0
C0E0
C0E0
C1C0
C380
CF00
FE00
F800
C000
C000
C000
C000
ENDCHAR
STARTCHAR 01C0
ENCODING 448
SWIDTH 240 0
DWIDTH 6 0
BBX 3 25 2 -5
BITMAP
E0
E0
E0
E0
E0
E0
E0
E0
E0
E0
E0
E0
E0
E0
E0
E0
E0
E0
E0
E0
E0
E0
E0
E0
E0
ENDCHAR
STARTCHAR 01C1
ENCODING 449
SWIDTH 480 0
DWIDTH 12 0
BBX 8 25 2 -5
BITMAP
E7
E7
E7
E7
E7
E7
E7
E7
E7
E7
E7
E7
E7
E7
E7
E7
E7
E7
E7
E7
E7
E7
E7
E7
E7
ENDCHAR
STARTCHAR 01C2
ENCODING 450
SWIDTH 560 0
DWIDTH 14 0
BBX 12 25 1 -5
BITMAP
0600
0600
0600
0600
0600
0600
0600
0600
0600
FFF0
FFF0
0600
0600
0600
FFF0
FFF0
0600
0600
0600
0600
0600
0600
0600
0600
0600
ENDCHAR
STARTCHAR 01C3
ENCODING 451
SWIDTH 240 0
DWIDTH 6 0
BBX 3 17 2 0
BITMAP
E0
E0
E0
E0
E0
E0
E0
E0
E0
C0
40
40
00
00
E0
E0
E0
ENDCHAR
STARTCHAR 01C4
ENCODING 452
SWIDTH 1280 0
DWIDTH 32 0
BBX 29 23 2 0
BITMAP
00000C40
00000EC0
00000780
00000300
00000000
00000000
FFC07FF8
FFE07FF8
E0780070
E0380060
E01C00E0
E01C01C0
E00C0380
E00C0300
E00C0700
E00C0E00
E00C0C00
E01C1C00
E01C3800
E0383000
E0F07000
FFE07FF8
FF807FF8
ENDCHAR
STARTCHAR 01C5
ENCODING 453
SWIDTH 1160 0
DWIDTH 29 0
BBX 27 19 2 0
BITMAP
00001180
00001B00
FFC00E00
FFE00600
E0780000
E0380000
E01C7FE0
E01C7FE0
E00C01C0
E00C0380
E00C0300
E00C0600
E00C0E00
E01C1C00
E01C1800
E0383800
E0F07000
FFE07FE0
FF807FE0
ENDCHAR
STARTCHAR 01C6
ENCODING 454
SWIDTH 1040 0
DWIDTH 26 0
BBX 25 19 1 0
BITMAP
0070C600
00706C00
00703800
00701000
00700000
00700000
1FF1FF00
3FF1FF00
70700700
60700E00
E0701C00
E0701800
E0703800
E0707000
E0706000
6070C000
7071C000
3FF1FF80
1FF1FF80
ENDCHAR
STARTCHAR 01C7
ENCODING 455
SWIDTH 1000 0
DWIDTH 25 0
BBX 22 17 2 0
BITMAP
E0001C
E0001C
E0001C
E0001C
E0001C
E0001C
E0001C
E0001C
E0001C
E0001C
E0001C
E0001C
E00018
E00018
E00838
FFEFF0
FFEFE0
ENDCHAR
STARTCHAR 01C8
ENCODING 456
SWIDTH 760 0
DWIDTH 19 0
BBX 16 23 2 -5
BITMAP
0007
E007
E002
E000
E000
E006
E006
E006
E006
E006
E006
E006
E006
E006
E006
E006
FFE6
FFE6
0006
0006
000E
003C
0038
ENDCHAR
STARTCHAR 01C9
ENCODING 457
SWIDTH 520 0
DWIDTH 13 0
BBX 10 24 2 -5
BITMAP
C000
C180
C1C0
C080
C000
C000
C180
C180
C180
C180
C180
C180
C180
C180
C180
C180
E180
F180
7180
0180
0180
1380
1F00
1C00
ENDCHAR
STARTCHAR 01CA
ENCODING 458
SWIDTH 1200 0
DWIDTH 30 0
BBX 27 17 2 0
BITMAP
E00C00E0
F00C00E0
F80C00E0
F80C00E0
FC0C00E0
EE0C00E0
E70C00E0
E30C00E0
E38C00E0
E1CC00E0
E0CC00E0
E06C00E0
E07C00E0
E03C00E0
E03C41C0
E01C7FC0
E00C7F80
ENDCHAR
STARTCHAR 01CB
ENCODING 459
SWIDTH 960 0
DWIDTH 24 0
BBX 21 23 2 -5
BITMAP
000038
E00C38
F00C10
F80C00
F80C00
FC0C38
EE0C38
E70C38
E30C38
E38C38
E1CC38
E0CC38
E06C38
E07C38
E03C38
E03C38
E01C38
E00C38
000038
000030
000070
0001E0
000180
ENDCHAR
STARTCHAR 01CC
ENCODING 460
SWIDTH 800 0
DWIDTH 20 0
BBX 17 23 2 -5
BITMAP
000380
000380
000100
000000
000000
FF0380
FF8380
C1C380
C0C380
C0C380
C0C380
C0E380
C0E380
C0E380
C0E380
C0E380
C0E380
C0E380
000380
000380
000700
001F00
001800
ENDCHAR
STARTCHAR 01CD
ENCODING 461
SWIDTH 640 0
DWIDTH 16 0
BBX 16 23 0 0
BITMAP
0620
0760
03C0
0180
0000
0000
01C0
03C0
03E0
0760
0670
0670
0E30
0C38
1C18
181C
181C
3FFC
3FFE
700E
7006
6007
E003
ENDCHAR
STARTCHAR 01CE
ENCODING 462
SWIDTH 520 0
DWIDTH 13 0
BBX 10 19 1 0
BITMAP
3180
1B00
0E00
0400
0000
0000
7F00
3F80
01C0
00C0
00C0
1FC0
7FC0
E0C0
E0C0
C0C0
E0C0
7FC0
3FC0
ENDCHAR
STARTCHAR 01CF
ENCODING 463
SWIDTH 240 0
DWIDTH 6 0
BBX 6 23 0 0
BITMAP
C4
6C
38
10
00
00
38
38
38
38
38
38
38
38
38
38
38
38
38
38
38
38
38
ENDCHAR
STARTCHAR 01D0
ENCODING 464
SWIDTH 240 0
DWIDTH 6 0
BBX 6 19 0 0
BITMAP
C4
EC
78
30
00
00
30
30
30
30
30
30
30
30
30
30
30
30
30
ENDCHAR
STARTCHAR 01D1
ENCODING 465
SWIDTH 760 0
DWIDTH 19 0
BBX 17 23 1 0
BITMAP
023000
037000
01E000
00C000
000000
01E000
0FF800
1F7C00
380E00
300700
700300
600380
600380
E00380
E00380
E00380
600380
600380
700700
380700
3C0E00
1FFC00
07F800
ENDCHAR
STARTCHAR 01D2
ENCODING 466
SWIDTH 560 0
DWIDTH 14 0
BBX 12 19 1 0
BITMAP
18C0
0D80
0700
0200
0000
0000
1F80
3FE0
7060
6070
E030
E030
E030
E030
E030
6070
7060
3FE0
1FC0
ENDCHAR
STARTCHAR 01D3
ENCODING 467
SWIDTH 680 0
DWIDTH 17 0
BBX 13 23 2 0
BITMAP
08C0
0D80
0700
0300
0000
0000
C018
C018
C018
C018
C018
C018
C018
C018
C018
C018
C018
E018
E038
E038
7070
3FF0
1FC0
ENDCHAR
STARTCHAR 01D4
ENCODING 468
SWIDTH 560 0
DWIDTH 14 0
BBX 10 19 2 0
BITMAP
3100
3B00
1E00
0C00
0000
0000
C0C0
C0C0
C0C0
C0C0
C0C0
C0C0
C0C0
C0C0
C0C0
E0C0
E0C0
7FC0
3FC0
ENDCHAR
STARTCHAR 01D5
ENCODING 469
SWIDTH 680 0
DWIDTH 17 0
BBX 13 24 2 0
BITMAP
1FC0
1FC0
0000
18C0
18C0
0000
0000
C018
C018
C018
C018
C018
C018
C018
C018
C018
C018
C018
E018
E038
E038
7070
3FF0
1FC0
ENDCHAR
STARTCHAR 01D6
ENCODING 470
SWIDTH 560 0
DWIDTH 14 0
BBX 10 20 2 0
BITMAP
3F00
3F00
0000
7380
7380
0000
0000
C0C0
C0C0
C0C0
C0C0
C0C0
C0C0
C0C0
C0C0
C0C0
E0C0
E0C0
7FC0
3FC0
ENDCHAR
STARTCHAR 01D7
ENCODING 471
SWIDTH 680 0
DWIDTH 17 0
BBX 13 24 2 0
BITMAP
0100
0180
0300
3660
3060
0000
0000
C018
C018
C018
C018
C018
C018
C018
C018
C018
C018
C018
E018
E038
E038
7070
3FF0
1FC0
ENDCHAR
STARTCHAR 01D8
ENCODING 472
SWIDTH 560 0
DWIDTH 14 0
BBX 10 21 2 0
BITMAP
0200
0600
0E00
0C00
7380
7380
0000
0000
C0C0
C0C0
C0C0
C0C0
C0C0
C0C0
C0C0
C0C0
C0C0
E0C0
E0C0
7FC0
3FC0
ENDCHAR
STARTCHAR 01D9
ENCODING 473
SWIDTH 680 0
DWIDTH 17 0
BBX 13 24 2 0
BITMAP
0880
0F80
0700
3860
3060
0000
0000
C018
C018
C018
C018
C018
C018
C018
C018
C018
C018
C018
E018
E038
E038
7070
3FF0
1FC0
ENDCHAR
STARTCHAR 01DA
ENCODING 474
SWIDTH 560 0
DWIDTH 14 0
BBX 10 21 2 0
BITMAP
0100
3F00
1E00
0000
7380
7180
0000
0000
C0C0
C0C0
C0C0
C0C0
C0C0
C0C0
C0C0
C0C0
C0C0
E0C0
E0C0
7FC0
3FC0
ENDCHAR
STARTCHAR 01DB
ENCODING 475
SWIDTH 680 0
DWIDTH 17 0
BBX 13 24 2 0
BITMAP
0400
0E00
0600
3360
3060
0000
0000
C018
C018
C018
C018
C018
C018
C018
C018
C018
C018
C018
E018
E038
E038
7070
3FF0
1FC0
ENDCHAR
STARTCHAR 01DC
ENCODING 476
SWIDTH 560 0
DWIDTH 14 0
BBX 10 21 2 0
BITMAP
1000
1800
0C00
0400
7380
7380
0000
0000
C0C0
C0C0
C0C0
C0C0
C0C0
C0C0
C0C0
C0C0
C0C0
E0C0
E0C0
7FC0
3FC0
ENDCHAR
STARTCHAR 01DD
ENCODING 477
SWIDTH 520 0
DWIDTH 13 0
BBX 12 13 1 0
BITMAP
7F80
7FC0
00E0
0060
0060
0070
FFF0
FFF0
E060
6060
70E0
3FC0
1F80
ENDCHAR
STARTCHAR 01DE
ENCODING 478
SWIDTH 640 0
DWIDTH 16 0
BBX 16 24 0 0
BITMAP
07E0
07E0
0000
0E70
0E30
0000
0000
01C0
03C0
03E0
0760
0670
0670
0E30
0C38
1C18
181C
181C
3FFC
3FFE
700E
7006
6007
E003
ENDCHAR
STARTCHAR 01DF
ENCODING 479
SWIDTH 520 0
DWIDTH 13 0
BBX 10 20 1 0
BITMAP
3F80
3F80
0000
3180
3180
0000
0000
7F00
3F80
01C0
00C0
00C0
1FC0
7FC0
E0C0
E0C0
C0C0
E0C0
7FC0
3FC0
ENDCHAR
STARTCHAR 01E0
ENCODING 480
SWIDTH 640 0
DWIDTH 16 0
BBX 16 24 0 0
BITMAP
07E0
07E0
0000
01C0
01C0
0000
0000
01C0
03C0
03E0
0760
0670
0670
0E30
0C38
1C18
181C
181C
3FFC
3FFE
700E
7006
6007
E003
ENDCHAR
STARTCHAR 01E1
ENCODING 481
SWIDTH 520 0
DWIDTH 13 0
BBX 10 20 1 0
BITMAP
3F80
3F80
0000
0E00
0E00
0000
0000
7F00
3F80
01C0
00C0
00C0
1FC0
7FC0
E0C0
E0C0
C0C0
E0C0
7FC0
3FC0
ENDCHAR
STARTCHAR 01E2
ENCODING 482
SWIDTH 920 0
DWIDTH 23 0
BBX 22 22 0 0
BITMAP
001FC0
001FC0
000000
000000
000000
003FFC
007FFC
006C00
00EC00
01CC00
018C00
038C00
030FF8
060FF8
0E0C00
0C0C00
1FFC00
1FFC00
380C00
700C00
600FFC
E00FFC
ENDCHAR
STARTCHAR 01E3
ENCODING 483
SWIDTH 840 0
DWIDTH 21 0
BBX 19 18 1 0
BITMAP
03F800
03F800
000000
000000
000000
7F1F80
3FBFC0
01F0C0
00E0E0
00C060
1FFFE0
7FFFE0
E0C000
E0C000
C0E000
E07000
7FFFC0
3F9FC0
ENDCHAR
STARTCHAR 01E4
ENCODING 484
SWIDTH 680 0
DWIDTH 17 0
BBX 16 18 1 0
BITMAP
01E0
0FFC
1F3C
3800
3000
7000
6000
6000
E000
E00C
E00C
607F
607F
700C
380C
3C0C
1FFC
07FC
ENDCHAR
STARTCHAR 01E5
ENCODING 485
SWIDTH 560 0
DWIDTH 14 0
BBX 13 18 1 -5
BITMAP
1FE0
3FE0
7060
6060
E060
E3F8
E3F8
E060
6060
7060
3FE0
3FE0
0060
0060
00E0
73E0
7FC0
0C00
ENDCHAR
STARTCHAR 01E6
ENCODING 486
SWIDTH 640 0
DWIDTH 16 0
BBX 14 23 1 0
BITMAP
0620
0360
01C0
0080
0000
01E0
0FFC
1F3C
3800
3000
7000
6000
6000
E000
E00C
E00C
600C
600C
700C
380C
3C0C
1FFC
07FC
ENDCHAR
STARTCHAR 01E7
ENCODING 487
SWIDTH 560 0
DWIDTH 14 0
BBX 11 24 1 -5
BITMAP
1880
1D80
0F00
0600
0000
0000
1FE0
3FE0
7060
6060
E060
E060
E060
E060
6060
7060
3FE0
3FE0
0060
0060
0060
61E0
7FC0
1F00
ENDCHAR
STARTCHAR 01E8
ENCODING 488
SWIDTH 600 0
DWIDTH 15 0
BBX 13 23 2 0
BITMAP
1080
1B80
0F00
0600
0000
0000
E070
E0E0
E1C0
E380
E700
EE00
FC00
F800
FC00
EE00
E700
E380
E1C0
E0E0
E070
E038
E038
ENDCHAR
STARTCHAR 01E9
ENCODING 489
SWIDTH 520 0
DWIDTH 13 0
BBX 10 24 2 0
BITMAP
8800
F800
7000
0000
0000
C000
C000
C000
C000
C000
C000
C1C0
C380
C700
CE00
DC00
F800
F800
DC00
CE00
C700
C380
C1C0
C0C0
ENDCHAR
STARTCHAR 01EA
ENCODING 490
SWIDTH 760 0
DWIDTH 19 0
BBX 17 23 1 -5
BITMAP
01E000
0FF800
1F7C00
380E00
300700
700300
600380
600380
E00380
E00380
E00380
600380
600380
700700
380700
3C0E00
1FFC00
07F800
006000
00C000
00C000
00F000
007000
ENDCHAR
STARTCHAR 01EB
ENCODING 491
SWIDTH 560 0
DWIDTH 14 0
BBX 12 18 1 -5
BITMAP
1F80
3FE0
7060
6070
E030
E030
E030
E030
E030
6070
7060
3FE0
1F80
0300
0600
0E00
0780
0380
ENDCHAR
STARTCHAR 01EC
ENCODING 492
SWIDTH 760 0
DWIDTH 19 0
BBX 17 27 1 -5
BITMAP
07F000
07F000
000000
000000
01E000
0FF800
1F7C00
380E00
300700
700300
600380
600380
E00380
E00380
E00380
600380
600380
700700
380700
3C0E00
1FFC00
07F800
006000
00C000
00C000
00F000
007000
ENDCHAR
STARTCHAR 01ED
ENCODING 493
SWIDTH 560 0
DWIDTH 14 0
BBX 12 23 1 -5
BITMAP
1FC0
1FC0
0000
0000
0000
1F80
3FE0
7060
6070
E030
E030
E030
E030
E030
6070
7060
3FE0
1F80
0300
0600
0E00
0780
0380
ENDCHAR
STARTCHAR 01EE
ENCODING 494
SWIDTH 560 0
DWIDTH 14 0
BBX 12 23 1 0
BITMAP
1080
1B80
0F00
0600
0000
0000
FFF0
FFE0
00E0
01C0
0380
0700
0E00
0F00
0FC0
00E0
0070
0070
0070
0070
80E0
FFE0
FF80
ENDCHAR
STARTCHAR 01EF
ENCODING 495
SWIDTH 440 0
DWIDTH 11 0
BBX 11 24 0 -5
BITMAP
3100
3F00
1E00
0C00
0000
0000
FFC0
FFC0
0180
0380
0700
0600
0C00
1E00
1F80
03C0
00E0
00E0
00E0
00E0
01C0
E7C0
FF80
1800
ENDCHAR
STARTCHAR 01F0
ENCODING 496
SWIDTH 240 0
DWIDTH 6 0
BBX 8 24 -2 -5
BITMAP
31
3B
1E
0C
00
00
0C
0C
0C
0C
0C
0C
0C
0C
0C
0C
0C
0C
0C
0C
0C
1C
F8
60
ENDCHAR
STARTCHAR 01F1
ENCODING 497
SWIDTH 1280 0
DWIDTH 32 0
BBX 29 17 2 1
BITMAP
FFC07FF8
FFE07FF8
E0780070
E0380060
E01C00E0
E01C01C0
E00C0380
E00C0300
E00C0700
E00C0E00
E00C0C00
E01C1C00
E01C3800
E0383000
E0F07000
FFE07FF8
FF807FF8
ENDCHAR
STARTCHAR 01F2
ENCODING 498
SWIDTH 1160 0
DWIDTH 29 0
BBX 27 17 2 1
BITMAP
FFC00000
FFE00000
E0780000
E0380000
E01C7FE0
E01C7FE0
E00C01C0
E00C0380
E00C0300
E00C0600
E00C0E00
E01C1C00
E01C1800
E0383800
E0F07000
FFE07FE0
FF807FE0
ENDCHAR
STARTCHAR 01F3
ENCODING 499
SWIDTH 1040 0
DWIDTH 26 0
BBX 25 19 1 0
BITMAP
00700000
00700000
00700000
00700000
00700000
00700000
1FF1FF00
3FF1FF00
70700700
60700E00
E0701C00
E0701800
E0703800
E0707000
E0706000
6070C000
7071C000
3FF1FF80
1FF1FF80
ENDCHAR
STARTCHAR 01F4
ENCODING 500
SWIDTH 640 0
DWIDTH 16 0
BBX 14 23 1 0
BITMAP
0060
0060
00C0
0180
0000
01E0
0FFC
1F3C
3800
3000
7000
6000
6000
E000
E00C
E00C
600C
600C
700C
380C
3C0C
1FFC
07FC
ENDCHAR
STARTCHAR 01F5
ENCODING 501
SWIDTH 560 0
DWIDTH 14 0
BBX 11 24 1 -5
BITMAP
0180
0380
0700
0600
0000
0000
1FE0
3FE0
7060
6060
E060
E060
E060
E060
6060
7060
3FE0
3FE0
0060
0060
0060
61E0
7FC0
1F00
ENDCHAR
STARTCHAR 01F6
ENCODING 502
SWIDTH 1040 0
DWIDTH 26 0
BBX 23 17 2 0
BITMAP
E01800
E01800
E01800
E01800
E0180E
E0180E
E0180E
FFF80E
FFF80E
E0180E
E0180E
E0180E
E01C0E
E01C0C
E00E1C
E00FF8
E007F0
ENDCHAR
STARTCHAR 01F7
ENCODING 503
SWIDTH 640 0
DWIDTH 16 0
BBX 13 22 2 -4
BITMAP
7FC0
FFE0
E070
E038
E038
E038
E038
E038
E038
E070
E070
E0E0
E1C0
E780
FF00
FC00
F000
E000
E000
E000
E000
E000
ENDCHAR
STARTCHAR 01F8
ENCODING 504
SWIDTH 720 0
DWIDTH 18 0
BBX 14 23 2 0
BITMAP
0400
0E00
0700
0380
0000
0000
E00C
F00C
F80C
F80C
FC0C
EE0C
E70C
E30C
E38C
E1CC
E0CC
E06C
E07C
E03C
E03C
E01C
E00C
ENDCHAR
STARTCHAR 01F9
ENCODING 505
SWIDTH 560 0
DWIDTH 14 0
BBX 11 19 2 0
BITMAP
1800
1800
0C00
0600
0000
0000
FF00
FF80
C1C0
C0C0
C0C0
C0C0
C0E0
C0E0
C0E0
C0E0
C0E0
C0E0
C0E0
ENDCHAR
STARTCHAR 01FA
ENCODING 506
SWIDTH 640 0
DWIDTH 16 0
BBX 16 24 0 0
BITMAP
0040
01C0
0380
0000
03C0
0260
0240
01C0
03C0
03E0
0760
0670
0630
0E30
0C38
1C18
181C
181C
3FFC
3FFE
700E
7006
6007
E003
ENDCHAR
STARTCHAR 01FB
ENCODING 507
SWIDTH 520 0
DWIDTH 13 0
BBX 10 22 1 1
BITMAP
0700
0E00
0000
0E00
1B00
1100
0B00
0400
0000
7F00
3F80
01C0
00C0
00C0
1FC0
7FC0
E0C0
E0C0
C0C0
E0C0
7FC0
3FC0
ENDCHAR
STARTCHAR 01FC
ENCODING 508
SWIDTH 920 0
DWIDTH 23 0
BBX 22 23 0 0
BITMAP
000180
000380
000700
000600
000000
000000
003FFC
007FFC
006C00
00EC00
01CC00
018C00
038C00
030FF8
060FF8
0E0C00
0C0C00
1FFC00
1FFC00
380C00
700C00
600FFC
E00FFC
ENDCHAR
STARTCHAR 01FD
ENCODING 509
SWIDTH 840 0
DWIDTH 21 0
BBX 19 19 1 0
BITMAP
003000
003000
006000
00C000
000000
000000
7F1F80
3FBFC0
01F0C0
00E0E0
00C060
1FFFE0
7FFFE0
E0C000
E0C000
C0E000
E07000
7FFFC0
3F9FC0
ENDCHAR
STARTCHAR 01FE
ENCODING 510
SWIDTH 760 0
DWIDTH 19 0
BBX 17 24 1 -1
BITMAP
002000
006000
00C000
018000
000000
01C300
0FFB00
1F7E00
380E00
301F00
703B00
603380
606380
E0E380
E1C380
E18380
630380
670380
7E0700
3C0700
3C0E00
3FFC00
77F800
200000
ENDCHAR
STARTCHAR 01FF
ENCODING 511
SWIDTH 560 0
DWIDTH 14 0
BBX 12 20 1 -1
BITMAP
0180
0380
0700
0600
0000
0010
1FB0
3FE0
70E0
60F0
E1B0
E330
E630
E630
EC30
7870
7060
7FE0
7FC0
4000
ENDCHAR
STARTCHAR 0200
ENCODING 512
SWIDTH 640 0
DWIDTH 16 0
BBX 16 23 0 0
BITMAP
0880
1CC0
0E60
0660
0000
0000
01C0
03C0
03E0
0760
0670
0670
0E30
0C38
1C18
181C
181C
3FFC
3FFE
700E
7006
6007
E003
ENDCHAR
STARTCHAR 0201
ENCODING 513
SWIDTH 520 0
DWIDTH 13 0
BBX 10 19 1 0
BITMAP
4600
6600
3300
1980
0000
0000
7F00
3F80
01C0
00C0
00C0
1FC0
7FC0
E0C0
E0C0
C0C0
E0C0
7FC0
3FC0
ENDCHAR
STARTCHAR 0202
ENCODING 514
SWIDTH 640 0
DWIDTH 16 0
BBX 16 23 0 0
BITMAP
0180
03E0
0660
0420
0000
0000
01C0
03C0
03E0
0760
0670
0670
0E30
0C38
1C18
181C
181C
3FFC
3FFE
700E
7006
6007
E003
ENDCHAR
STARTCHAR 0203
ENCODING 515
SWIDTH 520 0
DWIDTH 13 0
BBX 10 19 1 0
BITMAP
0E00
1F00
3180
3180
0000
0000
7F00
3F80
01C0
00C0
00C0
1FC0
7FC0
E0C0
E0C0
C0C0
E0C0
7FC0
3FC0
ENDCHAR
STARTCHAR 0204
ENCODING 516
SWIDTH 560 0
DWIDTH 14 0
BBX 11 23 2 0
BITMAP
6600
6700
3300
1980
0000
0000
FFE0
FFE0
E000
E000
E000
E000
E000
FFC0
FFC0
E000
E000
E000
E000
E000
E000
FFE0
FFE0
ENDCHAR
STARTCHAR 0205
ENCODING 517
SWIDTH 520 0
DWIDTH 13 0
BBX 12 19 1 0
BITMAP
6200
7700
3380
1980
0000
0000
1F80
3FC0
70E0
6060
E060
FFF0
FFF0
E000
E000
6000
7000
3FE0
1FE0
ENDCHAR
STARTCHAR 0206
ENCODING 518
SWIDTH 560 0
DWIDTH 14 0
BBX 11 23 2 0
BITMAP
0C00
1F00
3180
3180
0000
0000
FFE0
FFE0
E000
E000
E000
E000
E000
FFC0
FFC0
E000
E000
E000
E000
E000
E000
FFE0
FFE0
ENDCHAR
STARTCHAR 0207
ENCODING 519
SWIDTH 520 0
DWIDTH 13 0
BBX 12 19 1 0
BITMAP
0600
1F80
1980
1080
0000
0000
1F80
3FC0
70E0
6060
E060
FFF0
FFF0
E000
E000
6000
7000
3FE0
1FE0
ENDCHAR
STARTCHAR 0208
ENCODING 520
SWIDTH 240 0
DWIDTH 6 0
BBX 8 23 -2 0
BITMAP
44
E6
73
33
00
00
0E
0E
0E
0E
0E
0E
0E
0E
0E
0E
0E
0E
0E
0E
0E
0E
0E
ENDCHAR
STARTCHAR 0209
ENCODING 521
SWIDTH 240 0
DWIDTH 6 0
BBX 8 19 -2 0
BITMAP
C4
E6
67
33
00
00
0C
0C
0C
0C
0C
0C
0C
0C
0C
0C
0C
0C
0C
ENDCHAR
STARTCHAR 020A
ENCODING 522
SWIDTH 240 0
DWIDTH 6 0
BBX 7 23 0 0
BITMAP
30
7C
C6
C6
00
00
38
38
38
38
38
38
38
38
38
38
38
38
38
38
38
38
38
ENDCHAR
STARTCHAR 020B
ENCODING 523
SWIDTH 240 0
DWIDTH 6 0
BBX 7 19 0 0
BITMAP
38
7C
C4
86
00
00
30
30
30
30
30
30
30
30
30
30
30
30
30
ENDCHAR
STARTCHAR 020C
ENCODING 524
SWIDTH 760 0
DWIDTH 19 0
BBX 17 23 1 0
BITMAP
08C000
0CC000
066000
033000
020000
01E000
0FF800
1F7C00
380E00
300700
700300
600380
600380
E00380
E00380
E00380
600380
600380
700700
380700
3C0E00
1FFC00
07F800
ENDCHAR
STARTCHAR 020D
ENCODING 525
SWIDTH 560 0
DWIDTH 14 0
BBX 12 19 1 0
BITMAP
2200
3300
3980
1980
0000
0000
1F80
3FE0
7060
6070
E030
E030
E030
E030
E030
6070
7060
3FE0
1FC0
ENDCHAR
STARTCHAR 020E
ENCODING 526
SWIDTH 760 0
DWIDTH 19 0
BBX 17 23 1 0
BITMAP
008000
03E000
033000
063000
000000
01E000
0FF800
1F7C00
380E00
300700
700300
600380
600380
E00380
E00380
E00380
600380
600380
700700
380700
3C0E00
1FFC00
07F800
ENDCHAR
STARTCHAR 020F
ENCODING 527
SWIDTH 560 0
DWIDTH 14 0
BBX 12 19 1 0
BITMAP
0700
0F80
18C0
18C0
0000
0000
1F80
3FE0
7060
6070
E030
E030
E030
E030
E030
6070
7060
3FE0
1FC0
ENDCHAR
STARTCHAR 0210
ENCODING 528
SWIDTH 600 0
DWIDTH 15 0
BBX 13 23 2 0
BITMAP
4400
E600
7700
3300
0000
0000
FFC0
FFE0
E070
E070
E030
E030
E070
E0F0
FFE0
FF80
E380
E1C0
E0E0
E060
E070
E038
E038
ENDCHAR
STARTCHAR 0211
ENCODING 529
SWIDTH 360 0
DWIDTH 9 0
BBX 8 19 1 0
BITMAP
CC
CC
66
33
00
00
7F
7F
60
60
60
60
60
60
60
60
60
60
60
ENDCHAR
STARTCHAR 0212
ENCODING 530
SWIDTH 600 0
DWIDTH 15 0
BBX 13 23 2 0
BITMAP
0400
1F00
3100
3180
0000
0000
FFC0
FFE0
E070
E070
E030
E030
E070
E0F0
FFE0
FF80
E380
E1C0
E0E0
E060
E070
E038
E038
ENDCHAR
STARTCHAR 0213
ENCODING 531
SWIDTH 360 0
DWIDTH 9 0
BBX 7 19 2 0
BITMAP
38
7C
46
C2
00
00
FE
FE
C0
C0
C0
C0
C0
C0
C0
C0
C0
C0
C0
ENDCHAR
STARTCHAR 0214
ENCODING 532
SWIDTH 680 0
DWIDTH 17 0
BBX 13 23 2 0
BITMAP
2200
3300
1980
18C0
0880
0000
C018
C018
C018
C018
C018
C018
C018
C018
C018
C018
C018
E018
E038
E038
7070
3FF0
1FC0
ENDCHAR
STARTCHAR 0215
ENCODING 533
SWIDTH 560 0
DWIDTH 14 0
BBX 10 19 2 0
BITMAP
CC00
EE00
6600
3300
0000
0000
C0C0
C0C0
C0C0
C0C0
C0C0
C0C0
C0C0
C0C0
C0C0
E0C0
E0C0
7FC0
3FC0
ENDCHAR
STARTCHAR 0216
ENCODING 534
SWIDTH 680 0
DWIDTH 17 0
BBX 13 23 2 0
BITMAP
0200
0F80
18C0
18C0
0000
0000
C018
C018
C018
C018
C018
C018
C018
C018
C018
C018
C018
E018
E038
E038
7070
3FF0
1FC0
ENDCHAR
STARTCHAR 0217
ENCODING 535
SWIDTH 560 0
DWIDTH 14 0
BBX 10 19 2 0
BITMAP
0C00
3F00
3300
2100
0000
0000
C0C0
C0C0
C0C0
C0C0
C0C0
C0C0
C0C0
C0C0
C0C0
E0C0
E0C0
7FC0
3FC0
ENDCHAR
STARTCHAR 0218
ENCODING 536
SWIDTH 520 0
DWIDTH 13 0
BBX 12 23 1 -5
BITMAP
0F00
3FE0
79C0
E000
E000
E000
E000
7800
3E00
1F80
03C0
00E0
0060
0070
0060
80E0
FFE0
7F80
0000
0600
0E00
1C00
1800
ENDCHAR
STARTCHAR 0219
ENCODING 537
SWIDTH 440 0
DWIDTH 11 0
BBX 9 18 1 -5
BITMAP
3F00
7F00
E000
E000
E000
7800
3E00
0F80
0380
0180
0180
FF80
FF00
0000
1C00
1800
3800
3000
ENDCHAR
STARTCHAR 021A
ENCODING 538
SWIDTH 560 0
DWIDTH 14 0
BBX 14 22 0 -5
BITMAP
FFFC
FFFC
0300
0300
0300
0300
0300
0300
0300
0300
0300
0300
0300
0300
0300
0300
0300
0000
0300
0300
0F00
0E00
ENDCHAR
STARTCHAR 021B
ENCODING 539
SWIDTH 400 0
DWIDTH 10 0
BBX 8 22 2 -5
BITMAP
C0
C0
C0
C0
FE
FE
C0
C0
C0
C0
C0
C0
C0
C0
E0
7E
7F
00
18
18
78
60
ENDCHAR
STARTCHAR 021C
ENCODING 540
SWIDTH 520 0
DWIDTH 13 0
BBX 12 23 0 -5
BITMAP
1E00
FF80
73C0
00E0
0060
0060
0060
00E0
01C0
0F80
1F00
1FC0
00E0
0070
0070
0070
0070
0070
00E0
01E0
7FC0
7F00
6000
ENDCHAR
STARTCHAR 021D
ENCODING 541
SWIDTH 400 0
DWIDTH 10 0
BBX 10 18 0 -5
BITMAP
FE00
7F80
0380
0180
0180
0180
0700
1E00
1F00
0380
01C0
01C0
01C0
01C0
0380
3F00
FE00
C000
ENDCHAR
STARTCHAR 021E
ENCODING 542
SWIDTH 680 0
DWIDTH 17 0
BBX 13 23 2 0
BITMAP
08C0
0DC0
0780
0300
0000
0000
E018
E018
E018
E018
E018
E018
E018
FFF8
FFF8
E018
E018
E018
E018
E018
E018
E018
E018
ENDCHAR
STARTCHAR 021F
ENCODING 543
SWIDTH 560 0
DWIDTH 14 0
BBX 11 24 2 0
BITMAP
8800
F800
7000
0000
0000
C000
C000
C000
C000
C000
C000
FF00
FF80
C1C0
C0C0
C0C0
C0C0
C0E0
C0E0
C0E0
C0E0
C0E0
C0E0
C0E0
ENDCHAR
STARTCHAR 0220
ENCODING 544
SWIDTH 640 0
DWIDTH 16 0
BBX 13 23 2 -5
BITMAP
1F00
FFE0
F9F0
E070
E038
E038
E038
E038
E038
E038
E038
E038
E038
E038
E038
E038
E038
E038
0038
0038
0038
0038
0038
ENDCHAR
STARTCHAR 0221
ENCODING 545
SWIDTH 720 0
DWIDTH 18 0
BBX 17 24 1 -5
BITMAP
007000
007000
007000
007000
007000
007000
1FF000
3FF000
707000
607000
E07000
E07000
E07000
E07000
E07000
607000
707400
3FFF00
1FF980
007180
007180
00F980
019F00
000C00
ENDCHAR
STARTCHAR 0222
ENCODING 546
SWIDTH 640 0
DWIDTH 16 0
BBX 15 17 1 0
BITMAP
3018
7018
7018
7018
7018
3038
3CF8
0FE0
3FF8
701C
E00C
E00E
E00E
E00C
703C
3FF8
1FE0
ENDCHAR
STARTCHAR 0223
ENCODING 547
SWIDTH 560 0
DWIDTH 14 0
BBX 12 19 1 0
BITMAP
7060
7060
6070
6070
7070
7060
38E0
1FC0
3FE0
70E0
6070
E030
E030
E030
E030
6030
7070
3FE0
1FC0
ENDCHAR
STARTCHAR 0224
ENCODING 548
SWIDTH 560 0
DWIDTH 14 0
BBX 12 22 1 -5
BITMAP
FFF0
FFF0
00E0
00E0
01C0
0380
0700
0700
0E00
1C00
1800
3800
7000
7000
E000
FFF0
FFF0
0030
0030
0070
01F0
01C0
ENDCHAR
STARTCHAR 0225
ENCODING 549
SWIDTH 440 0
DWIDTH 11 0
BBX 10 18 1 -5
BITMAP
FFC0
FFC0
0380
0700
0600
0E00
1C00
3800
3000
7000
E000
FFC0
FFC0
00C0
00C0
01C0
0780
0600
ENDCHAR
STARTCHAR 0226
ENCODING 550
SWIDTH 640 0
DWIDTH 16 0
BBX 16 22 0 0
BITMAP
01C0
01C0
0080
0000
0000
01C0
03C0
03E0
0760
0670
0670
0E30
0C38
1C18
181C
181C
3FFC
3FFE
700E
7006
6007
E003
ENDCHAR
STARTCHAR 0227
ENCODING 551
SWIDTH 520 0
DWIDTH 13 0
BBX 10 18 1 0
BITMAP
0E00
0E00
0400
0000
0000
7F00
3F80
01C0
00C0
00C0
1FC0
7FC0
E0C0
E0C0
C0C0
E0C0
7FC0
3FC0
ENDCHAR
STARTCHAR 0228
ENCODING 552
SWIDTH 560 0
DWIDTH 14 0
BBX 11 22 2 -5
BITMAP
FFE0
FFE0
E000
E000
E000
E000
E000
FFC0
FFC0
E000
E000
E000
E000
E000
E000
FFE0
FFE0
0600
0600
0300
1F00
1C00
ENDCHAR
STARTCHAR 0229
ENCODING 553
SWIDTH 520 0
DWIDTH 13 0
BBX 12 18 1 -5
BITMAP
1F80
3FC0
70E0
6060
E060
FFF0
FFF0
E000
E000
6000
7000
3FE0
1FE0
0600
0700
0300
0F00
0E00
ENDCHAR
STARTCHAR 022A
ENCODING 554
SWIDTH 760 0
DWIDTH 19 0
BBX 17 24 1 0
BITMAP
03F000
03F000
000000
063800
063800
000000
01E000
0FF800
1F7C00
380E00
300700
700300
600380
600380
E00380
E00380
E00380
600380
600380
700700
380700
3C0E00
1FFC00
07F800
ENDCHAR
STARTCHAR 022B
ENCODING 555
SWIDTH 560 0
DWIDTH 14 0
BBX 12 20 1 0
BITMAP
1FC0
1FC0
0000
18C0
18C0
0000
0000
1F80
3FE0
7060
6070
E030
E030
E030
E030
E030
6070
7060
3FE0
1FC0
ENDCHAR
STARTCHAR 022C
ENCODING 556
SWIDTH 760 0
DWIDTH 19 0
BBX 17 24 1 0
BITMAP
03F000
03F000
000000
03F000
06F000
000000
01E000
0FF800
1F7C00
380E00
300700
700300
600380
600380
E00380
E00380
E00380
600380
600380
700700
380700
3C0E00
1FFC00
07F800
ENDCHAR
STARTCHAR 022D
ENCODING 557
SWIDTH 560 0
DWIDTH 14 0
BBX 12 20 1 0
BITMAP
1FC0
1FC0
0000
1EC0
1B80
0000
0000
1F80
3FE0
7060
6070
E030
E030
E030
E030
E030
6070
7060
3FE0
1FC0
ENDCHAR
STARTCHAR 022E
ENCODING 558
SWIDTH 760 0
DWIDTH 19 0
BBX 17 23 1 0
BITMAP
008000
01C000
01C000
000000
000000
01E000
0FF800
1F7C00
380E00
300700
700300
600380
600380
E00380
E00380
E00380
600380
600380
700700
380700
3C0E00
1FFC00
07F800
ENDCHAR
STARTCHAR 022F
ENCODING 559
SWIDTH 560 0
DWIDTH 14 0
BBX 12 18 1 0
BITMAP
0700
0700
0200
0000
0000
1F80
3FE0
7060
6070
E030
E030
E030
E030
E030
6070
7060
3FE0
1FC0
ENDCHAR
STARTCHAR 0230
ENCODING 560
SWIDTH 760 0
DWIDTH 19 0
BBX 17 24 1 0
BITMAP
03F000
03F000
000000
01C000
01C000
000000
01E000
0FF800
1F7C00
380E00
300700
700300
600380
600380
E00380
E00380
E00380
600380
600380
700700
380700
3C0E00
1FFC00
07F800
ENDCHAR
STARTCHAR 0231
ENCODING 561
SWIDTH 560 0
DWIDTH 14 0
BBX 12 20 1 0
BITMAP
1FC0
1FC0
0000
0700
0700
0000
0000
1F80
3FE0
7060
6070
E030
E030
E030
E030
E030
6070
7060
3FE0
1FC0
ENDCHAR
STARTCHAR 0232
ENCODING 562
SWIDTH 560 0
DWIDTH 14 0
BBX 13 22 1 0
BITMAP
1FC0
1FC0
0000
0000
0000
C018
E038
6030
7070
3060
38E0
1DC0
0D80
0F80
0700
0700
0700
0700
0700
0700
0700
0700
ENDCHAR
STARTCHAR 0233
ENCODING 563
SWIDTH 480 0
DWIDTH 12 0
BBX 12 23 0 -5
BITMAP
1FC0
1FC0
0000
0000
0000
6070
6070
7060
7060
30E0
38C0
18C0
18C0
1DC0
0D80
0F80
0700
0700
0700
0600
8C00
FC00
7000
ENDCHAR
STARTCHAR 0234
ENCODING 564
SWIDTH 400 0
DWIDTH 10 0
BBX 10 24 0 -5
BITMAP
3800
3800
3800
3800
3800
3800
3800
3800
3800
3800
3800
3800
3800
3800
3800
3800
3900
3F80
3CC0
38C0
38C0
7CC0
CF80
0200
ENDCHAR
STARTCHAR 0235
ENCODING 565
SWIDTH 680 0
DWIDTH 17 0
BBX 16 18 2 -5
BITMAP
FF00
FF80
C1C0
C0C0
C0C0
C0C0
C0E0
C0E0
C0E0
C0E0
C0E0
C0FE
C0E7
00E3
01E3
01E7
037E
0018
ENDCHAR
STARTCHAR 0236
ENCODING 566
SWIDTH 400 0
DWIDTH 10 0
BBX 10 22 0 -5
BITMAP
3800
3800
3800
3800
3F80
3F80
3800
3800
3800
3800
3800
3800
3800
3800
3900
3F80
3CC0
38C0
38C0
7CC0
CF80
0200
ENDCHAR
STARTCHAR 0237
ENCODING 567
SWIDTH 240 0
DWIDTH 6 0
BBX 6 18 -2 -5
BITMAP
0C
0C
0C
0C
0C
0C
0C
0C
0C
0C
0C
0C
0C
0C
0C
1C
F8
60
ENDCHAR
STARTCHAR 0238
ENCODING 568
SWIDTH 920 0
DWIDTH 23 0
BBX 21 19 1 0
BITMAP
007000
007000
007000
007000
007000
007000
1FFFC0
3FFFE0
707070
607030
E07038
E07038
E07038
E07038
E07038
607030
707070
3FFFE0
1FFFC0
ENDCHAR
STARTCHAR 0239
ENCODING 569
SWIDTH 920 0
DWIDTH 23 0
BBX 21 18 1 -5
BITMAP
1FFFC0
3FFFE0
707070
607030
E07038
E07038
E07038
E07038
E07038
607030
707070
3FFFE0
1FFFC0
007000
007000
007000
007000
007000
ENDCHAR
STARTCHAR 023A
ENCODING 570
SWIDTH 640 0
DWIDTH 16 0
BBX 16 21 0 -3
BITMAP
000C
000C
01D8
03D8
03F0
0770
0670
0670
0E70
0C78
1CD8
18DC
198C
3FFC
3FFE
3306
7306
6307
E603
0600
0C00
ENDCHAR
STARTCHAR 023B
ENCODING 571
SWIDTH 640 0
DWIDTH 16 0
BBX 14 21 1 -3
BITMAP
0018
01F8
0FFC
1F3C
3834
3060
7060
60C0
60C0
E0C0
E180
E180
6300
7300
7700
3E00
3E00
1FFC
0FF8
1800
1800
ENDCHAR
STARTCHAR 023C
ENCODING 572
SWIDTH 440 0
DWIDTH 11 0
BBX 10 17 1 -2
BITMAP
00C0
0180
1FC0
3FC0
7100
6300
E300
E200
E600
E600
E400
6C00
7C00
3FC0
1FC0
1800
1000
ENDCHAR
STARTCHAR 023D
ENCODING 573
SWIDTH 520 0
DWIDTH 13 0
BBX 13 17 0 0
BITMAP
3800
3800
3800
3800
3800
3800
3800
FF80
FF80
3800
3800
3800
3800
3800
3800
3FF8
3FF8
ENDCHAR
STARTCHAR 023E
ENCODING 574
SWIDTH 600 0
DWIDTH 15 0
BBX 15 20 0 -1
BITMAP
0002
0006
FFFE
FFFC
0318
0338
0330
0360
03C0
03C0
0380
0300
0700
0F00
0F00
1B00
3B00
3300
6300
6000
ENDCHAR
STARTCHAR 023F
ENCODING 575
SWIDTH 440 0
DWIDTH 11 0
BBX 9 18 1 -5
BITMAP
3F00
7F00
E000
E000
E000
7800
3E00
0F80
0380
0180
0180
FF80
FE00
7000
3800
1E00
0F80
0380
ENDCHAR
STARTCHAR 0240
ENCODING 576
SWIDTH 440 0
DWIDTH 11 0
BBX 11 18 1 -5
BITMAP
FFC0
FFC0
0380
0700
0600
0E00
1C00
3800
3000
7000
E000
E000
F800
1C00
0E00
07A0
03E0
00E0
ENDCHAR
STARTCHAR 0241
ENCODING 577
SWIDTH 440 0
DWIDTH 11 0
BBX 11 18 0 0
BITMAP
1F00
FFC0
7BE0
00E0
0060
0060
00E0
01C0
0780
0F00
1C00
1C00
1C00
1C00
1C00
1C00
1C00
1C00
ENDCHAR
STARTCHAR 0242
ENCODING 578
SWIDTH 400 0
DWIDTH 10 0
BBX 9 13 1 0
BITMAP
FE00
FF00
0380
0380
0380
0700
1E00
3C00
3000
3000
3000
3000
3000
ENDCHAR
STARTCHAR 0243
ENCODING 579
SWIDTH 640 0
DWIDTH 16 0
BBX 15 18 0 0
BITMAP
0100
3FF0
3FF8
381C
380C
380C
380C
383C
3FF0
3FF8
381C
380E
FF06
FF06
380E
381C
3FFC
3FF0
ENDCHAR
STARTCHAR 0244
ENCODING 580
SWIDTH 680 0
DWIDTH 17 0
BBX 17 17 0 0
BITMAP
380700
380700
380700
380700
380700
380700
380700
FFFF80
380700
380700
380700
380600
180600
180E00
1C1E00
0FFC00
07F800
ENDCHAR
STARTCHAR 0245
ENCODING 581
SWIDTH 640 0
DWIDTH 16 0
BBX 16 17 0 0
BITMAP
01C0
03C0
03E0
07E0
0660
0E70
0E30
0C38
1C38
1818
181C
380C
300E
700E
7006
6007
E007
ENDCHAR
STARTCHAR 0246
ENCODING 582
SWIDTH 560 0
DWIDTH 14 0
BBX 12 22 2 -3
BITMAP
0030
0030
FFE0
FFE0
E0C0
E0C0
E0C0
E180
E180
FFC0
FFC0
E600
E600
E600
EC00
EC00
F800
FFF0
FFF0
3000
3000
2000
ENDCHAR
STARTCHAR 0247
ENCODING 583
SWIDTH 560 0
DWIDTH 14 0
BBX 12 17 1 -2
BITMAP
0080
0180
1FC0
3FE0
7360
6370
E330
FFF0
FFF0
E600
E400
6C00
7C00
3FE0
1FE0
1800
1000
ENDCHAR
STARTCHAR 0248
ENCODING 584
SWIDTH 480 0
DWIDTH 12 0
BBX 12 17 0 0
BITMAP
00C0
00C0
00C0
00C0
00C0
00C0
00C0
0FF0
0FF0
00C0
00C0
00C0
00C0
00C0
41C0
FF80
7F00
ENDCHAR
STARTCHAR 0249
ENCODING 585
SWIDTH 280 0
DWIDTH 7 0
BBX 8 23 -1 -5
BITMAP
1C
1C
08
00
00
0C
0C
0C
0C
0C
7F
7F
0C
0C
0C
0C
0C
0C
0C
1C
38
F8
E0
ENDCHAR
STARTCHAR 024A
ENCODING 586
SWIDTH 760 0
DWIDTH 19 0
BBX 20 23 1 -5
BITMAP
01E000
0FF800
1F7C00
380E00
300700
700300
600380
600380
E00380
E00380
E00380
600380
600380
700780
380780
3C0F80
1FFD80
07F180
000180
000180
0001C0
0001F0
000070
ENDCHAR
STARTCHAR 024B
ENCODING 587
SWIDTH 560 0
DWIDTH 14 0
BBX 15 18 1 -5
BITMAP
1FF0
3FF0
7070
6070
E070
E070
E070
E070
E070
6070
7070
3FF0
1FF0
0070
0070
0030
003E
000E
ENDCHAR
STARTCHAR 024C
ENCODING 588
SWIDTH 640 0
DWIDTH 16 0
BBX 15 18 0 0
BITMAP
0100
3FF0
3FF8
381C
380C
380E
380E
380C
381C
FFF8
FFE0
3870
3870
3838
381C
380C
380E
3806
ENDCHAR
STARTCHAR 024D
ENCODING 589
SWIDTH 360 0
DWIDTH 9 0
BBX 10 13 0 0
BITMAP
3FC0
3F80
3800
3800
3800
3800
FF00
FF00
3800
3800
3800
3800
3800
ENDCHAR
STARTCHAR 024E
ENCODING 590
SWIDTH 600 0
DWIDTH 15 0
BBX 15 17 0 0
BITMAP
700E
700C
3818
FFFE
FFFE
0C70
0E60
06E0
07C0
0380
0180
0180
0180
0180
0180
0180
0180
ENDCHAR
STARTCHAR 024F
ENCODING 591
SWIDTH 480 0
DWIDTH 12 0
BBX 13 18 0 -5
BITMAP
6030
6030
7070
3060
3060
FFF8
FFF8
18C0
0CC0
0D80
0780
0780
0300
0300
0600
0E00
7C00
6000
ENDCHAR
STARTCHAR 0292
ENCODING 658
SWIDTH 440 0
DWIDTH 11 0
BBX 11 18 0 -5
BITMAP
FFC0
FFC0
0180
0380
0700
0600
0C00
1E00
1F80
03C0
00E0
00E0
00E0
00E0
01C0
E7C0
FF80
1800
ENDCHAR
STARTCHAR 02BC
ENCODING 700
SWIDTH 360 0
DWIDTH 9 0
BBX 3 5 3 14
BITMAP
60
60
60
C0
40
ENDCHAR
STARTCHAR 02C6
ENCODING 710
SWIDTH 360 0
DWIDTH 9 0
BBX 7 4 1 15
BITMAP
10
38
6C
C6
ENDCHAR
STARTCHAR 02C7
ENCODING 711
SWIDTH 360 0
DWIDTH 9 0
BBX 6 4 2 15
BITMAP
8C
D8
70
30
ENDCHAR
STARTCHAR 02C9
ENCODING 713
SWIDTH 360 0
DWIDTH 9 0
BBX 7 2 1 16
BITMAP
FE
FE
ENDCHAR
STARTCHAR 02D8
ENCODING 728
SWIDTH 360 0
DWIDTH 9 0
BBX 7 4 1 15
BITMAP
C2
46
7C
38
ENDCHAR
STARTCHAR 02D9
ENCODING 729
SWIDTH 360 0
DWIDTH 9 0
BBX 3 3 3 15
BITMAP
E0
E0
40
ENDCHAR
STARTCHAR 02DA
ENCODING 730
SWIDTH 360 0
DWIDTH 9 0
BBX 5 5 2 14
BITMAP
78
88
88
78
30
ENDCHAR
STARTCHAR 02DB
ENCODING 731
SWIDTH 360 0
DWIDTH 9 0
BBX 4 5 2 -5
BITMAP
70
C0
C0
F0
70
ENDCHAR
STARTCHAR 02DC
ENCODING 732
SWIDTH 360 0
DWIDTH 9 0
BBX 8 2 1 15
BITMAP
73
FE
ENDCHAR
STARTCHAR 02DD
ENCODING 733
SWIDTH 360 0
DWIDTH 9 0
BBX 8 4 1 14
BITMAP
33
73
66
CC
ENDCHAR
STARTCHAR 0311
ENCODING 785
SWIDTH 360 0
DWIDTH 9 0
BBX 7 4 1 15
BITMAP
38
7C
46
C6
ENDCHAR
STARTCHAR 0384
ENCODING 900
SWIDTH 360 0
DWIDTH 9 0
BBX 4 4 4 15
BITMAP
30
60
E0
C0
ENDCHAR
STARTCHAR 0385
ENCODING 901
SWIDTH 360 0
DWIDTH 9 0
BBX 10 4 0 15
BITMAP
0E00
CDC0
D9C0
1800
ENDCHAR
STARTCHAR 0386
ENCODING 902
SWIDTH 640 0
DWIDTH 16 0
BBX 16 18 0 0
BITMAP
1000
39C0
33C0
33E0
3760
2670
0670
0E30
0C38
1C18
181C
181C
3FFC
3FFE
700E
7006
6007
E003
ENDCHAR
STARTCHAR 0388
ENCODING 904
SWIDTH 600 0
DWIDTH 15 0
BBX 16 18 -1 0
BITMAP
4000
67FE
67FE
6600
C600
4600
0600
0600
07FC
07FC
0600
0600
0600
0600
0600
0600
07FF
07FF
ENDCHAR
STARTCHAR 0389
ENCODING 905
SWIDTH 760 0
DWIDTH 19 0
BBX 18 18 -1 0
BITMAP
400000
6600C0
6600C0
6600C0
C600C0
4600C0
0600C0
0600C0
07FFC0
07FFC0
0600C0
0600C0
0600C0
0600C0
0600C0
0600C0
0600C0
0600C0
ENDCHAR
STARTCHAR 038A
ENCODING 906
SWIDTH 320 0
DWIDTH 8 0
BBX 7 18 -1 0
BITMAP
40
66
66
66
C6
46
06
06
06
06
06
06
06
06
06
06
06
06
ENDCHAR
STARTCHAR 038C
ENCODING 908
SWIDTH 800 0
DWIDTH 20 0
BBX 20 18 -1 0
BITMAP
407800
61FF00
63EF80
6701C0
CE00E0
4C00E0
1C0060
1C0060
1C0070
1C0070
1C0070
1C0060
1C0060
0E00E0
0E01C0
0703C0
03FF80
01FE00
ENDCHAR
STARTCHAR 038E
ENCODING 910
SWIDTH 720 0
DWIDTH 18 0
BBX 19 18 -1 0
BITMAP
400000
6700E0
6701C0
638180
C38380
41C300
00C700
00E600
006C00
007C00
003800
003800
003800
003800
003800
003800
003800
003800
ENDCHAR
STARTCHAR 038F
ENCODING 911
SWIDTH 800 0
DWIDTH 20 0
BBX 20 18 -1 0
BITMAP
407800
61FF00
63EF80
6701C0
CE00E0
4C00E0
1C0060
1C0060
1C0060
1C0060
1C0060
0C0060
0E00E0
0600C0
0701C0
038380
1FC7F0
1FC7F0
ENDCHAR
STARTCHAR 0390
ENCODING 912
SWIDTH 240 0
DWIDTH 6 0
BBX 10 19 -2 1
BITMAP
0600
EEC0
EDC0
1800
0800
0000
0C00
0C00
0C00
0C00
0C00
0C00
0C00
0C00
0C00
0C00
0E00
0F00
0700
ENDCHAR
STARTCHAR 0391
ENCODING 913
SWIDTH 640 0
DWIDTH 16 0
BBX 16 17 0 0
BITMAP
01C0
03C0
03E0
0760
0670
0670
0E30
0C38
1C18
181C
181C
3FFC
3FFE
700E
7006
6007
E003
ENDCHAR
STARTCHAR 0392
ENCODING 914
SWIDTH 640 0
DWIDTH 16 0
BBX 13 17 2 1
BITMAP
FFC0
FFE0
E070
E070
E070
E070
E0E0
FFC0
FFE0
E070
E038
E038
E038
E038
E070
FFE0
FF80
ENDCHAR
STARTCHAR 0393
ENCODING 915
SWIDTH 480 0
DWIDTH 12 0
BBX 10 17 2 0
BITMAP
FFC0
FFC0
E000
E000
E000
E000
E000
E000
E000
E000
E000
E000
E000
E000
E000
E000
E000
ENDCHAR
STARTCHAR 0394
ENCODING 916
SWIDTH 640 0
DWIDTH 16 0
BBX 16 17 0 0
BITMAP
01C0
03C0
03E0
0760
0660
0E70
0C30
0C38
1C18
1818
381C
300C
300E
700E
6006
7FFF
FFFF
ENDCHAR
STARTCHAR 0395
ENCODING 917
SWIDTH 560 0
DWIDTH 14 0
BBX 11 17 2 0
BITMAP
FFE0
FFE0
E000
E000
E000
E000
E000
FFC0
FFC0
E000
E000
E000
E000
E000
E000
FFE0
FFE0
ENDCHAR
STARTCHAR 0396
ENCODING 918
SWIDTH 560 0
DWIDTH 14 0
BBX 12 17 1 0
BITMAP
FFF0
FFF0
0060
00E0
01C0
0380
0700
0600
0E00
1C00
1800
3800
7000
6000
E000
FFF0
FFF0
ENDCHAR
STARTCHAR 0397
ENCODING 919
SWIDTH 680 0
DWIDTH 17 0
BBX 13 17 2 0
BITMAP
E018
E018
E018
E018
E018
E018
E018
FFF8
FFF8
E018
E018
E018
E018
E018
E018
E018
E018
ENDCHAR
STARTCHAR 0398
ENCODING 920
SWIDTH 760 0
DWIDTH 19 0
BBX 17 18 1 0
BITMAP
01E000
0FF800
1F7C00
380E00
300700
700300
600380
600380
E7F380
E7F380
E00380
600380
600380
700700
380700
3C0E00
1FFC00
07F800
ENDCHAR
STARTCHAR 0399
ENCODING 921
SWIDTH 240 0
DWIDTH 6 0
BBX 3 17 2 0
BITMAP
E0
E0
E0
E0
E0
E0
E0
E0
E0
E0
E0
E0
E0
E0
E0
E0
E0
ENDCHAR
STARTCHAR 039A
ENCODING 922
SWIDTH 600 0
DWIDTH 15 0
BBX 13 17 2 0
BITMAP
E070
E0E0
E1C0
E380
E700
EE00
FC00
F800
FC00
EE00
E700
E380
E1C0
E0E0
E070
E038
E038
ENDCHAR
STARTCHAR 039B
ENCODING 923
SWIDTH 640 0
DWIDTH 16 0
BBX 16 17 0 0
BITMAP
01C0
03C0
03E0
07E0
0660
0E70
0E30
0C38
1C38
1818
181C
380C
300E
700E
7006
6007
E007
ENDCHAR
STARTCHAR 039C
ENCODING 924
SWIDTH 840 0
DWIDTH 21 0
BBX 18 17 2 0
BITMAP
700380
700380
780780
780780
FC0F80
EC0D80
EE1D80
E619C0
C639C0
C331C0
C371C0
C1E0C0
C1E0C0
C1C0C0
C0C0C0
C000C0
C000C0
ENDCHAR
STARTCHAR 039D
ENCODING 925
SWIDTH 720 0
DWIDTH 18 0
BBX 14 17 2 0
BITMAP
E00C
F00C
F80C
F80C
FC0C
EE0C
E70C
E30C
E38C
E1CC
E0CC
E06C
E07C
E03C
E03C
E01C
E00C
ENDCHAR
STARTCHAR 039E
ENCODING 926
SWIDTH 520 0
DWIDTH 13 0
BBX 12 17 1 0
BITMAP
FFF0
FFF0
0000
0000
0000
0000
0000
7FE0
7FE0
0000
0000
0000
0000
0000
0000
FFF0
FFF0
ENDCHAR
STARTCHAR 039F
ENCODING 927
SWIDTH 760 0
DWIDTH 19 0
BBX 17 18 1 0
BITMAP
01E000
0FF800
1F7C00
380E00
300700
700300
600380
600380
E00380
E00380
E00380
600380
600380
700700
380700
3C0E00
1FFC00
07F800
ENDCHAR
STARTCHAR 03A0
ENCODING 928
SWIDTH 680 0
DWIDTH 17 0
BBX 13 17 2 0
BITMAP
FFF8
FFF8
E018
E018
E018
E018
E018
E018
E018
E018
E018
E018
E018
E018
E018
E018
E018
ENDCHAR
STARTCHAR 03A1
ENCODING 929
SWIDTH 600 0
DWIDTH 15 0
BBX 12 17 2 1
BITMAP
FFC0
FFE0
E070
E070
E030
E030
E070
E070
FFE0
FFC0
F800
E000
E000
E000
E000
E000
E000
ENDCHAR
STARTCHAR 03A3
ENCODING 931
SWIDTH 560 0
DWIDTH 14 0
BBX 12 17 1 0
BITMAP
FFF0
FFF0
7000
3800
1800
0C00
0E00
0700
0700
0E00
1C00
1800
3800
7000
E000
FFF0
FFF0
ENDCHAR
STARTCHAR 03A4
ENCODING 932
SWIDTH 560 0
DWIDTH 14 0
BBX 14 17 0 0
BITMAP
FFFC
FFFC
0300
0300
0300
0300
0300
0300
0300
0300
0300
0300
0300
0300
0300
0300
0300
ENDCHAR
STARTCHAR 03A5
ENCODING 933
SWIDTH 560 0
DWIDTH 14 0
BBX 13 17 1 0
BITMAP
C018
E038
6030
7070
3060
38E0
1DC0
0D80
0F80
0700
0700
0700
0700
0700
0700
0700
0700
ENDCHAR
STARTCHAR 03A6
ENCODING 934
SWIDTH 840 0
DWIDTH 21 0
BBX 19 18 1 0
BITMAP
006000
006000
0FFE00
1FFF80
3863C0
7060C0
6060E0
E06060
E06060
E06060
6060E0
7060E0
7861C0
3C6780
0FFF00
03FC00
006000
006000
ENDCHAR
STARTCHAR 03A7
ENCODING 935
SWIDTH 600 0
DWIDTH 15 0
BBX 14 17 1 0
BITMAP
E018
7038
3070
3860
1CE0
0DC0
0F80
0780
0780
0FC0
0CC0
1CE0
3870
3030
7038
E018
E01C
ENDCHAR
STARTCHAR 03A8
ENCODING 936
SWIDTH 800 0
DWIDTH 20 0
BBX 17 17 2 0
BITMAP
C18380
C18380
C18380
C18380
C18380
C18380
C18380
C18380
E18300
F18700
7FFE00
3FFC00
03C000
018000
018000
018000
018000
ENDCHAR
STARTCHAR 03A9
ENCODING 937
SWIDTH 760 0
DWIDTH 19 0
BBX 17 18 1 0
BITMAP
01E000
0FF800
1F7E00
380E00
300700
700300
700380
600380
600380
600380
600380
700300
700300
300700
180E00
1C0C00
FE1F80
FE1F80
ENDCHAR
STARTCHAR 03AA
ENCODING 938
SWIDTH 240 0
DWIDTH 6 0
BBX 7 22 0 0
BITMAP
CE
CE
04
00
00
38
38
38
38
38
38
38
38
38
38
38
38
38
38
38
38
38
ENDCHAR
STARTCHAR 03AB
ENCODING 939
SWIDTH 560 0
DWIDTH 14 0
BBX 13 22 1 0
BITMAP
18C0
1DC0
0880
0000
0000
C018
E038
6030
7070
3060
38E0
1DC0
0D80
0F80
0700
0700
0700
0700
0700
0700
0700
0700
ENDCHAR
STARTCHAR 03AC
ENCODING 940
SWIDTH 600 0
DWIDTH 15 0
BBX 14 19 1 1
BITMAP
0180
0380
0300
0600
0000
0000
1FF0
3FF0
7070
6070
E070
E070
E070
E070
E070
6070
7070
3FFC
1F98
ENDCHAR
STARTCHAR 03AD
ENCODING 941
SWIDTH 480 0
DWIDTH 12 0
BBX 11 19 1 1
BITMAP
0300
0700
0600
0C00
0000
0000
1FC0
7FC0
7000
6000
6000
3F00
3F00
7000
E000
E000
6000
7FE0
3FE0
ENDCHAR
STARTCHAR 03AE
ENCODING 942
SWIDTH 560 0
DWIDTH 14 0
BBX 11 24 2 -4
BITMAP
0700
0600
0E00
1C00
0000
0000
FF00
FF80
C1C0
C0C0
C0C0
C0C0
C0E0
C0E0
C0E0
C0E0
C0E0
C0E0
C0E0
00E0
00E0
00E0
00E0
00E0
ENDCHAR
STARTCHAR 03AF
ENCODING 943
SWIDTH 240 0
DWIDTH 6 0
BBX 4 19 2 1
BITMAP
30
60
E0
C0
00
00
C0
C0
C0
C0
C0
C0
C0
C0
C0
C0
E0
F0
70
ENDCHAR
STARTCHAR 03B0
ENCODING 944
SWIDTH 560 0
DWIDTH 14 0
BBX 11 19 2 1
BITMAP
0600
EEC0
ECC0
1800
0800
0000
C0E0
C0E0
C0E0
C0E0
C0E0
C0E0
C0E0
C0E0
C0E0
E0C0
E1C0
7FC0
3F00
ENDCHAR
STARTCHAR 03B1
ENCODING 945
SWIDTH 600 0
DWIDTH 15 0
BBX 14 13 1 0
BITMAP
1FF0
3FF0
7070
6070
E070
E070
E070
E070
E070
6070
7070
3FFC
1F98
ENDCHAR
STARTCHAR 03B2
ENCODING 946
SWIDTH 600 0
DWIDTH 15 0
BBX 12 24 2 -5
BITMAP
3F80
7FC0
60C0
E0E0
C0E0
C0E0
C0C0
C780
C780
C3C0
C0E0
C070
C030
C030
C070
C070
E0E0
FFC0
FF80
C000
C000
C000
C000
C000
ENDCHAR
STARTCHAR 03B3
ENCODING 947
SWIDTH 480 0
DWIDTH 12 0
BBX 11 18 1 -5
BITMAP
C060
E0E0
E0C0
60C0
70C0
7180
3180
3380
3B00
1B00
1E00
1E00
1C00
1C00
0C00
0C00
0C00
0C00
ENDCHAR
STARTCHAR 03B4
ENCODING 948
SWIDTH 560 0
DWIDTH 14 0
BBX 12 19 1 0
BITMAP
0FE0
1FE0
1800
1800
1C00
0E00
0F80
1FC0
38E0
7070
6030
E030
E030
E030
E030
6070
7070
3FE0
1FC0
ENDCHAR
STARTCHAR 03B5
ENCODING 949
SWIDTH 480 0
DWIDTH 12 0
BBX 11 13 1 0
BITMAP
1FC0
7FC0
7000
6000
6000
3F00
3F00
7000
E000
E000
6000
7FE0
3FE0
ENDCHAR
STARTCHAR 03B6
ENCODING 950
SWIDTH 440 0
DWIDTH 11 0
BBX 10 23 1 -5
BITMAP
7FC0
7FC0
0380
0700
0E00
1C00
1800
3800
3000
7000
6000
E000
E000
E000
E000
6000
7800
3F80
0FC0
00C0
00C0
00C0
01C0
ENDCHAR
STARTCHAR 03B7
ENCODING 951
SWIDTH 560 0
DWIDTH 14 0
BBX 11 18 2 -5
BITMAP
FF00
FF80
C1C0
C0C0
C0C0
C0C0
C0E0
C0E0
C0E0
C0E0
C0E0
C0E0
C0E0
00E0
00E0
00E0
00E0
00E0
ENDCHAR
STARTCHAR 03B8
ENCODING 952
SWIDTH 600 0
DWIDTH 15 0
BBX 13 19 1 0
BITMAP
1FC0
3FE0
3060
7070
6030
6030
6030
E038
FFF8
FFF8
E038
E038
6030
6030
6030
7070
3060
3FE0
1FC0
ENDCHAR
STARTCHAR 03B9
ENCODING 953
SWIDTH 240 0
DWIDTH 6 0
BBX 4 13 2 0
BITMAP
C0
C0
C0
C0
C0
C0
C0
C0
C0
C0
E0
F0
70
ENDCHAR
STARTCHAR 03BA
ENCODING 954
SWIDTH 520 0
DWIDTH 13 0
BBX 11 13 2 0
BITMAP
C1C0
C380
C700
CE00
DC00
F800
FC00
DE00
CF00
C780
C380
C1C0
C0E0
ENDCHAR
STARTCHAR 03BB
ENCODING 955
SWIDTH 480 0
DWIDTH 12 0
BBX 11 19 1 0
BITMAP
F000
F800
1C00
0C00
0C00
0E00
0E00
0F00
1F00
1B00
3B80
3180
3180
61C0
60C0
E0C0
C0E0
C0E0
C060
ENDCHAR
STARTCHAR 03BC
ENCODING 956
SWIDTH 560 0
DWIDTH 14 0
BBX 11 18 2 -5
BITMAP
C0E0
C0E0
C0E0
C0E0
C0E0
C0E0
C0E0
C0E0
C0E0
E0E0
E0E0
FFE0
DFE0
C000
C000
C000
C000
C000
ENDCHAR
STARTCHAR 03BD
ENCODING 957
SWIDTH 480 0
DWIDTH 12 0
BBX 11 13 1 0
BITMAP
C060
C0E0
E0C0
E0C0
61C0
7180
7180
3380
3B00
1B00
1E00
0E00
0E00
ENDCHAR
STARTCHAR 03BE
ENCODING 958
SWIDTH 440 0
DWIDTH 11 0
BBX 11 23 1 -5
BITMAP
1FC0
3FC0
7000
7000
6000
7000
3000
3C00
0F80
3F80
7000
6000
E000
E000
E000
6000
7800
3F80
0FC0
00C0
00E0
00C0
00C0
ENDCHAR
STARTCHAR 03BF
ENCODING 959
SWIDTH 560 0
DWIDTH 14 0
BBX 12 13 1 0
BITMAP
1F80
3FE0
7060
6070
E030
E030
E030
E030
E030
6070
7060
3FE0
1FC0
ENDCHAR
STARTCHAR 03C0
ENCODING 960
SWIDTH 560 0
DWIDTH 14 0
BBX 10 13 2 0
BITMAP
FFC0
FFC0
C0C0
C0C0
C0C0
C0C0
C0C0
C0C0
C0C0
C0C0
C0C0
C0C0
C0C0
ENDCHAR
STARTCHAR 03C1
ENCODING 961
SWIDTH 560 0
DWIDTH 14 0
BBX 12 18 2 -5
BITMAP
3F80
7FC0
60E0
E060
C060
C070
C070
C070
C060
C0E0
E0E0
FFC0
FF80
C000
C000
C000
C000
C000
ENDCHAR
STARTCHAR 03C2
ENCODING 962
SWIDTH 440 0
DWIDTH 11 0
BBX 10 18 1 -5
BITMAP
1FC0
3FC0
7000
6000
E000
E000
E000
E000
E000
7000
7800
3F00
0FC0
01C0
00C0
00C0
01C0
0080
ENDCHAR
STARTCHAR 03C3
ENCODING 963
SWIDTH 600 0
DWIDTH 15 0
BBX 14 13 1 0
BITMAP
0FFC
3FFC
38E0
7060
6070
E030
E030
E030
E030
6070
7070
3FE0
1FC0
ENDCHAR
STARTCHAR 03C4
ENCODING 964
SWIDTH 440 0
DWIDTH 11 0
BBX 11 13 0 0
BITMAP
FFE0
FFE0
0C00
0C00
0C00
0C00
0C00
0C00
0C00
0C00
0E00
0FC0
07C0
ENDCHAR
STARTCHAR 03C5
ENCODING 965
SWIDTH 560 0
DWIDTH 14 0
BBX 11 13 2 0
BITMAP
C0E0
C0E0
C0E0
C0E0
C0E0
C0E0
C0E0
C0E0
C0E0
E0C0
E1C0
7FC0
3F00
ENDCHAR
STARTCHAR 03C6
ENCODING 966
SWIDTH 760 0
DWIDTH 19 0
BBX 17 18 1 -5
BITMAP
0FF800
1FFE00
39C700
71C300
61C380
E1C180
E1C180
E1C380
61C380
71C300
39CF00
1FFE00
0FF800
01C000
01C000
01C000
01C000
01C000
ENDCHAR
STARTCHAR 03C7
ENCODING 967
SWIDTH 480 0
DWIDTH 12 0
BBX 11 13 1 0
BITMAP
E0E0
61C0
7180
3B80
1F00
1E00
0E00
1F00
3B80
3180
61C0
E0C0
C060
ENDCHAR
STARTCHAR 03C8
ENCODING 968
SWIDTH 760 0
DWIDTH 19 0
BBX 16 18 2 -5
BITMAP
C187
C187
C187
C187
C187
C187
C187
C186
C186
E18E
719C
3FFC
1FF0
0180
0180
0180
0180
0180
ENDCHAR
STARTCHAR 03C9
ENCODING 969
SWIDTH 800 0
DWIDTH 20 0
BBX 19 13 1 0
BITMAP
380380
300180
70E1C0
60E0C0
60E0C0
E0E0C0
E0E0E0
E0E0E0
60E0C0
60E0C0
71F1C0
3FBF80
1F1F00
ENDCHAR
STARTCHAR 03CA
ENCODING 970
SWIDTH 240 0
DWIDTH 6 0
BBX 8 18 -1 0
BITMAP
E7
E7
02
00
00
18
18
18
18
18
18
18
18
18
18
1C
1E
0E
ENDCHAR
STARTCHAR 03CB
ENCODING 971
SWIDTH 560 0
DWIDTH 14 0
BBX 11 18 2 0
BITMAP
7380
7380
0100
0000
0000
C0E0
C0E0
C0E0
C0E0
C0E0
C0E0
C0E0
C0E0
C0E0
E0C0
E1C0
7FC0
3F00
ENDCHAR
STARTCHAR 03CC
ENCODING 972
SWIDTH 560 0
DWIDTH 14 0
BBX 12 20 1 0
BITMAP
0100
0180
0380
0700
0600
0000
0000
1F80
3FE0
7060
6070
E030
E030
E030
E030
E030
6070
7060
3FE0
1FC0
ENDCHAR
STARTCHAR 03CD
ENCODING 973
SWIDTH 560 0
DWIDTH 14 0
BBX 11 19 2 1
BITMAP
0300
0600
0E00
0C00
0000
0000
C0E0
C0E0
C0E0
C0E0
C0E0
C0E0
C0E0
C0E0
C0E0
E0C0
E1C0
7FC0
3F00
ENDCHAR
STARTCHAR 03CE
ENCODING 974
SWIDTH 800 0
DWIDTH 20 0
BBX 19 20 1 0
BITMAP
002000
003000
007000
00E000
00C000
000000
000000
380380
300180
70E1C0
60E0C0
60E0C0
E0E0C0
E0E0E0
E0E0E0
60E0C0
60E0C0
71F1C0
3FBF80
1F1F00
ENDCHAR
STARTCHAR 0400
ENCODING 1024
SWIDTH 560 0
DWIDTH 14 0
BBX 11 23 2 0
BITMAP
0800
1C00
0E00
0700
0200
0000
FFE0
FFE0
E000
E000
E000
E000
E000
FFC0
FFC0
E000
E000
E000
E000
E000
E000
FFE0
FFE0
ENDCHAR
STARTCHAR 0401
ENCODING 1025
SWIDTH 560 0
DWIDTH 14 0
BBX 11 22 2 0
BITMAP
3180
3380
1100
0000
0000
FFE0
FFE0
E000
E000
E000
E000
E000
FFC0
FFC0
E000
E000
E000
E000
E000
E000
FFE0
FFE0
ENDCHAR
STARTCHAR 0402
ENCODING 1026
SWIDTH 720 0
DWIDTH 18 0
BBX 18 17 0 0
BITMAP
FFFC00
FFFC00
070000
070000
070000
070000
07FC00
07FF00
070780
070180
0701C0
0701C0
0701C0
0701C0
070380
071F80
071E00
ENDCHAR
STARTCHAR 0403
ENCODING 1027
SWIDTH 480 0
DWIDTH 12 0
BBX 10 23 2 0
BITMAP
0300
0700
0E00
0C00
0000
0000
FFC0
FFC0
E000
E000
E000
E000
E000
E000
E000
E000
E000
E000
E000
E000
E000
E000
E000
ENDCHAR
STARTCHAR 0404
ENCODING 1028
SWIDTH 600 0
DWIDTH 15 0
BBX 14 18 1 0
BITMAP
01E0
0FFC
1F38
3800
7000
7000
6000
6000
FFE0
FFE0
E000
6000
6000
7000
3800
3C00
1FFC
07F8
ENDCHAR
STARTCHAR 0405
ENCODING 1029
SWIDTH 520 0
DWIDTH 13 0
BBX 12 18 1 0
BITMAP
0F00
3FE0
79C0
E000
E000
E000
E000
7800
3E00
1F80
03C0
00E0
0060
0070
0060
80E0
FFE0
7F80
ENDCHAR
STARTCHAR 0406
ENCODING 1030
SWIDTH 240 0
DWIDTH 6 0
BBX 3 17 2 0
BITMAP
E0
E0
E0
E0
E0
E0
E0
E0
E0
E0
E0
E0
E0
E0
E0
E0
E0
ENDCHAR
STARTCHAR 0407
ENCODING 1031
SWIDTH 240 0
DWIDTH 6 0
BBX 7 22 0 0
BITMAP
CE
CE
04
00
00
38
38
38
38
38
38
38
38
38
38
38
38
38
38
38
38
38
ENDCHAR
STARTCHAR 0408
ENCODING 1032
SWIDTH 480 0
DWIDTH 12 0
BBX 10 17 0 0
BITMAP
00C0
00C0
00C0
00C0
00C0
00C0
00C0
00C0
00C0
00C0
00C0
00C0
00C0
00C0
41C0
FF80
7F00
ENDCHAR
STARTCHAR 0409
ENCODING 1033
SWIDTH 1040 0
DWIDTH 26 0
BBX 25 17 0 0
BITMAP
03FF0000
03FF0000
03070000
03070000
03070000
03070000
0707FC00
0707FE00
07070700
07070380
06070380
06070180
0E070380
0C070380
3C070700
F807FE00
F007FC00
ENDCHAR
STARTCHAR 040A
ENCODING 1034
SWIDTH 1000 0
DWIDTH 25 0
BBX 23 17 2 0
BITMAP
E01800
E01800
E01800
E01800
E01800
E01800
FFFFE0
FFFFF8
E0183C
E0180C
E0180E
E0180E
E0180E
E0180C
E0183C
E01FF8
E01FE0
ENDCHAR
STARTCHAR 040B
ENCODING 1035
SWIDTH 720 0
DWIDTH 18 0
BBX 17 17 0 0
BITMAP
FFFC00
FFFC00
070000
070000
070000
070000
07FC00
07FF00
070700
070380
070180
070180
070180
070180
070180
070180
070180
ENDCHAR
STARTCHAR 040C
ENCODING 1036
SWIDTH 600 0
DWIDTH 15 0
BBX 13 23 2 0
BITMAP
0100
0380
0700
0E00
0000
0000
E070
E0E0
E1C0
E380
E700
EE00
FC00
F800
FC00
EE00
E700
E380
E1C0
E0E0
E070
E038
E038
ENDCHAR
STARTCHAR 040D
ENCODING 1037
SWIDTH 720 0
DWIDTH 18 0
BBX 14 23 2 0
BITMAP
0400
0E00
0700
0380
0000
0000
E01C
E03C
E03C
E07C
E0EC
E1CC
E18C
E38C
E70C
EE0C
EC0C
FC0C
F80C
F00C
F00C
E00C
C00C
ENDCHAR
STARTCHAR 040E
ENCODING 1038
SWIDTH 560 0
DWIDTH 14 0
BBX 13 22 1 1
BITMAP
18C0
1FC0
0780
0000
0000
E018
E038
6038
7030
3070
3860
1860
1CE0
0CC0
0FC0
0780
0780
0300
0700
0E00
FE00
F800
ENDCHAR
STARTCHAR 040F
ENCODING 1039
SWIDTH 680 0
DWIDTH 17 0
BBX 13 22 2 -5
BITMAP
E018
E018
E018
E018
E018
E018
E018
E018
E018
E018
E018
E018
E018
E018
E018
FFF8
FFF8
0300
0300
0300
0300
0300
ENDCHAR
STARTCHAR 0410
ENCODING 1040
SWIDTH 640 0
DWIDTH 16 0
BBX 16 17 0 0
BITMAP
01C0
03C0
03E0
0760
0670
0670
0E30
0C38
1C18
181C
181C
3FFC
3FFE
700E
7006
6007
E003
ENDCHAR
STARTCHAR 0411
ENCODING 1041
SWIDTH 600 0
DWIDTH 15 0
BBX 12 17 2 0
BITMAP
FFE0
FFE0
E000
E000
E000
E000
FF00
FFE0
E0F0
E070
E030
E030
E030
E070
E0F0
FFE0
FF80
ENDCHAR
STARTCHAR 0412
ENCODING 1042
SWIDTH 640 0
DWIDTH 16 0
BBX 13 17 2 1
BITMAP
FFC0
FFE0
E070
E070
E070
E070
E0E0
FFC0
FFE0
E070
E038
E038
E038
E038
E070
FFE0
FF80
ENDCHAR
STARTCHAR 0413
ENCODING 1043
SWIDTH 480 0
DWIDTH 12 0
BBX 10 17 2 0
BITMAP
FFC0
FFC0
E000
E000
E000
E000
E000
E000
E000
E000
E000
E000
E000
E000
E000
E000
E000
ENDCHAR
STARTCHAR 0414
ENCODING 1044
SWIDTH 720 0
DWIDTH 18 0
BBX 18 22 0 -5
BITMAP
03FE00
03FE00
030600
030600
030600
070600
070600
070600
070600
060600
060600
0E0600
0C0600
1C0600
180600
FFFFC0
FFFFC0
E001C0
E001C0
E001C0
E001C0
E001C0
ENDCHAR
STARTCHAR 0415
ENCODING 1045
SWIDTH 560 0
DWIDTH 14 0
BBX 11 17 2 0
BITMAP
FFE0
FFE0
E000
E000
E000
E000
E000
FFC0
FFC0
E000
E000
E000
E000
E000
E000
FFE0
FFE0
ENDCHAR
STARTCHAR 0416
ENCODING 1046
SWIDTH 880 0
DWIDTH 22 0
BBX 21 17 1 0
BITMAP
E06070
7060E0
3860C0
1C61C0
0E6380
076700
036E00
03FC00
03FE00
076F00
0E6700
1C6380
1C61C0
3860E0
706070
E06070
E06038
ENDCHAR
STARTCHAR 0417
ENCODING 1047
SWIDTH 560 0
DWIDTH 14 0
BBX 12 18 1 0
BITMAP
1E00
FFC0
73E0
00E0
0060
0060
00E0
03C0
1F80
1FC0
00E0
0070
0070
0070
0070
80F0
FFE0
FFC0
ENDCHAR
STARTCHAR 0418
ENCODING 1048
SWIDTH 720 0
DWIDTH 18 0
BBX 14 17 2 0
BITMAP
E01C
E03C
E03C
E07C
E0EC
E1CC
E18C
E38C
E70C
EE0C
EC0C
FC0C
F80C
F00C
F00C
E00C
C00C
ENDCHAR
STARTCHAR 0419
ENCODING 1049
SWIDTH 720 0
DWIDTH 18 0
BBX 14 22 2 1
BITMAP
1C60
0FC0
0780
0000
0000
E01C
E03C
E03C
E07C
E0EC
E1CC
E18C
E38C
E70C
EE0C
EC0C
FC0C
F80C
F00C
F00C
E00C
C00C
ENDCHAR
STARTCHAR 041A
ENCODING 1050
SWIDTH 600 0
DWIDTH 15 0
BBX 13 17 2 0
BITMAP
E070
E0E0
E1C0
E380
E700
EE00
FC00
F800
FC00
EE00
E700
E380
E1C0
E0E0
E070
E038
E038
ENDCHAR
STARTCHAR 041B
ENCODING 1051
SWIDTH 680 0
DWIDTH 17 0
BBX 16 17 0 0
BITMAP
03FF
03FF
0307
0307
0307
0307
0707
0707
0707
0707
0607
0607
0E07
0C07
3C07
F807
F007
ENDCHAR
STARTCHAR 041C
ENCODING 1052
SWIDTH 840 0
DWIDTH 21 0
BBX 18 17 2 0
BITMAP
700380
700380
780780
780780
FC0F80
EC0D80
EE1D80
E619C0
C639C0
C331C0
C371C0
C1E0C0
C1E0C0
C1C0C0
C0C0C0
C000C0
C000C0
ENDCHAR
STARTCHAR 041D
ENCODING 1053
SWIDTH 680 0
DWIDTH 17 0
BBX 13 17 2 0
BITMAP
E018
E018
E018
E018
E018
E018
E018
FFF8
FFF8
E018
E018
E018
E018
E018
E018
E018
E018
ENDCHAR
STARTCHAR 041E
ENCODING 1054
SWIDTH 760 0
DWIDTH 19 0
BBX 17 18 1 0
BITMAP
01E000
0FF800
1F7C00
380E00
300700
700300
600380
600380
E00380
E00380
E00380
600380
600380
700700
380700
3C0E00
1FFC00
07F800
ENDCHAR
STARTCHAR 041F
ENCODING 1055
SWIDTH 680 0
DWIDTH 17 0
BBX 13 17 2 0
BITMAP
FFF8
FFF8
E018
E018
E018
E018
E018
E018
E018
E018
E018
E018
E018
E018
E018
E018
E018
ENDCHAR
STARTCHAR 0420
ENCODING 1056
SWIDTH 600 0
DWIDTH 15 0
BBX 12 17 2 1
BITMAP
FFC0
FFE0
E070
E070
E030
E030
E070
E070
FFE0
FFC0
F800
E000
E000
E000
E000
E000
E000
ENDCHAR
STARTCHAR 0421
ENCODING 1057
SWIDTH 600 0
DWIDTH 15 0
BBX 14 18 1 0
BITMAP
01E0
0FFC
1F38
3800
3000
7000
6000
6000
E000
E000
E000
6000
6000
7000
3800
3C00
1FFC
07F8
ENDCHAR
STARTCHAR 0422
ENCODING 1058
SWIDTH 560 0
DWIDTH 14 0
BBX 14 17 0 0
BITMAP
FFFC
FFFC
0300
0300
0300
0300
0300
0300
0300
0300
0300
0300
0300
0300
0300
0300
0300
ENDCHAR
STARTCHAR 0423
ENCODING 1059
SWIDTH 560 0
DWIDTH 14 0
BBX 13 17 1 0
BITMAP
E018
E038
6038
7030
3070
3860
1860
1CE0
0CC0
0FC0
0780
0780
0300
0700
0E00
FE00
F800
ENDCHAR
STARTCHAR 0424
ENCODING 1060
SWIDTH 840 0
DWIDTH 21 0
BBX 19 18 1 0
BITMAP
006000
006000
0FFE00
1FFF80
3863C0
7060C0
6060E0
E06060
E06060
E06060
6060E0
7060E0
7861C0
3C6780
0FFF00
03FC00
006000
006000
ENDCHAR
STARTCHAR 0425
ENCODING 1061
SWIDTH 600 0
DWIDTH 15 0
BBX 14 17 1 0
BITMAP
E018
7038
3070
3860
1CE0
0DC0
0F80
0780
0780
0FC0
0CC0
1CE0
3870
3030
7038
E018
E01C
ENDCHAR
STARTCHAR 0426
ENCODING 1062
SWIDTH 680 0
DWIDTH 17 0
BBX 16 22 2 -5
BITMAP
E018
E018
E018
E018
E018
E018
E018
E018
E018
E018
E018
E018
E018
E018
E018
FFFF
FFFF
0007
0007
0007
0007
0007
ENDCHAR
STARTCHAR 0427
ENCODING 1063
SWIDTH 600 0
DWIDTH 15 0
BBX 13 17 1 0
BITMAP
E038
E038
E038
E038
E038
E038
6038
6038
7838
3FF8
0FF8
0038
0038
0038
0038
0038
0038
ENDCHAR
STARTCHAR 0428
ENCODING 1064
SWIDTH 960 0
DWIDTH 24 0
BBX 20 17 2 0
BITMAP
E07030
E07030
E07030
E07030
E07030
E07030
E07030
E07030
E07030
E07030
E07030
E07030
E07030
E07030
E07030
FFFFF0
FFFFF0
ENDCHAR
STARTCHAR 0429
ENCODING 1065
SWIDTH 1000 0
DWIDTH 25 0
BBX 23 22 2 -5
BITMAP
E07030
E07030
E07030
E07030
E07030
E07030
E07030
E07030
E07030
E07030
E07030
E07030
E07030
E07030
E07030
FFFFFE
FFFFFE
00000E
00000E
00000E
00000E
00000E
ENDCHAR
STARTCHAR 042A
ENCODING 1066
SWIDTH 720 0
DWIDTH 18 0
BBX 17 17 0 0
BITMAP
FE0000
FE0000
060000
060000
060000
060000
07FC00
07FE00
060700
060380
060180
060180
060180
060380
060700
07FF00
07FC00
ENDCHAR
STARTCHAR 042B
ENCODING 1067
SWIDTH 840 0
DWIDTH 21 0
BBX 17 17 2 0
BITMAP
E00180
E00180
E00180
E00180
E00180
E00180
FF8180
FFE180
E0E180
E07180
E03180
E03180
E03180
E07180
E0E180
FFE180
FF8180
ENDCHAR
STARTCHAR 042C
ENCODING 1068
SWIDTH 600 0
DWIDTH 15 0
BBX 12 17 2 0
BITMAP
E000
E000
E000
E000
E000
E000
FF80
FFE0
E0F0
E070
E030
E030
E030
E070
E0F0
FFE0
FF80
ENDCHAR
STARTCHAR 042D
ENCODING 1069
SWIDTH 600 0
DWIDTH 15 0
BBX 13 18 1 0
BITMAP
3E00
FF80
F7E0
00E0
0070
0030
0038
0038
1FF8
1FF8
0038
0038
0038
0030
0070
80E0
FFC0
FF80
ENDCHAR
STARTCHAR 042E
ENCODING 1070
SWIDTH 1000 0
DWIDTH 25 0
BBX 22 18 2 0
BITMAP
000700
E03FE0
E07DF0
E0E038
E1C038
E1C01C
E1801C
E1800C
FF800C
FF800C
E3800C
E1800C
E1801C
E1C01C
E0E038
E0F070
E07FE0
E01FC0
ENDCHAR
STARTCHAR 042F
ENCODING 1071
SWIDTH 600 0
DWIDTH 15 0
BBX 13 17 1 1
BITMAP
1FF8
3FF8
7038
6038
E038
6038
6038
7038
3FF8
1FF8
0C38
1C38
3838
3038
7038
6038
E038
ENDCHAR
STARTCHAR 0430
ENCODING 1072
SWIDTH 520 0
DWIDTH 13 0
BBX 10 13 1 0
BITMAP
7F00
3F80
01C0
00C0
00C0
1FC0
7FC0
E0C0
E0C0
C0C0
E0C0
7FC0
3FC0
ENDCHAR
STARTCHAR 0431
ENCODING 1073
SWIDTH 560 0
DWIDTH 14 0
BBX 12 19 2 0
BITMAP
07E0
1FE0
3C00
7000
6000
E000
CF00
FFC0
F1E0
C0E0
C060
C070
C070
C070
C060
E060
60E0
7FC0
3F80
ENDCHAR
STARTCHAR 0432
ENCODING 1074
SWIDTH 520 0
DWIDTH 13 0
BBX 11 13 2 0
BITMAP
FF80
FFC0
C0C0
C0C0
C1C0
FF80
FF80
C1C0
C0E0
C0E0
C0E0
FFC0
FF80
ENDCHAR
STARTCHAR 0433
ENCODING 1075
SWIDTH 400 0
DWIDTH 10 0
BBX 8 13 2 0
BITMAP
FF
FF
C0
C0
C0
C0
C0
C0
C0
C0
C0
C0
C0
ENDCHAR
STARTCHAR 0434
ENCODING 1076
SWIDTH 600 0
DWIDTH 15 0
BBX 15 17 0 -4
BITMAP
0FF8
0FF8
0C38
0C38
0C38
0C38
0C38
1C38
1838
1838
3838
FFFE
FFFE
E00E
E00E
E00E
E00E
ENDCHAR
STARTCHAR 0435
ENCODING 1077
SWIDTH 520 0
DWIDTH 13 0
BBX 12 13 1 0
BITMAP
1F80
3FC0
70E0
6060
E060
FFF0
FFF0
E000
E000
6000
7000
3FE0
1FE0
ENDCHAR
STARTCHAR 0436
ENCODING 1078
SWIDTH 760 0
DWIDTH 19 0
BBX 17 13 1 0
BITMAP
E1C380
71C700
39CE00
1DCC00
0DD800
07F000
07F800
0DD800
19CC00
39CE00
71C700
E1C380
C1C180
ENDCHAR
STARTCHAR 0437
ENCODING 1079
SWIDTH 480 0
DWIDTH 12 0
BBX 10 13 1 0
BITMAP
FF00
7F80
0180
01C0
0180
3F80
3F00
0380
01C0
00C0
01C0
FF80
FF00
ENDCHAR
STARTCHAR 0438
ENCODING 1080
SWIDTH 560 0
DWIDTH 14 0
BBX 11 13 2 0
BITMAP
C0E0
C0E0
C1E0
C360
C760
C660
CC60
DC60
D860
F060
F060
E060
C060
ENDCHAR
STARTCHAR 0439
ENCODING 1081
SWIDTH 560 0
DWIDTH 14 0
BBX 11 19 2 0
BITMAP
1100
3180
3F80
1E00
0000
0000
C0E0
C0E0
C1E0
C360
C760
C660
CC60
DC60
D860
F060
F060
E060
C060
ENDCHAR
STARTCHAR 043A
ENCODING 1082
SWIDTH 520 0
DWIDTH 13 0
BBX 11 13 2 0
BITMAP
C1C0
C380
C700
CE00
DC00
F800
FC00
DE00
CF00
C780
C380
C1C0
C0E0
ENDCHAR
STARTCHAR 043B
ENCODING 1083
SWIDTH 560 0
DWIDTH 14 0
BBX 13 13 0 0
BITMAP
0FF8
0FF8
0E18
0E18
0C18
0C18
0C18
0C18
1C18
1818
3818
F018
6018
ENDCHAR
STARTCHAR 043C
ENCODING 1084
SWIDTH 720 0
DWIDTH 18 0
BBX 15 13 2 0
BITMAP
601C
F01C
F03C
D83C
D86C
CC6C
CCCC
CECC
C78C
C78C
C30C
C00E
C00E
ENDCHAR
STARTCHAR 043D
ENCODING 1085
SWIDTH 560 0
DWIDTH 14 0
BBX 11 13 2 0
BITMAP
C0E0
C0E0
C0E0
C0E0
C0E0
FFE0
FFE0
C0E0
C0E0
C0E0
C0E0
C0E0
C0E0
ENDCHAR
STARTCHAR 043E
ENCODING 1086
SWIDTH 560 0
DWIDTH 14 0
BBX 12 13 1 0
BITMAP
1F80
3FE0
7060
6070
E030
E030
E030
E030
E030
6070
7060
3FE0
1FC0
ENDCHAR
STARTCHAR 043F
ENCODING 1087
SWIDTH 560 0
DWIDTH 14 0
BBX 10 13 2 0
BITMAP
FFC0
FFC0
C0C0
C0C0
C0C0
C0C0
C0C0
C0C0
C0C0
C0C0
C0C0
C0C0
C0C0
ENDCHAR
STARTCHAR 0440
ENCODING 1088
SWIDTH 560 0
DWIDTH 14 0
BBX 11 18 2 -5
BITMAP
FF00
FFC0
C1C0
C0E0
C060
C060
C060
C060
C060
C0E0
E0E0
FFC0
FF80
C000
C000
C000
C000
C000
ENDCHAR
STARTCHAR 0441
ENCODING 1089
SWIDTH 440 0
DWIDTH 11 0
BBX 10 13 1 0
BITMAP
1FC0
3FC0
7000
6000
E000
E000
E000
E000
E000
6000
7000
3FC0
1FC0
ENDCHAR
STARTCHAR 0442
ENCODING 1090
SWIDTH 440 0
DWIDTH 11 0
BBX 11 13 0 0
BITMAP
FFE0
FFE0
0600
0600
0600
0600
0600
0600
0600
0600
0600
0600
0600
ENDCHAR
STARTCHAR 0443
ENCODING 1091
SWIDTH 480 0
DWIDTH 12 0
BBX 12 18 0 -5
BITMAP
6070
6070
7060
7060
30E0
38C0
18C0
18C0
1DC0
0D80
0F80
0700
0700
0700
0600
8C00
FC00
7000
ENDCHAR
STARTCHAR 0444
ENCODING 1092
SWIDTH 760 0
DWIDTH 19 0
BBX 17 24 1 -5
BITMAP
01C000
01C000
01C000
01C000
01C000
01C000
0FF800
1FFE00
39CF00
71C700
61C380
E1C380
E1C180
E1C380
61C380
71C700
39CF00
1FFE00
0FF800
01C000
01C000
01C000
01C000
01C000
ENDCHAR
STARTCHAR 0445
ENCODING 1093
SWIDTH 480 0
DWIDTH 12 0
BBX 11 13 1 0
BITMAP
E0E0
61C0
7180
3B80
1F00
1E00
0E00
1F00
3B80
3180
61C0
E0C0
C060
ENDCHAR
STARTCHAR 0446
ENCODING 1094
SWIDTH 560 0
DWIDTH 14 0
BBX 12 17 2 -4
BITMAP
C0C0
C0C0
C0C0
C0C0
C0C0
C0C0
C0C0
C0C0
C0C0
C0C0
C0C0
FFF0
FFF0
0030
0030
0030
0030
ENDCHAR
STARTCHAR 0447
ENCODING 1095
SWIDTH 520 0
DWIDTH 13 0
BBX 10 13 1 0
BITMAP
C0C0
C0C0
C0C0
C0C0
E0C0
E0C0
7FC0
3FC0
00C0
00C0
00C0
00C0
00C0
ENDCHAR
STARTCHAR 0448
ENCODING 1096
SWIDTH 800 0
DWIDTH 20 0
BBX 17 13 2 0
BITMAP
C18380
C18380
C18380
C18380
C18380
C18380
C18380
C18380
C18380
C18380
C18380
FFFF80
FFFF80
ENDCHAR
STARTCHAR 0449
ENCODING 1097
SWIDTH 800 0
DWIDTH 20 0
BBX 18 17 2 -4
BITMAP
C18380
C18380
C18380
C18380
C18380
C18380
C18380
C18380
C18380
C18380
C18380
FFFFC0
FFFFC0
0000C0
0000C0
0000C0
0000C0
ENDCHAR
STARTCHAR 044A
ENCODING 1098
SWIDTH 560 0
DWIDTH 14 0
BBX 14 13 0 0
BITMAP
FC00
FC00
0C00
0C00
0C00
0FF0
0FF8
0C1C
0C0C
0C0C
0C1C
0FF8
0FF0
ENDCHAR
STARTCHAR 044B
ENCODING 1099
SWIDTH 720 0
DWIDTH 18 0
BBX 15 13 2 0
BITMAP
C006
C006
C006
C006
C006
FF06
FFC6
C1C6
C0C6
C0C6
C1C6
FF86
FF06
ENDCHAR
STARTCHAR 044C
ENCODING 1100
SWIDTH 520 0
DWIDTH 13 0
BBX 10 13 2 0
BITMAP
C000
C000
C000
C000
C000
FF80
FFC0
C0C0
C0C0
C0C0
C0C0
FFC0
FF80
ENDCHAR
STARTCHAR 044D
ENCODING 1101
SWIDTH 480 0
DWIDTH 12 0
BBX 10 13 1 0
BITMAP
FE00
FF00
0380
01C0
00C0
3FC0
3FC0
00C0
00C0
01C0
0380
FF00
FE00
ENDCHAR
STARTCHAR 044E
ENCODING 1102
SWIDTH 800 0
DWIDTH 20 0
BBX 17 13 2 0
BITMAP
C0FC00
C1FE00
C38700
C30300
C70380
FF0180
FF0180
C70180
C70380
C30300
C38700
C1FE00
C0FC00
ENDCHAR
STARTCHAR 044F
ENCODING 1103
SWIDTH 520 0
DWIDTH 13 0
BBX 11 13 1 0
BITMAP
3FE0
7FE0
60E0
60E0
60E0
60E0
7FE0
1FE0
38E0
30E0
60E0
E0E0
C0E0
ENDCHAR
STARTCHAR 0450
ENCODING 1104
SWIDTH 520 0
DWIDTH 13 0
BBX 12 19 1 0
BITMAP
0800
0C00
0600
0300
0000
0000
1F80
3FC0
70E0
6060
E060
FFF0
FFF0
E000
E000
6000
7000
3FE0
1FE0
ENDCHAR
STARTCHAR 0451
ENCODING 1105
SWIDTH 520 0
DWIDTH 13 0
BBX 12 18 1 0
BITMAP
39C0
39C0
0080
0000
0000
1F80
3FC0
70E0
6060
E060
FFF0
FFF0
E000
E000
6000
7000
3FE0
1FE0
ENDCHAR
STARTCHAR 0452
ENCODING 1106
SWIDTH 560 0
DWIDTH 14 0
BBX 13 24 0 -5
BITMAP
3000
3000
FF80
FF80
3000
3000
3FC0
3FE0
3070
3030
3030
3030
3038
3038
3038
3038
3038
3038
3038
0030
0030
0070
01F0
01C0
ENDCHAR
STARTCHAR 0453
ENCODING 1107
SWIDTH 400 0
DWIDTH 10 0
BBX 8 19 2 0
BITMAP
06
06
0C
18
00
00
FF
FF
C0
C0
C0
C0
C0
C0
C0
C0
C0
C0
C0
ENDCHAR
STARTCHAR 0454
ENCODING 1108
SWIDTH 480 0
DWIDTH 12 0
BBX 11 13 1 0
BITMAP
1FC0
3FC0
7000
6000
E000
FF00
FF00
E000
E000
6000
7000
3FC0
1FE0
ENDCHAR
STARTCHAR 0455
ENCODING 1109
SWIDTH 440 0
DWIDTH 11 0
BBX 9 13 1 0
BITMAP
3F00
7F00
E000
E000
E000
7800
3E00
0F80
0380
0180
0180
FF80
FF00
ENDCHAR
STARTCHAR 0456
ENCODING 1110
SWIDTH 240 0
DWIDTH 6 0
BBX 3 18 2 0
BITMAP
E0
E0
40
00
00
C0
C0
C0
C0
C0
C0
C0
C0
C0
C0
C0
C0
C0
ENDCHAR
STARTCHAR 0457
ENCODING 1111
SWIDTH 240 0
DWIDTH 6 0
BBX 8 18 -1 0
BITMAP
E7
E7
02
00
00
18
18
18
18
18
18
18
18
18
18
18
18
18
ENDCHAR
STARTCHAR 0458
ENCODING 1112
SWIDTH 240 0
DWIDTH 6 0
BBX 7 23 -2 -5
BITMAP
0E
0E
04
00
00
0C
0C
0C
0C
0C
0C
0C
0C
0C
0C
0C
0C
0C
0C
0C
1C
F8
60
ENDCHAR
STARTCHAR 0459
ENCODING 1113
SWIDTH 840 0
DWIDTH 21 0
BBX 21 13 0 0
BITMAP
0FF800
0FF800
0E1800
0E1800
0C1800
0C1FE0
0C1FF0
0C1838
1C1838
181838
381838
F01FF0
601FE0
ENDCHAR
STARTCHAR 045A
ENCODING 1114
SWIDTH 840 0
DWIDTH 21 0
BBX 19 13 2 0
BITMAP
C0E000
C0E000
C0E000
C0E000
C0E000
FFFF80
FFFFC0
C0E0C0
C0E0E0
C0E0E0
C0E0C0
C0FFC0
C0FF80
ENDCHAR
STARTCHAR 045B
ENCODING 1115
SWIDTH 560 0
DWIDTH 14 0
BBX 13 19 0 0
BITMAP
3000
3000
FF80
FF80
3000
3000
3FC0
3FE0
3070
3030
3030
3030
3038
3038
3038
3038
3038
3038
3038
ENDCHAR
STARTCHAR 045C
ENCODING 1116
SWIDTH 520 0
DWIDTH 13 0
BBX 11 19 2 0
BITMAP
0300
0700
0E00
1C00
0000
0000
C1C0
C380
C700
CE00
DC00
F800
FC00
DE00
CF00
C780
C380
C1C0
C0E0
ENDCHAR
STARTCHAR 045D
ENCODING 1117
SWIDTH 560 0
DWIDTH 14 0
BBX 11 19 2 0
BITMAP
1800
1C00
0C00
0600
0000
0000
C0E0
C0E0
C1E0
C360
C760
C660
CC60
DC60
D860
F060
F060
E060
C060
ENDCHAR
STARTCHAR 045E
ENCODING 1118
SWIDTH 480 0
DWIDTH 12 0
BBX 12 24 0 -5
BITMAP
0880
18C0
1FC0
0780
0000
0000
6070
6070
7060
7060
30E0
38C0
18C0
18C0
1DC0
0D80
0F80
0700
0700
0700
0600
8C00
FC00
7000
ENDCHAR
STARTCHAR 045F
ENCODING 1119
SWIDTH 560 0
DWIDTH 14 0
BBX 10 17 2 -4
BITMAP
C0C0
C0C0
C0C0
C0C0
C0C0
C0C0
C0C0
C0C0
C0C0
C0C0
C0C0
FFC0
FFC0
0C00
0C00
0C00
0C00
ENDCHAR
STARTCHAR 0462
ENCODING 1122
SWIDTH 720 0
DWIDTH 18 0
BBX 17 18 0 0
BITMAP
060000
060000
FFF000
FFF000
060000
060000
060000
07F800
07FE00
060F00
060380
060180
060180
060180
060380
060700
07FF00
07FC00
ENDCHAR
STARTCHAR 0463
ENCODING 1123
SWIDTH 560 0
DWIDTH 14 0
BBX 14 19 0 0
BITMAP
0C00
0C00
0C00
0C00
0C00
0C00
FFE0
FFE0
0C00
0C00
0C00
0FF0
0FF8
0C1C
0C0C
0C0C
0C1C
0FF8
0FF0
ENDCHAR
STARTCHAR 0472
ENCODING 1138
SWIDTH 760 0
DWIDTH 19 0
BBX 17 18 1 0
BITMAP
01E000
0FF800
1F7C00
380E00
300700
700300
600380
600380
FF8380
FFFF80
F07F80
600380
600380
700700
380700
3C0E00
1FFC00
07F800
ENDCHAR
STARTCHAR 0473
ENCODING 1139
SWIDTH 560 0
DWIDTH 14 0
BBX 12 13 1 0
BITMAP
1F80
3FE0
7060
6070
E030
FC30
FFF0
E1F0
E030
6070
7060
3FE0
1FC0
ENDCHAR
STARTCHAR 0474
ENCODING 1140
SWIDTH 720 0
DWIDTH 18 0
BBX 18 18 1 0
BITMAP
000300
C007C0
E00FC0
E00C00
601C00
701800
703800
303800
383000
387000
186000
1C6000
0CE000
0EC000
07C000
078000
078000
038000
ENDCHAR
STARTCHAR 0475
ENCODING 1141
SWIDTH 560 0
DWIDTH 14 0
BBX 13 13 1 0
BITMAP
C078
C0F8
E0C0
E0C0
6180
7180
7180
3300
3B00
1B00
1E00
0E00
0E00
ENDCHAR
STARTCHAR 048A
ENCODING 1162
SWIDTH 720 0
DWIDTH 18 0
BBX 16 27 2 -4
BITMAP
1C60
0FC0
0780
0000
0000
E01C
E03C
E03C
E07C
E0EC
E1CC
E18C
E38C
E70C
EE0C
EC0C
FC0C
F80C
F00C
F00C
E00F
C00F
0003
0007
0006
000C
0004
ENDCHAR
STARTCHAR 048B
ENCODING 1163
SWIDTH 600 0
DWIDTH 15 0
BBX 13 23 2 -4
BITMAP
1100
3180
3F80
0E00
0000
0000
C0E0
C0E0
C1E0
C360
C760
C660
CC60
DC60
D860
F060
F060
E078
C078
0018
0030
0070
0060
ENDCHAR
STARTCHAR 048C
ENCODING 1164
SWIDTH 600 0
DWIDTH 15 0
BBX 15 17 0 0
BITMAP
3800
3800
FF00
3800
3800
3800
3FE0
3FF8
383C
380C
380E
380E
380E
380C
383C
3FF8
3FE0
ENDCHAR
STARTCHAR 048D
ENCODING 1165
SWIDTH 520 0
DWIDTH 13 0
BBX 12 14 0 0
BITMAP
3800
3800
FF00
FF00
3800
3800
3FC0
3FF0
3870
3830
3830
3830
3FF0
3FE0
ENDCHAR
STARTCHAR 048E
ENCODING 1166
SWIDTH 600 0
DWIDTH 15 0
BBX 12 17 2 1
BITMAP
FFC0
FFE0
E070
E070
E030
E030
E630
E770
FFE0
FFC0
FD80
E0C0
E0C0
E000
E000
E000
E000
ENDCHAR
STARTCHAR 048F
ENCODING 1167
SWIDTH 560 0
DWIDTH 14 0
BBX 11 18 2 -5
BITMAP
FF00
FFC0
C1C0
C0E0
C060
C060
C060
C060
C660
C6E0
E3E0
FFC0
FF80
C0C0
C0C0
C000
C000
C000
ENDCHAR
STARTCHAR 0490
ENCODING 1168
SWIDTH 480 0
DWIDTH 12 0
BBX 10 21 2 0
BITMAP
00C0
00C0
00C0
00C0
FFC0
FFC0
E000
E000
E000
E000
E000
E000
E000
E000
E000
E000
E000
E000
E000
E000
E000
ENDCHAR
STARTCHAR 0491
ENCODING 1169
SWIDTH 400 0
DWIDTH 10 0
BBX 8 16 2 0
BITMAP
03
03
03
FF
FF
C0
C0
C0
C0
C0
C0
C0
C0
C0
C0
C0
ENDCHAR
STARTCHAR 0492
ENCODING 1170
SWIDTH 520 0
DWIDTH 13 0
BBX 13 17 0 0
BITMAP
3FF8
3FF8
3800
3800
3800
3800
3800
FF80
FF80
3800
3800
3800
3800
3800
3800
3800
3800
ENDCHAR
STARTCHAR 0493
ENCODING 1171
SWIDTH 400 0
DWIDTH 10 0
BBX 10 13 0 0
BITMAP
3FC0
3FC0
3800
3800
3800
3800
FF00
FF00
3800
3800
3800
3800
3800
ENDCHAR
STARTCHAR 0494
ENCODING 1172
SWIDTH 600 0
DWIDTH 15 0
BBX 13 22 2 -5
BITMAP
FFC0
FFC0
E000
E000
E000
E000
FF00
FFC0
E1E0
E070
E070
E030
E038
E038
E038
E038
E030
0070
00E0
03E0
07C0
0600
ENDCHAR
STARTCHAR 0495
ENCODING 1173
SWIDTH 520 0
DWIDTH 13 0
BBX 11 18 2 -5
BITMAP
FF80
FF80
C000
C000
C000
FF00
FF80
C1C0
C0C0
C0E0
C0E0
C0E0
C0E0
00C0
00C0
03C0
0F80
0C00
ENDCHAR
STARTCHAR 0496
ENCODING 1174
SWIDTH 920 0
DWIDTH 23 0
BBX 22 22 1 -5
BITMAP
E06070
7060E0
3861C0
1C6180
0E6380
076700
036E00
03FC00
03FE00
076F00
0E6700
1C6380
1C61C0
3860E0
706070
E0607C
E0603C
00000C
00000C
00000C
00000C
00000C
ENDCHAR
STARTCHAR 0497
ENCODING 1175
SWIDTH 760 0
DWIDTH 19 0
BBX 18 17 1 -4
BITMAP
E1C380
71C700
39CE00
1DCC00
0DD800
07F000
07F800
0DD800
19CC00
39CE00
71C700
E1C3C0
C1C1C0
0000C0
0000C0
0000C0
0000C0
ENDCHAR
STARTCHAR 0498
ENCODING 1176
SWIDTH 560 0
DWIDTH 14 0
BBX 12 23 1 -5
BITMAP
1E00
FFC0
73E0
00E0
0060
0060
00E0
03C0
1F80
1FC0
00E0
0070
0070
0070
0070
80F0
FFE0
FF80
0400
0E00
0700
1F00
1C00
ENDCHAR
STARTCHAR 0499
ENCODING 1177
SWIDTH 480 0
DWIDTH 12 0
BBX 10 18 1 -5
BITMAP
FF00
7F80
0180
01C0
0180
3F80
3F00
0380
01C0
00C0
01C0
FF80
FF00
0C00
0C00
0600
3E00
3C00
ENDCHAR
STARTCHAR 049A
ENCODING 1178
SWIDTH 640 0
DWIDTH 16 0
BBX 14 22 2 -5
BITMAP
E070
E0E0
E1C0
E380
E700
EE00
FC00
F800
FC00
EE00
E700
E380
E1C0
E0E0
E070
E03C
E03C
000C
000C
000C
000C
000C
ENDCHAR
STARTCHAR 049B
ENCODING 1179
SWIDTH 520 0
DWIDTH 13 0
BBX 12 17 2 -4
BITMAP
C1C0
C380
C700
CE00
DC00
F800
FC00
DE00
CF00
C780
C380
C1F0
C0F0
0070
0070
0070
0070
ENDCHAR
STARTCHAR 049C
ENCODING 1180
SWIDTH 680 0
DWIDTH 17 0
BBX 15 17 2 0
BITMAP
E01C
E038
E030
EC70
ECE0
EDC0
EF80
FF00
FF80
EFC0
EDE0
ECE0
EC70
E038
E01C
E01C
E00E
ENDCHAR
STARTCHAR 049D
ENCODING 1181
SWIDTH 600 0
DWIDTH 15 0
BBX 13 13 2 0
BITMAP
C070
C060
C0C0
CD80
CF80
FF00
FF00
CF80
CDC0
CCE0
C060
C070
C038
ENDCHAR
STARTCHAR 049E
ENCODING 1182
SWIDTH 640 0
DWIDTH 16 0
BBX 16 17 0 0
BITMAP
380E
381C
FE38
3870
38E0
39C0
3B80
3F00
3F00
3BC0
39E0
38F0
3870
3838
381C
380E
3807
ENDCHAR
STARTCHAR 049F
ENCODING 1183
SWIDTH 520 0
DWIDTH 13 0
BBX 13 14 0 0
BITMAP
3800
3838
FC70
FCE0
39C0
3B80
3F00
3F00
3B80
39C0
38E0
3870
3838
3838
ENDCHAR
STARTCHAR 04A0
ENCODING 1184
SWIDTH 720 0
DWIDTH 18 0
BBX 18 17 0 0
BITMAP
FE0380
FE0700
060E00
061C00
063800
067000
06E000
07C000
07E000
06F000
063800
061C00
060E00
060700
060380
060380
0601C0
ENDCHAR
STARTCHAR 04A1
ENCODING 1185
SWIDTH 600 0
DWIDTH 15 0
BBX 15 13 0 0
BITMAP
FC1C
FC38
0C70
0CE0
0DC0
0F80
0F80
0DC0
0CE0
0C70
0C38
0C1C
0C0E
ENDCHAR
STARTCHAR 04A2
ENCODING 1186
SWIDTH 720 0
DWIDTH 18 0
BBX 16 22 2 -5
BITMAP
E018
E018
E018
E018
E018
E018
E018
FFF8
FFF8
E018
E018
E018
E018
E018
E018
E01F
E01F
0007
0007
0007
0007
0007
ENDCHAR
STARTCHAR 04A3
ENCODING 1187
SWIDTH 560 0
DWIDTH 14 0
BBX 12 17 2 -4
BITMAP
C0E0
C0E0
C0E0
C0E0
C0E0
FFE0
FFE0
C0E0
C0E0
C0E0
C0E0
C0F0
C0F0
0030
0030
0030
0030
ENDCHAR
STARTCHAR 04A4
ENCODING 1188
SWIDTH 800 0
DWIDTH 20 0
BBX 18 17 2 0
BITMAP
E01FC0
E01FC0
E01800
E01800
E01800
E01800
E01800
FFF800
FFF800
E01800
E01800
E01800
E01800
E01800
E01800
E01800
E01800
ENDCHAR
STARTCHAR 04A5
ENCODING 1189
SWIDTH 640 0
DWIDTH 16 0
BBX 14 13 2 0
BITMAP
C0FC
C0FC
C0E0
C0E0
C0E0
FFE0
FFE0
C0E0
C0E0
C0E0
C0E0
C0E0
C0E0
ENDCHAR
STARTCHAR 04A6
ENCODING 1190
SWIDTH 1000 0
DWIDTH 25 0
BBX 23 22 2 -5
BITMAP
FFF800
FFF800
E03800
E03800
E03800
E03800
E03FE0
E03FF0
E03878
E0381C
E0380C
E0380E
E0380E
E0380E
E0380E
E0380E
E0380E
00001C
00001C
0000F8
0001F0
000180
ENDCHAR
STARTCHAR 04A7
ENCODING 1191
SWIDTH 840 0
DWIDTH 21 0
BBX 19 18 2 -5
BITMAP
FFC000
FFC000
C0C000
C0C000
C0C000
C0FF00
C0FF80
C0C1C0
C0C0C0
C0C0E0
C0C0E0
C0C0E0
C0C0E0
0000C0
0000C0
0003C0
000F80
000C00
ENDCHAR
STARTCHAR 04A8
ENCODING 1192
SWIDTH 760 0
DWIDTH 19 0
BBX 17 23 1 -5
BITMAP
01E000
0FF800
1FB800
3C0000
300000
703E00
60FF00
60E380
E1C380
E1C180
E1C180
618180
718180
71C380
39C300
3DCF00
0FFE00
07F800
006000
007000
003E00
000F00
000100
ENDCHAR
STARTCHAR 04A9
ENCODING 1193
SWIDTH 600 0
DWIDTH 15 0
BBX 13 16 1 -4
BITMAP
1F80
3F00
7000
60E0
E3F0
E338
E618
E618
E618
6638
7630
3FF0
1FC0
0380
01E0
00F0
ENDCHAR
STARTCHAR 04AA
ENCODING 1194
SWIDTH 600 0
DWIDTH 15 0
BBX 14 23 1 -5
BITMAP
01E0
0FFC
1F38
3800
3000
7000
6000
6000
E000
E000
E000
6000
6000
7000
3800
3C00
1FFC
07F8
0180
0180
00C0
07C0
0380
ENDCHAR
STARTCHAR 04AB
ENCODING 1195
SWIDTH 440 0
DWIDTH 11 0
BBX 10 18 1 -5
BITMAP
1FC0
3FC0
7000
6000
E000
E000
E000
E000
E000
6000
7000
3FC0
1FC0
0600
0700
0300
0F00
0E00
ENDCHAR
STARTCHAR 04AC
ENCODING 1196
SWIDTH 560 0
DWIDTH 14 0
BBX 14 22 0 -5
BITMAP
FFFC
FFFC
0300
0300
0300
0300
0300
0300
0300
0300
0300
0300
0300
0300
0300
03E0
03E0
00E0
00E0
00E0
00E0
00E0
ENDCHAR
STARTCHAR 04AD
ENCODING 1197
SWIDTH 440 0
DWIDTH 11 0
BBX 11 17 0 -4
BITMAP
FFE0
FFE0
0600
0600
0600
0600
0600
0600
0600
0600
0600
0780
0780
0380
0380
0380
0380
ENDCHAR
STARTCHAR 04AE
ENCODING 1198
SWIDTH 560 0
DWIDTH 14 0
BBX 13 17 1 0
BITMAP
C018
E038
6030
7070
3060
38E0
1DC0
0D80
0F80
0700
0700
0700
0700
0700
0700
0700
0700
ENDCHAR
STARTCHAR 04AF
ENCODING 1199
SWIDTH 480 0
DWIDTH 12 0
BBX 11 18 1 -5
BITMAP
C060
C0E0
E0C0
E0C0
61C0
7180
7180
3380
3B00
1B00
1E00
0E00
0E00
0C00
0C00
0C00
0C00
0C00
ENDCHAR
STARTCHAR 04B0
ENCODING 1200
SWIDTH 560 0
DWIDTH 14 0
BBX 13 17 1 0
BITMAP
C018
E038
6030
7070
3060
38C0
1DC0
0D80
0F80
0700
3FE0
3FE0
0700
0700
0700
0700
0700
ENDCHAR
STARTCHAR 04B1
ENCODING 1201
SWIDTH 480 0
DWIDTH 12 0
BBX 11 18 1 -5
BITMAP
C060
C0E0
E0C0
E0C0
61C0
7180
3180
3380
3B00
1B00
1E00
7FC0
7FC0
0C00
0C00
0C00
0C00
0C00
ENDCHAR
STARTCHAR 04B2
ENCODING 1202
SWIDTH 640 0
DWIDTH 16 0
BBX 15 22 1 -5
BITMAP
E018
7038
3070
3860
1CE0
0DC0
0F80
0780
0780
0FC0
0CC0
1CE0
3870
3030
7038
E01E
E01E
0006
0006
0006
0006
0006
ENDCHAR
STARTCHAR 04B3
ENCODING 1203
SWIDTH 520 0
DWIDTH 13 0
BBX 12 17 1 -4
BITMAP
E0E0
61C0
7180
3B80
1F00
1E00
0E00
1F00
3B80
3180
61C0
E0F0
C070
0030
0030
0030
0030
ENDCHAR
STARTCHAR 04B4
ENCODING 1204
SWIDTH 840 0
DWIDTH 21 0
BBX 21 22 0 -5
BITMAP
FFF8E0
FFF8E0
0700E0
0700E0
0700E0
0700E0
0700E0
0700E0
0700E0
0700E0
0700E0
0700E0
0700E0
0700E0
0700E0
07FFF8
07FFF8
000038
000038
000038
000038
000038
ENDCHAR
STARTCHAR 04B5
ENCODING 1205
SWIDTH 640 0
DWIDTH 16 0
BBX 16 17 0 -4
BITMAP
FFCC
FFCC
0C0C
0C0C
0C0C
0C0C
0C0C
0C0C
0C0C
0C0C
0C0C
0FFF
0FFF
0003
0003
0003
0003
ENDCHAR
STARTCHAR 04B6
ENCODING 1206
SWIDTH 640 0
DWIDTH 16 0
BBX 15 22 1 -5
BITMAP
E038
E038
E038
E038
E038
E038
6038
6038
7838
3FF8
0FF8
0038
0038
0038
0038
003E
003E
000E
000E
000E
000E
000E
ENDCHAR
STARTCHAR 04B7
ENCODING 1207
SWIDTH 520 0
DWIDTH 13 0
BBX 12 17 1 -4
BITMAP
C0C0
C0C0
C0C0
C0C0
E0C0
E0C0
7FC0
3FC0
00C0
00C0
00C0
00F0
00F0
0030
0030
0030
0030
ENDCHAR
STARTCHAR 04B8
ENCODING 1208
SWIDTH 600 0
DWIDTH 15 0
BBX 13 17 1 0
BITMAP
E038
E038
E038
E038
E038
E038
6338
6338
7B38
3FF8
1FF8
0338
0338
0338
0038
0038
0038
ENDCHAR
STARTCHAR 04B9
ENCODING 1209
SWIDTH 520 0
DWIDTH 13 0
BBX 10 13 1 0
BITMAP
C0C0
C0C0
C0C0
C0C0
CCC0
ECC0
7FC0
7FC0
0CC0
0CC0
0CC0
00C0
00C0
ENDCHAR
STARTCHAR 04BA
ENCODING 1210
SWIDTH 600 0
DWIDTH 15 0
BBX 13 17 2 0
BITMAP
E000
E000
E000
E000
E000
E000
FFC0
FFE0
E070
E030
E030
E038
E038
E038
E038
E038
E038
ENDCHAR
STARTCHAR 04BB
ENCODING 1211
SWIDTH 560 0
DWIDTH 14 0
BBX 11 19 2 0
BITMAP
C000
C000
C000
C000
C000
C000
FF00
FF80
C1C0
C0C0
C0C0
C0C0
C0E0
C0E0
C0E0
C0E0
C0E0
C0E0
C0E0
ENDCHAR
STARTCHAR 04BC
ENCODING 1212
SWIDTH 800 0
DWIDTH 20 0
BBX 19 18 0 0
BITMAP
001C00
00FF80
01E7C0
0381C0
0300E0
C70060
C70060
660060
7FFFE0
3FFFE0
060000
060000
070000
070000
038000
03C040
01FFC0
007FC0
ENDCHAR
STARTCHAR 04BD
ENCODING 1213
SWIDTH 640 0
DWIDTH 16 0
BBX 15 13 0 0
BITMAP
01F8
03FC
C70E
C606
EE06
7FFE
3FFE
0E00
0E00
0600
0700
03FC
01FC
ENDCHAR
STARTCHAR 04BE
ENCODING 1214
SWIDTH 800 0
DWIDTH 20 0
BBX 19 23 0 -5
BITMAP
001C00
00FF80
01E7C0
0381C0
0300E0
C70060
C70060
660060
7FFFE0
3FFFE0
060000
060000
070000
070000
038000
03C040
01FFC0
007FC0
001800
001800
001800
001800
001800
ENDCHAR
STARTCHAR 04BF
ENCODING 1215
SWIDTH 640 0
DWIDTH 16 0
BBX 15 17 0 -4
BITMAP
01F8
03FC
C70E
C606
EE06
7FFE
3FFE
0E00
0E00
0600
0700
03FC
01FC
0060
0060
0060
0060
ENDCHAR
STARTCHAR 04C0
ENCODING 1216
SWIDTH 240 0
DWIDTH 6 0
BBX 3 17 2 0
BITMAP
E0
E0
E0
E0
E0
E0
E0
E0
E0
E0
E0
E0
E0
E0
E0
E0
E0
ENDCHAR
STARTCHAR 04C1
ENCODING 1217
SWIDTH 880 0
DWIDTH 22 0
BBX 21 22 1 1
BITMAP
018C00
01FC00
00F000
000000
000000
E06070
7060E0
3860C0
1C61C0
0E6380
076700
036E00
03FC00
03FE00
076F00
0E6700
1C6380
1C61C0
3860E0
706070
E06070
E06038
ENDCHAR
STARTCHAR 04C2
ENCODING 1218
SWIDTH 760 0
DWIDTH 19 0
BBX 17 19 1 0
BITMAP
022000
063000
07F000
01E000
000000
000000
E1C380
71C700
39CE00
1DCC00
0DD800
07F000
07F800
0DD800
19CC00
39CE00
71C700
E1C380
C1C180
ENDCHAR
STARTCHAR 04C3
ENCODING 1219
SWIDTH 600 0
DWIDTH 15 0
BBX 13 22 2 -5
BITMAP
E070
E0E0
E1C0
E380
E700
E600
EC00
FE00
FFC0
E1E0
E070
E030
E038
E038
E038
E038
E030
0070
0070
03E0
07C0
0600
ENDCHAR
STARTCHAR 04C4
ENCODING 1220
SWIDTH 520 0
DWIDTH 13 0
BBX 11 18 2 -5
BITMAP
C0C0
C180
C300
C600
CC00
FC00
FF80
C3C0
C0C0
C0E0
C0E0
C0E0
C0E0
00E0
00C0
03C0
0F80
0C00
ENDCHAR
STARTCHAR 04C5
ENCODING 1221
SWIDTH 720 0
DWIDTH 18 0
BBX 18 22 0 -5
BITMAP
03FF00
03FF00
030700
030700
030700
030700
070700
070700
070700
070700
060700
060700
0E0700
0C0700
3C0700
F807C0
F007C0
000180
000180
000380
000700
000200
ENDCHAR
STARTCHAR 04C6
ENCODING 1222
SWIDTH 600 0
DWIDTH 15 0
BBX 15 17 0 -4
BITMAP
0FF8
0FF8
0E18
0E18
0C18
0C18
0C18
0C18
1C18
1818
3818
F01E
601E
0006
000C
001C
0018
ENDCHAR
STARTCHAR 04C7
ENCODING 1223
SWIDTH 680 0
DWIDTH 17 0
BBX 13 22 2 -5
BITMAP
E018
E018
E018
E018
E018
E018
E018
FFF8
FFF8
E018
E018
E018
E018
E018
E018
E018
E018
0018
0018
0038
00F8
00E0
ENDCHAR
STARTCHAR 04C8
ENCODING 1224
SWIDTH 560 0
DWIDTH 14 0
BBX 11 18 2 -5
BITMAP
C0E0
C0E0
C0E0
C0E0
C0E0
FFE0
FFE0
C0E0
C0E0
C0E0
C0E0
C0E0
C0E0
00E0
00E0
00C0
07C0
0700
ENDCHAR
STARTCHAR 04C9
ENCODING 1225
SWIDTH 720 0
DWIDTH 18 0
BBX 16 22 2 -5
BITMAP
E018
E018
E018
E018
E018
E018
E018
FFF8
FFF8
E018
E018
E018
E018
E018
E018
E01F
E01F
0006
0006
000C
001C
0008
ENDCHAR
STARTCHAR 04CA
ENCODING 1226
SWIDTH 560 0
DWIDTH 14 0
BBX 13 17 2 -4
BITMAP
C0E0
C0E0
C0E0
C0E0
C0E0
FFE0
FFE0
C0E0
C0E0
C0E0
C0E0
C0F8
C0F8
0038
0030
0070
0060
ENDCHAR
STARTCHAR 04CB
ENCODING 1227
SWIDTH 600 0
DWIDTH 15 0
BBX 12 22 2 -5
BITMAP
C070
C070
C070
C070
C070
C070
C070
E070
F070
7FF0
1FF0
0070
0070
0070
0070
01F0
01F0
01C0
01C0
01C0
01C0
01C0
ENDCHAR
STARTCHAR 04CC
ENCODING 1228
SWIDTH 520 0
DWIDTH 13 0
BBX 10 17 1 -4
BITMAP
C0C0
C0C0
C0C0
C0C0
E0C0
E0C0
7FC0
3FC0
00C0
00C0
00C0
03C0
03C0
0300
0300
0300
0300
ENDCHAR
STARTCHAR 04CD
ENCODING 1229
SWIDTH 880 0
DWIDTH 22 0
BBX 20 22 2 -5
BITMAP
700380
700380
780780
780780
FC0F80
EC0D80
EE1D80
E619C0
C639C0
C331C0
C371C0
C1E0C0
C1E0C0
C1C0C0
C0C0C0
C000F0
C000F0
000030
000070
000060
0000C0
000040
ENDCHAR
STARTCHAR 04CE
ENCODING 1230
SWIDTH 720 0
DWIDTH 18 0
BBX 17 17 2 -4
BITMAP
601C00
F01C00
F03C00
D83C00
D86C00
CC6C00
CCCC00
CECC00
C78C00
C78C00
C30C00
C00F80
C00F80
000300
000300
000600
000600
ENDCHAR
STARTCHAR 04CF
ENCODING 1231
SWIDTH 240 0
DWIDTH 6 0
BBX 3 17 2 0
BITMAP
E0
E0
E0
E0
E0
E0
E0
E0
E0
E0
E0
E0
E0
E0
E0
E0
E0
ENDCHAR
STARTCHAR 04D0
ENCODING 1232
SWIDTH 640 0
DWIDTH 16 0
BBX 16 22 0 1
BITMAP
0630
07F0
03C0
0000
0000
01C0
03C0
03E0
0760
0670
0670
0E30
0C38
1C18
181C
181C
3FFC
3FFE
700E
7006
6007
E003
ENDCHAR
STARTCHAR 04D1
ENCODING 1233
SWIDTH 520 0
DWIDTH 13 0
BBX 10 19 1 0
BITMAP
1000
3180
3F80
0F00
0000
0000
7F00
3F80
01C0
00C0
00C0
1FC0
7FC0
E0C0
E0C0
C0C0
E0C0
7FC0
3FC0
ENDCHAR
STARTCHAR 04D2
ENCODING 1234
SWIDTH 640 0
DWIDTH 16 0
BBX 16 22 0 0
BITMAP
0670
0E70
0420
0000
0000
01C0
03C0
03E0
0760
0670
0670
0E30
0C38
1C18
181C
181C
3FFC
3FFE
700E
7006
6007
E003
ENDCHAR
STARTCHAR 04D3
ENCODING 1235
SWIDTH 520 0
DWIDTH 13 0
BBX 10 18 1 0
BITMAP
3980
3980
0080
0000
0000
7F00
3F80
01C0
00C0
00C0
1FC0
7FC0
E0C0
E0C0
C0C0
E0C0
7FC0
3FC0
ENDCHAR
STARTCHAR 04D4
ENCODING 1236
SWIDTH 920 0
DWIDTH 23 0
BBX 22 17 0 0
BITMAP
003FFC
007FFC
006C00
00EC00
01CC00
018C00
038C00
030FF8
060FF8
0E0C00
0C0C00
1FFC00
1FFC00
380C00
700C00
600FFC
E00FFC
ENDCHAR
STARTCHAR 04D5
ENCODING 1237
SWIDTH 840 0
DWIDTH 21 0
BBX 19 13 1 0
BITMAP
7F1F80
3FBFC0
01F0C0
00E0E0
00C060
1FFFE0
7FFFE0
E0C000
E0C000
C0E000
E07000
7FFFC0
3F9FC0
ENDCHAR
STARTCHAR 04D6
ENCODING 1238
SWIDTH 560 0
DWIDTH 14 0
BBX 11 22 2 1
BITMAP
3180
3F00
1E00
0000
0000
FFE0
FFE0
E000
E000
E000
E000
E000
FFC0
FFC0
E000
E000
E000
E000
E000
E000
FFE0
FFE0
ENDCHAR
STARTCHAR 04D7
ENCODING 1239
SWIDTH 520 0
DWIDTH 13 0
BBX 12 18 1 1
BITMAP
38C0
1F80
0F00
0000
0000
1F80
3FC0
70E0
6060
E060
FFF0
FFF0
E000
E000
6000
7000
3FE0
1FE0
ENDCHAR
STARTCHAR 04D8
ENCODING 1240
SWIDTH 680 0
DWIDTH 17 0
BBX 15 18 1 0
BITMAP
0F80
3FF0
39F8
003C
001C
000E
000E
000E
0006
FFFE
FFFE
E00E
600E
600C
701C
3838
1FF8
0FE0
ENDCHAR
STARTCHAR 04D9
ENCODING 1241
SWIDTH 520 0
DWIDTH 13 0
BBX 12 13 1 0
BITMAP
7F80
7FC0
00E0
0060
0060
0070
FFF0
FFF0
E060
6060
70E0
3FC0
1F80
ENDCHAR
STARTCHAR 04DA
ENCODING 1242
SWIDTH 680 0
DWIDTH 17 0
BBX 15 22 1 0
BITMAP
0C60
0EE0
0440
0000
0F80
3FF0
39F8
003C
001C
000E
000E
000E
0006
FFFE
FFFE
E00E
600E
600C
701C
3838
1FF8
0FE0
ENDCHAR
STARTCHAR 04DB
ENCODING 1243
SWIDTH 520 0
DWIDTH 13 0
BBX 12 18 1 0
BITMAP
39C0
39C0
1000
0000
0000
7F80
7FC0
00E0
0060
0060
0070
FFF0
FFF0
E060
6060
70E0
3FC0
1F80
ENDCHAR
STARTCHAR 04DC
ENCODING 1244
SWIDTH 880 0
DWIDTH 22 0
BBX 21 22 1 0
BITMAP
019C00
039C00
010800
000000
000000
E06070
7060E0
3860C0
1C61C0
0E6380
076700
036E00
03FC00
03FE00
076F00
0E6700
1C6380
1C61C0
3860E0
706070
E06070
E06038
ENDCHAR
STARTCHAR 04DD
ENCODING 1245
SWIDTH 760 0
DWIDTH 19 0
BBX 17 18 1 0
BITMAP
063000
077000
000000
000000
000000
E1C380
71C700
39CE00
1DCC00
0DD800
07F000
07F800
0DD800
19CC00
39CE00
71C700
E1C380
C1C180
ENDCHAR
STARTCHAR 04DE
ENCODING 1246
SWIDTH 560 0
DWIDTH 14 0
BBX 12 22 1 0
BITMAP
3380
3380
0100
0000
1E00
FFC0
73E0
00E0
0060
0060
00E0
03C0
1F80
1FC0
00E0
0070
0070
0070
0070
80F0
FFE0
FFC0
ENDCHAR
STARTCHAR 04DF
ENCODING 1247
SWIDTH 480 0
DWIDTH 12 0
BBX 10 18 1 0
BITMAP
7300
7380
2000
0000
0000
FF00
7F80
0180
01C0
0180
3F80
3F00
0380
01C0
00C0
01C0
FF80
FF00
ENDCHAR
STARTCHAR 04E0
ENCODING 1248
SWIDTH 560 0
DWIDTH 14 0
BBX 12 17 1 0
BITMAP
FFF0
FFE0
00E0
01C0
0380
0700
0E00
0F00
0FC0
00E0
0070
0070
0070
0070
80E0
FFE0
FF80
ENDCHAR
STARTCHAR 04E1
ENCODING 1249
SWIDTH 440 0
DWIDTH 11 0
BBX 11 18 0 -5
BITMAP
FFC0
FFC0
0180
0380
0700
0600
0C00
1E00
1F80
03C0
00E0
00E0
00E0
00E0
01C0
E7C0
FF80
1800
ENDCHAR
STARTCHAR 04E2
ENCODING 1250
SWIDTH 720 0
DWIDTH 18 0
BBX 14 22 2 0
BITMAP
0FE0
0FE0
0000
0000
0000
E01C
E03C
E03C
E07C
E0EC
E1CC
E18C
E38C
E70C
EE0C
EC0C
FC0C
F80C
F00C
F00C
E00C
C00C
ENDCHAR
STARTCHAR 04E3
ENCODING 1251
SWIDTH 560 0
DWIDTH 14 0
BBX 11 18 2 0
BITMAP
3F80
3F80
0000
0000
0000
C0E0
C0E0
C1E0
C360
C760
C660
CC60
DC60
D860
F060
F060
E060
C060
ENDCHAR
STARTCHAR 04E4
ENCODING 1252
SWIDTH 720 0
DWIDTH 18 0
BBX 14 22 2 0
BITMAP
1CE0
1CE0
0840
0000
0000
E01C
E03C
E03C
E07C
E0EC
E1CC
E18C
E38C
E70C
EE0C
EC0C
FC0C
F80C
F00C
F00C
E00C
C00C
ENDCHAR
STARTCHAR 04E5
ENCODING 1253
SWIDTH 560 0
DWIDTH 14 0
BBX 11 18 2 0
BITMAP
3180
3B80
0000
0000
0000
C0E0
C0E0
C1E0
C360
C760
C660
CC60
DC60
D860
F060
F060
E060
C060
ENDCHAR
STARTCHAR 04E6
ENCODING 1254
SWIDTH 760 0
DWIDTH 19 0
BBX 17 22 1 0
BITMAP
073000
073800
021000
000000
01E000
0FF800
1F7C00
380E00
300700
700300
600380
600380
E00380
E00380
E00380
600380
600380
700700
380700
3C0E00
1FFC00
07F800
ENDCHAR
STARTCHAR 04E7
ENCODING 1255
SWIDTH 560 0
DWIDTH 14 0
BBX 12 18 1 0
BITMAP
19C0
19C0
0800
0000
0000
1F80
3FE0
7060
6070
E030
E030
E030
E030
E030
6070
7060
3FE0
1FC0
ENDCHAR
STARTCHAR 04E8
ENCODING 1256
SWIDTH 760 0
DWIDTH 19 0
BBX 17 18 1 0
BITMAP
01E000
0FF800
1F7C00
380E00
300700
700300
600380
600380
FFFF80
FFFF80
E00380
600380
700380
700700
380700
3C0E00
1FFC00
07F800
ENDCHAR
STARTCHAR 04E9
ENCODING 1257
SWIDTH 560 0
DWIDTH 14 0
BBX 12 13 1 0
BITMAP
1F80
3FE0
7060
6070
E030
FFF0
FFF0
E030
E030
6070
7060
3FE0
1FC0
ENDCHAR
STARTCHAR 04EA
ENCODING 1258
SWIDTH 760 0
DWIDTH 19 0
BBX 17 22 1 0
BITMAP
073000
073800
021000
000000
01E000
0FF800
1F7C00
380E00
300700
700300
600380
600380
FFFF80
FFFF80
E00380
600380
700380
700700
380700
3C0E00
1FFC00
07F800
ENDCHAR
STARTCHAR 04EB
ENCODING 1259
SWIDTH 560 0
DWIDTH 14 0
BBX 12 18 1 0
BITMAP
19C0
19C0
0880
0000
0000
1F80
3FE0
7060
6070
E030
FFF0
FFF0
E030
E030
6070
7060
3FE0
1FC0
ENDCHAR
STARTCHAR 04EC
ENCODING 1260
SWIDTH 600 0
DWIDTH 15 0
BBX 13 22 1 0
BITMAP
3380
7380
2100
0000
3E00
FF80
F7E0
00E0
0070
0030
0038
0038
1FF8
1FF8
0038
0038
0038
0030
0070
80E0
FFC0
FF80
ENDCHAR
STARTCHAR 04ED
ENCODING 1261
SWIDTH 480 0
DWIDTH 12 0
BBX 10 18 1 0
BITMAP
E700
E700
0200
0000
0000
FE00
FF00
0380
01C0
00C0
3FC0
3FC0
00C0
00C0
01C0
0380
FF00
FE00
ENDCHAR
STARTCHAR 04EE
ENCODING 1262
SWIDTH 560 0
DWIDTH 14 0
BBX 13 22 1 0
BITMAP
1FC0
1FC0
0000
0000
0000
E018
E038
6038
7030
3070
3860
1860
1CE0
0CC0
0FC0
0780
0780
0300
0700
0E00
FE00
F800
ENDCHAR
STARTCHAR 04EF
ENCODING 1263
SWIDTH 480 0
DWIDTH 12 0
BBX 12 23 0 -5
BITMAP
1FC0
1FC0
0000
0000
0000
6070
6070
7060
7060
30E0
38C0
18C0
18C0
1DC0
0D80
0F80
0700
0700
0700
0600
8C00
FC00
7000
ENDCHAR
STARTCHAR 04F0
ENCODING 1264
SWIDTH 560 0
DWIDTH 14 0
BBX 13 22 1 0
BITMAP
1CC0
1CC0
0840
0000
0000
E018
E038
6038
7030
3070
3860
1860
1CE0
0CC0
0FC0
0780
0780
0300
0700
0E00
FE00
F800
ENDCHAR
STARTCHAR 04F1
ENCODING 1265
SWIDTH 480 0
DWIDTH 12 0
BBX 12 23 0 -5
BITMAP
18C0
1DC0
0000
0000
0000
6070
6070
7060
7060
30E0
38C0
18C0
18C0
1DC0
0D80
0F80
0700
0700
0700
0600
8C00
FC00
7000
ENDCHAR
STARTCHAR 04F2
ENCODING 1266
SWIDTH 560 0
DWIDTH 14 0
BBX 13 23 1 0
BITMAP
0220
0670
0EE0
0CC0
0000
0000
E018
E038
6038
7030
3070
3860
1860
1CE0
0CC0
0FC0
0780
0780
0300
0700
0E00
FE00
F800
ENDCHAR
STARTCHAR 04F3
ENCODING 1267
SWIDTH 480 0
DWIDTH 12 0
BBX 12 24 0 -5
BITMAP
0220
0660
0CC0
18C0
0000
0000
6070
6070
7060
7060
30E0
38C0
18C0
18C0
1DC0
0D80
0F80
0700
0700
0700
0600
8C00
FC00
7000
ENDCHAR
STARTCHAR 04F4
ENCODING 1268
SWIDTH 600 0
DWIDTH 15 0
BBX 13 22 1 0
BITMAP
1CC0
1CE0
0840
0000
0000
E038
E038
E038
E038
E038
E038
6038
6038
7838
3FF8
0FF8
0038
0038
0038
0038
0038
0038
ENDCHAR
STARTCHAR 04F5
ENCODING 1269
SWIDTH 520 0
DWIDTH 13 0
BBX 10 18 1 0
BITMAP
3380
7380
0100
0000
0000
C0C0
C0C0
C0C0
C0C0
E0C0
E0C0
7FC0
3FC0
00C0
00C0
00C0
00C0
00C0
ENDCHAR
STARTCHAR 04F6
ENCODING 1270
SWIDTH 480 0
DWIDTH 12 0
BBX 10 22 2 -5
BITMAP
FFC0
FFC0
E000
E000
E000
E000
E000
E000
E000
E000
E000
E000
E000
E000
E000
F800
F800
3800
3800
3800
3800
3800
ENDCHAR
STARTCHAR 04F7
ENCODING 1271
SWIDTH 400 0
DWIDTH 10 0
BBX 8 17 2 -4
BITMAP
FF
FF
C0
C0
C0
C0
C0
C0
C0
C0
C0
F0
F0
30
30
30
30
ENDCHAR
STARTCHAR 04F8
ENCODING 1272
SWIDTH 840 0
DWIDTH 21 0
BBX 17 22 2 0
BITMAP
073000
073800
021000
000000
000000
E00180
E00180
E00180
E00180
E00180
E00180
FF8180
FFE180
E0E180
E07180
E03180
E03180
E03180
E07180
E0E180
FFE180
FF8180
ENDCHAR
STARTCHAR 04F9
ENCODING 1273
SWIDTH 720 0
DWIDTH 18 0
BBX 15 18 2 0
BITMAP
0C60
0EE0
0000
0000
0000
C006
C006
C006
C006
C006
FF06
FFC6
C1C6
C0C6
C0C6
C1C6
FF86
FF06
ENDCHAR
STARTCHAR 1E80
ENCODING 7808
SWIDTH 920 0
DWIDTH 23 0
BBX 21 23 1 0
BITMAP
00C000
00E000
006000
003000
000000
000000
C00018
E00018
E07018
E07038
607838
60F830
70D830
70DC30
71CC70
318C60
318E60
3B0660
3B06E0
1B07C0
1E03C0
1E03C0
0E0180
ENDCHAR
STARTCHAR 1E81
ENCODING 7809
SWIDTH 760 0
DWIDTH 19 0
BBX 18 19 1 0
BITMAP
030000
038000
01C000
00C000
000000
000000
C0C1C0
C1C1C0
E1C180
E1E180
61E380
636300
736300
333300
363600
3E3600
1E1E00
1C1C00
0C1C00
ENDCHAR
STARTCHAR 1E82
ENCODING 7810
SWIDTH 920 0
DWIDTH 23 0
BBX 21 23 1 0
BITMAP
001800
001800
003000
006000
000000
000000
C00018
E00018
E07018
E07038
607838
60F830
70D830
70DC30
71CC70
318C60
318E60
3B0660
3B06E0
1B07C0
1E03C0
1E03C0
0E0180
ENDCHAR
STARTCHAR 1E83
ENCODING 7811
SWIDTH 760 0
DWIDTH 19 0
BBX 18 19 1 0
BITMAP
006000
006000
00C000
018000
000000
000000
C0C1C0
C1C1C0
E1C180
E1E180
61E380
636300
736300
333300
363600
3E3600
1E1E00
1C1C00
0C1C00
ENDCHAR
STARTCHAR 1E84
ENCODING 7812
SWIDTH 920 0
DWIDTH 23 0
BBX 21 22 1 0
BITMAP
018C00
01CC00
008000
000000
000000
C00018
E00018
E07018
E07038
607838
60F830
70D830
70DC30
71CC70
318C60
318E60
3B0660
3B06E0
1B07C0
1E03C0
1E03C0
0E0180
ENDCHAR
STARTCHAR 1E85
ENCODING 7813
SWIDTH 760 0
DWIDTH 19 0
BBX 18 18 1 0
BITMAP
073000
073000
020000
000000
000000
C0C1C0
C1C1C0
E1C180
E1E180
61E380
636300
736300
333300
363600
3E3600
1E1E00
1C1C00
0C1C00
ENDCHAR
STARTCHAR 1EF2
ENCODING 7922
SWIDTH 560 0
DWIDTH 14 0
BBX 13 23 1 0
BITMAP
0C00
0C00
0600
0300
0000
0000
C018
E038
6030
7070
3060
38E0
1DC0
0D80
0F80
0700
0700
0700
0700
0700
0700
0700
0700
ENDCHAR
STARTCHAR 1EF3
ENCODING 7923
SWIDTH 480 0
DWIDTH 12 0
BBX 12 24 0 -5
BITMAP
0C00
0E00
0600
0300
0000
0000
6070
6070
7060
7060
30E0
38C0
18C0
18C0
1DC0
0D80
0F80
0700
0700
0700
0600
8C00
FC00
7000
ENDCHAR
STARTCHAR 1F00
ENCODING 7936
SWIDTH 600 0
DWIDTH 15 0
BBX 14 19 1 1
BITMAP
0300
0300
0300
0600
0000
0000
1FF0
3FF0
7070
6070
E070
E070
E070
E070
E070
6070
7070
3FFC
1F98
ENDCHAR
STARTCHAR 1F01
ENCODING 7937
SWIDTH 600 0
DWIDTH 15 0
BBX 14 19 1 1
BITMAP
0700
0600
0600
0300
0000
0000
1FF0
3FF0
7070
6070
E070
E070
E070
E070
E070
6070
7070
3FFC
1F98
ENDCHAR
STARTCHAR 1F02
ENCODING 7938
SWIDTH 600 0
DWIDTH 15 0
BBX 14 20 1 0
BITMAP
0800
1D80
1DC0
08C0
1860
0000
0000
1FF0
3FF0
7070
6070
E070
E070
E070
E070
E070
6070
7070
3FFC
1F98
ENDCHAR
STARTCHAR 1F03
ENCODING 7939
SWIDTH 600 0
DWIDTH 15 0
BBX 14 19 1 1
BITMAP
3B00
3B80
3180
18C0
0800
0000
1FF0
3FF0
7070
6070
E070
E070
E070
E070
E070
6070
7070
3FFC
1F98
ENDCHAR
STARTCHAR 1F04
ENCODING 7940
SWIDTH 600 0
DWIDTH 15 0
BBX 14 20 1 0
BITMAP
0400
0E60
0EE0
04C0
0D80
0800
0000
1FF0
3FF0
7070
6070
E070
E070
E070
E070
E070
6070
7070
3FFC
1F98
ENDCHAR
STARTCHAR 1F05
ENCODING 7941
SWIDTH 600 0
DWIDTH 15 0
BBX 14 19 1 1
BITMAP
3860
38C0
19C0
0D80
0000
0000
1FF0
3FF0
7070
6070
E070
E070
E070
E070
E070
6070
7070
3FFC
1F98
ENDCHAR
STARTCHAR 1F06
ENCODING 7942
SWIDTH 600 0
DWIDTH 15 0
BBX 14 22 1 0
BITMAP
0780
0F80
18C0
0300
0700
0300
0600
0000
0000
1FF0
3FF0
7070
6070
E070
E070
E070
E070
E070
6070
7070
3FFC
1F98
ENDCHAR
STARTCHAR 1F07
ENCODING 7943
SWIDTH 600 0
DWIDTH 15 0
BBX 14 22 1 0
BITMAP
0780
0F80
18C0
0200
0700
0600
0300
0000
0000
1FF0
3FF0
7070
6070
E070
E070
E070
E070
E070
6070
7070
3FFC
1F98
ENDCHAR
STARTCHAR 1F08
ENCODING 7944
SWIDTH 640 0
DWIDTH 16 0
BBX 16 18 0 0
BITMAP
1000
39C0
3BC0
13E0
6760
0670
0670
0E30
0C38
1C18
181C
181C
3FFC
3FFE
700E
7006
6007
E003
ENDCHAR
STARTCHAR 1F09
ENCODING 7945
SWIDTH 640 0
DWIDTH 16 0
BBX 16 18 0 0
BITMAP
6000
E1C0
63C0
63E0
3760
0670
0670
0E30
0C38
1C18
181C
181C
3FFC
3FFE
700E
7006
6007
E003
ENDCHAR
STARTCHAR 1F0A
ENCODING 7946
SWIDTH 760 0
DWIDTH 19 0
BBX 20 18 -1 0
BITMAP
640000
6E1C00
663C00
633E00
C1F600
006700
006700
00C300
00C380
01C180
0181C0
0181C0
03FFC0
03FFE0
0700E0
070060
060070
0E0070
ENDCHAR
STARTCHAR 1F0B
ENCODING 7947
SWIDTH 760 0
DWIDTH 19 0
BBX 20 18 -1 0
BITMAP
440000
EC3800
CE3C00
467C00
636E00
006600
00C700
00C700
01C300
018380
018180
0381C0
03FFC0
07FFC0
0700E0
0600E0
0E0060
0C0070
ENDCHAR
STARTCHAR 1F0C
ENCODING 7948
SWIDTH 720 0
DWIDTH 18 0
BBX 19 18 -1 0
BITMAP
620000
677000
667800
6CF800
CCDC00
00CC00
018E00
018E00
038600
030700
030300
070380
07FF80
0FFF80
0E01C0
0C01C0
1C00C0
1800E0
ENDCHAR
STARTCHAR 1F0D
ENCODING 7949
SWIDTH 720 0
DWIDTH 18 0
BBX 19 18 -1 0
BITMAP
400000
E3B800
E73800
467C00
3C6C00
00EE00
00C600
01C700
018300
018300
038380
030180
07FFC0
07FFC0
0600C0
0E00E0
0C00E0
0C0060
ENDCHAR
STARTCHAR 1F0E
ENCODING 7950
SWIDTH 640 0
DWIDTH 16 0
BBX 17 19 -1 0
BITMAP
7C0000
CC0000
86E000
31E000
39F000
33B000
633800
033800
071800
061C00
0E0C00
0C0E00
0C0E00
1FFE00
1FFF00
380700
380300
300380
700180
ENDCHAR
STARTCHAR 1F0F
ENCODING 7951
SWIDTH 640 0
DWIDTH 16 0
BBX 17 19 -1 0
BITMAP
7C0000
CC0000
86E000
30F000
31F000
31B000
1BB800
031800
071C00
060C00
060C00
0E0E00
0C0600
1FFF00
1FFF00
180300
380380
380380
300180
ENDCHAR
STARTCHAR 1F10
ENCODING 7952
SWIDTH 480 0
DWIDTH 12 0
BBX 11 20 1 0
BITMAP
0200
0700
0700
0600
0C00
0000
0000
1FC0
7FC0
7000
6000
6000
3F00
3F00
7000
E000
E000
6000
7FE0
3FE0
ENDCHAR
STARTCHAR 1F11
ENCODING 7953
SWIDTH 480 0
DWIDTH 12 0
BBX 11 19 1 1
BITMAP
0E00
0E00
0C00
0600
0200
0000
1FC0
7FC0
7000
6000
6000
3F00
3F00
7000
E000
E000
6000
7FE0
3FE0
ENDCHAR
STARTCHAR 1F12
ENCODING 7954
SWIDTH 480 0
DWIDTH 12 0
BBX 11 20 1 0
BITMAP
0100
3B00
3B80
1980
30C0
2000
0000
1FC0
7FC0
7000
6000
6000
3F00
3F00
7000
E000
E000
6000
7FE0
3FE0
ENDCHAR
STARTCHAR 1F13
ENCODING 7955
SWIDTH 480 0
DWIDTH 12 0
BBX 11 20 1 0
BITMAP
2200
7600
7700
2300
3180
1000
0000
1FC0
7FC0
7000
6000
6000
3F00
3F00
7000
E000
E000
6000
7FE0
3FE0
ENDCHAR
STARTCHAR 1F14
ENCODING 7956
SWIDTH 480 0
DWIDTH 12 0
BBX 11 20 1 0
BITMAP
0800
1CE0
1CC0
0D80
1B00
1100
0000
1FC0
7FC0
7000
6000
6000
3F00
3F00
7000
E000
E000
6000
7FE0
3FE0
ENDCHAR
STARTCHAR 1F15
ENCODING 7957
SWIDTH 480 0
DWIDTH 12 0
BBX 11 20 1 0
BITMAP
0080
30C0
31C0
3380
1B00
0000
0000
1FC0
7FC0
7000
6000
6000
3F00
3F00
7000
E000
E000
6000
7FE0
3FE0
ENDCHAR
STARTCHAR 1F18
ENCODING 7960
SWIDTH 600 0
DWIDTH 15 0
BBX 16 18 -1 0
BITMAP
6000
77FE
67FE
6600
C600
0600
0600
0600
07FC
07FC
0600
0600
0600
0600
0600
0600
07FF
07FF
ENDCHAR
STARTCHAR 1F19
ENCODING 7961
SWIDTH 600 0
DWIDTH 15 0
BBX 16 18 -1 0
BITMAP
4000
E7FE
E7FE
6600
3600
0600
0600
0600
07FC
07FC
0600
0600
0600
0600
0600
0600
07FF
07FF
ENDCHAR
STARTCHAR 1F1A
ENCODING 7962
SWIDTH 800 0
DWIDTH 20 0
BBX 21 18 -1 0
BITMAP
640000
6E7FF0
667FF0
637000
C1F000
007000
007000
007000
007FE0
007FE0
007000
007000
007000
007000
007000
007000
007FF8
007FF8
ENDCHAR
STARTCHAR 1F1B
ENCODING 7963
SWIDTH 800 0
DWIDTH 20 0
BBX 20 18 -1 0
BITMAP
440000
EC7FF0
E67FF0
477000
337000
007000
007000
007000
007FE0
007FE0
007000
007000
007000
007000
007000
007000
007FF0
007FF0
ENDCHAR
STARTCHAR 1F1C
ENCODING 7964
SWIDTH 800 0
DWIDTH 20 0
BBX 20 18 -1 0
BITMAP
620000
677FF0
667FF0
6C6000
CC6000
006000
006000
006000
007FE0
007FE0
006000
006000
006000
006000
006000
006000
007FF0
007FF0
ENDCHAR
STARTCHAR 1F1D
ENCODING 7965
SWIDTH 800 0
DWIDTH 20 0
BBX 21 18 -1 0
BITMAP
400000
E3BFF0
E73FF0
463000
3C3000
003000
003000
003000
003FE0
003FE0
003000
003000
003000
003000
003000
003000
003FF8
003FF8
ENDCHAR
STARTCHAR 1F20
ENCODING 7968
SWIDTH 560 0
DWIDTH 14 0
BBX 11 25 2 -5
BITMAP
0400
0E00
0E00
0600
0C00
0800
0000
FF00
FF80
C1C0
C0C0
C0C0
C0C0
C0E0
C0E0
C0E0
C0E0
C0E0
C0E0
C0E0
00E0
00E0
00E0
00E0
00E0
ENDCHAR
STARTCHAR 1F21
ENCODING 7969
SWIDTH 560 0
DWIDTH 14 0
BBX 11 25 2 -5
BITMAP
0800
1C00
1C00
0C00
0600
0000
0000
FF00
FF80
C1C0
C0C0
C0C0
C0C0
C0E0
C0E0
C0E0
C0E0
C0E0
C0E0
C0E0
00E0
00E0
00E0
00E0
00E0
ENDCHAR
STARTCHAR 1F22
ENCODING 7970
SWIDTH 560 0
DWIDTH 14 0
BBX 11 24 2 -4
BITMAP
3700
3300
3180
61C0
0080
0000
FF00
FF80
C1C0
C0C0
C0C0
C0C0
C0E0
C0E0
C0E0
C0E0
C0E0
C0E0
C0E0
00E0
00E0
00E0
00E0
00E0
ENDCHAR
STARTCHAR 1F23
ENCODING 7971
SWIDTH 560 0
DWIDTH 14 0
BBX 11 24 2 -4
BITMAP
6E00
6600
6300
3380
0100
0000
FF00
FF80
C1C0
C0C0
C0C0
C0C0
C0E0
C0E0
C0E0
C0E0
C0E0
C0E0
C0E0
00E0
00E0
00E0
00E0
00E0
ENDCHAR
STARTCHAR 1F24
ENCODING 7972
SWIDTH 560 0
DWIDTH 14 0
BBX 11 25 2 -5
BITMAP
0880
1CC0
1DC0
1B80
3300
0000
0000
FF00
FF80
C1C0
C0C0
C0C0
C0C0
C0E0
C0E0
C0E0
C0E0
C0E0
C0E0
C0E0
00E0
00E0
00E0
00E0
00E0
ENDCHAR
STARTCHAR 1F25
ENCODING 7973
SWIDTH 560 0
DWIDTH 14 0
BBX 11 25 2 -5
BITMAP
2000
7180
7180
2300
3600
1200
0000
FF00
FF80
C1C0
C0C0
C0C0
C0C0
C0E0
C0E0
C0E0
C0E0
C0E0
C0E0
C0E0
00E0
00E0
00E0
00E0
00E0
ENDCHAR
STARTCHAR 1F26
ENCODING 7974
SWIDTH 560 0
DWIDTH 14 0
BBX 11 27 2 -5
BITMAP
1E00
3F00
2180
0C00
0E00
0400
0C00
0000
0000
FF00
FF80
C1C0
C0C0
C0C0
C0C0
C0E0
C0E0
C0E0
C0E0
C0E0
C0E0
C0E0
00E0
00E0
00E0
00E0
00E0
ENDCHAR
STARTCHAR 1F27
ENCODING 7975
SWIDTH 560 0
DWIDTH 14 0
BBX 11 27 2 -5
BITMAP
1E00
3F00
2180
0C00
0E00
0C00
0600
0200
0000
FF00
FF80
C1C0
C0C0
C0C0
C0C0
C0E0
C0E0
C0E0
C0E0
C0E0
C0E0
C0E0
00E0
00E0
00E0
00E0
00E0
ENDCHAR
STARTCHAR 1F28
ENCODING 7976
SWIDTH 760 0
DWIDTH 19 0
BBX 18 18 -1 0
BITMAP
600000
7600C0
6600C0
6600C0
C600C0
0600C0
0600C0
0600C0
07FFC0
07FFC0
0600C0
0600C0
0600C0
0600C0
0600C0
0600C0
0600C0
0600C0
ENDCHAR
STARTCHAR 1F29
ENCODING 7977
SWIDTH 760 0
DWIDTH 19 0
BBX 18 18 -1 0
BITMAP
400000
E600C0
E600C0
6600C0
3600C0
0600C0
0600C0
0600C0
07FFC0
07FFC0
0600C0
0600C0
0600C0
0600C0
0600C0
0600C0
0600C0
0600C0
ENDCHAR
STARTCHAR 1F2A
ENCODING 7978
SWIDTH 920 0
DWIDTH 23 0
BBX 23 18 -1 0
BITMAP
640000
6E700E
66700E
63700E
C1F00E
00700E
00700E
00700E
007FFE
007FFE
00700E
00700E
00700E
00700E
00700E
00700E
00700E
00700E
ENDCHAR
STARTCHAR 1F2B
ENCODING 7979
SWIDTH 920 0
DWIDTH 23 0
BBX 22 18 -1 0
BITMAP
440000
EC700C
E6700C
47700C
33700C
00700C
00700C
00700C
007FFC
007FFC
00700C
00700C
00700C
00700C
00700C
00700C
00700C
00700C
ENDCHAR
STARTCHAR 1F2C
ENCODING 7980
SWIDTH 920 0
DWIDTH 23 0
BBX 22 18 -1 0
BITMAP
620000
67600C
66600C
6C600C
CC600C
00600C
00600C
00600C
007FFC
007FFC
00600C
00600C
00600C
00600C
00600C
00600C
00600C
00600C
ENDCHAR
STARTCHAR 1F2D
ENCODING 7981
SWIDTH 960 0
DWIDTH 24 0
BBX 23 18 -1 0
BITMAP
400000
E3B00E
E7300E
46300E
3C300E
00300E
00300E
00300E
003FFE
003FFE
00300E
00300E
00300E
00300E
00300E
00300E
00300E
00300E
ENDCHAR
STARTCHAR 1F2E
ENCODING 7982
SWIDTH 880 0
DWIDTH 22 0
BBX 21 19 -1 0
BITMAP
7C0000
CC0000
86C038
30C038
38C038
30C038
60C038
00C038
00C038
00FFF8
00FFF8
00C038
00C038
00C038
00C038
00C038
00C038
00C038
00C038
ENDCHAR
STARTCHAR 1F2F
ENCODING 7983
SWIDTH 880 0
DWIDTH 22 0
BBX 21 19 -1 0
BITMAP
7C0000
CC0000
86C038
30C038
30C038
30C038
18C038
00C038
00C038
00FFF8
00FFF8
00C038
00C038
00C038
00C038
00C038
00C038
00C038
00C038
ENDCHAR
STARTCHAR 1F30
ENCODING 7984
SWIDTH 240 0
DWIDTH 6 0
BBX 4 19 2 1
BITMAP
E0
E0
60
C0
80
00
C0
C0
C0
C0
C0
C0
C0
C0
C0
C0
E0
F0
70
ENDCHAR
STARTCHAR 1F31
ENCODING 7985
SWIDTH 240 0
DWIDTH 6 0
BBX 5 20 1 0
BITMAP
40
E0
E0
60
30
00
00
60
60
60
60
60
60
60
60
60
60
70
78
38
ENDCHAR
STARTCHAR 1F32
ENCODING 7986
SWIDTH 240 0
DWIDTH 6 0
BBX 8 19 -1 1
BITMAP
6E
66
63
C3
00
00
18
18
18
18
18
18
18
18
18
18
1C
1E
0E
ENDCHAR
STARTCHAR 1F33
ENCODING 7987
SWIDTH 240 0
DWIDTH 6 0
BBX 7 19 -1 1
BITMAP
DC
CC
C6
66
00
00
18
18
18
18
18
18
18
18
18
18
1C
1E
0E
ENDCHAR
STARTCHAR 1F34
ENCODING 7988
SWIDTH 240 0
DWIDTH 6 0
BBX 8 20 0 0
BITMAP
02
63
76
6E
CC
00
00
30
30
30
30
30
30
30
30
30
30
38
3C
1C
ENDCHAR
STARTCHAR 1F35
ENCODING 7989
SWIDTH 240 0
DWIDTH 6 0
BBX 8 20 -1 0
BITMAP
40
E3
E3
46
6C
24
00
18
18
18
18
18
18
18
18
18
18
1C
1E
0E
ENDCHAR
STARTCHAR 1F36
ENCODING 7990
SWIDTH 240 0
DWIDTH 6 0
BBX 6 22 0 0
BITMAP
78
FC
84
30
38
10
30
00
00
30
30
30
30
30
30
30
30
30
30
38
3C
1C
ENDCHAR
STARTCHAR 1F37
ENCODING 7991
SWIDTH 240 0
DWIDTH 6 0
BBX 6 22 0 0
BITMAP
78
FC
84
30
30
30
18
08
00
30
30
30
30
30
30
30
30
30
30
38
3C
1C
ENDCHAR
STARTCHAR 1F38
ENCODING 7992
SWIDTH 320 0
DWIDTH 8 0
BBX 7 18 -1 0
BITMAP
60
76
66
66
C6
06
06
06
06
06
06
06
06
06
06
06
06
06
ENDCHAR
STARTCHAR 1F39
ENCODING 7993
SWIDTH 320 0
DWIDTH 8 0
BBX 7 18 -1 0
BITMAP
40
E6
E6
66
36
06
06
06
06
06
06
06
06
06
06
06
06
06
ENDCHAR
STARTCHAR 1F3A
ENCODING 7994
SWIDTH 520 0
DWIDTH 13 0
BBX 12 18 -1 0
BITMAP
6400
6E70
6670
6370
C1F0
0070
0070
0070
0070
0070
0070
0070
0070
0070
0070
0070
0070
0070
ENDCHAR
STARTCHAR 1F3B
ENCODING 7995
SWIDTH 480 0
DWIDTH 12 0
BBX 12 18 -1 0
BITMAP
4400
EC70
E670
4770
3370
0070
0070
0070
0070
0070
0070
0070
0070
0070
0070
0070
0070
0070
ENDCHAR
STARTCHAR 1F3C
ENCODING 7996
SWIDTH 480 0
DWIDTH 12 0
BBX 11 18 -1 0
BITMAP
6200
6760
6660
6C60
CC60
0060
0060
0060
0060
0060
0060
0060
0060
0060
0060
0060
0060
0060
ENDCHAR
STARTCHAR 1F3D
ENCODING 7997
SWIDTH 520 0
DWIDTH 13 0
BBX 12 18 -1 0
BITMAP
4000
E3B0
E730
4630
3C30
0030
0030
0030
0030
0030
0030
0030
0030
0030
0030
0030
0030
0030
ENDCHAR
STARTCHAR 1F3E
ENCODING 7998
SWIDTH 440 0
DWIDTH 11 0
BBX 10 19 -1 0
BITMAP
7C00
CC00
86C0
30C0
38C0
30C0
60C0
00C0
00C0
00C0
00C0
00C0
00C0
00C0
00C0
00C0
00C0
00C0
00C0
ENDCHAR
STARTCHAR 1F3F
ENCODING 7999
SWIDTH 440 0
DWIDTH 11 0
BBX 10 19 -1 0
BITMAP
7C00
CC00
86C0
30C0
30C0
30C0
18C0
00C0
00C0
00C0
00C0
00C0
00C0
00C0
00C0
00C0
00C0
00C0
00C0
ENDCHAR
STARTCHAR 1F40
ENCODING 8000
SWIDTH 560 0
DWIDTH 14 0
BBX 12 20 1 0
BITMAP
0200
0700
0300
0300
0600
0400
0000
1F80
3FE0
7060
6070
E030
E030
E030
E030
E030
6070
7060
3FE0
1FC0
ENDCHAR
STARTCHAR 1F41
ENCODING 8001
SWIDTH 560 0
DWIDTH 14 0
BBX 12 19 1 1
BITMAP
0E00
0E00
0600
0300
0000
0000
1F80
3FE0
7060
6070
E030
E030
E030
E030
E030
6070
7060
3FE0
1FC0
ENDCHAR
STARTCHAR 1F42
ENCODING 8002
SWIDTH 560 0
DWIDTH 14 0
BBX 12 20 1 0
BITMAP
0800
1D80
1D80
18C0
1060
0040
0000
1F80
3FE0
7060
6070
E030
E030
E030
E030
E030
6070
7060
3FE0
1FC0
ENDCHAR
STARTCHAR 1F43
ENCODING 8003
SWIDTH 560 0
DWIDTH 14 0
BBX 12 19 1 1
BITMAP
3B00
3300
3180
18C0
0080
0000
1F80
3FE0
7060
6070
E030
E030
E030
E030
E030
6070
7060
3FE0
1FC0
ENDCHAR
STARTCHAR 1F44
ENCODING 8004
SWIDTH 560 0
DWIDTH 14 0
BBX 12 19 1 1
BITMAP
0E60
0EE0
04C0
0980
0000
0000
1F80
3FE0
7060
6070
E030
E030
E030
E030
E030
6070
7060
3FE0
1FC0
ENDCHAR
STARTCHAR 1F45
ENCODING 8005
SWIDTH 560 0
DWIDTH 14 0
BBX 12 19 1 1
BITMAP
3860
38C0
19C0
0D80
0000
0000
1F80
3FE0
7060
6070
E030
E030
E030
E030
E030
6070
7060
3FE0
1FC0
ENDCHAR
STARTCHAR 1F48
ENCODING 8008
SWIDTH 760 0
DWIDTH 19 0
BBX 19 18 -1 0
BITMAP
607800
71FE00
67FF80
6F03C0
CE01C0
1C00E0
1C00E0
180060
180060
180060
180060
1800E0
1C00E0
1C00C0
0E01C0
070380
03FF00
01FE00
ENDCHAR
STARTCHAR 1F49
ENCODING 8009
SWIDTH 800 0
DWIDTH 20 0
BBX 20 18 -1 0
BITMAP
403C00
E1FF00
E3EFC0
6701C0
3700E0
0E0070
0E0070
0C0070
0C0030
0C0030
0C0070
0C0070
0E0070
0E0060
0700E0
0381C0
03FF80
00FF00
ENDCHAR
STARTCHAR 1F4A
ENCODING 8010
SWIDTH 1000 0
DWIDTH 25 0
BBX 25 18 -1 0
BITMAP
6401E000
6E0FF800
661F7C00
63380E00
C1F00700
00700300
00600380
00E00380
00E00380
00E00380
00E00380
00600380
00600380
00700700
00380700
003C0E00
001FFC00
0007F000
ENDCHAR
STARTCHAR 1F4B
ENCODING 8011
SWIDTH 960 0
DWIDTH 24 0
BBX 25 18 -1 0
BITMAP
4403C000
EC0FF800
E63F7C00
47380E00
33700600
00600700
00E00300
00E00300
00E00380
00E00380
00E00300
00E00300
00E00700
00600700
00700E00
00381E00
001FFC00
000FF000
ENDCHAR
STARTCHAR 1F4C
ENCODING 8012
SWIDTH 920 0
DWIDTH 23 0
BBX 23 18 -1 0
BITMAP
620780
673FE0
667DF8
6CE038
CCC01C
01C00C
01800E
01800E
01800E
01800E
01800E
01800E
01C00E
01C00C
00E01C
00F038
007FF0
001FE0
ENDCHAR
STARTCHAR 1F4D
ENCODING 8013
SWIDTH 960 0
DWIDTH 24 0
BBX 24 18 -1 0
BITMAP
400380
E39FF0
E73EF8
46701C
3CE00E
00E00E
01C006
01C007
01C007
01C007
01C007
01C007
00C006
00E00E
00E00C
00783C
003FF8
000FE0
ENDCHAR
STARTCHAR 1F50
ENCODING 8016
SWIDTH 560 0
DWIDTH 14 0
BBX 11 19 2 1
BITMAP
0E00
0E00
0600
0C00
0800
0000
C0E0
C0E0
C0E0
C0E0
C0E0
C0E0
C0E0
C0E0
C0E0
E0C0
E1C0
7FC0
3F00
ENDCHAR
STARTCHAR 1F51
ENCODING 8017
SWIDTH 560 0
DWIDTH 14 0
BBX 11 20 2 0
BITMAP
0800
1C00
1C00
0C00
0600
0000
0000
C0E0
C0E0
C0E0
C0E0
C0E0
C0E0
C0E0
C0E0
C0E0
E0C0
E1C0
7FC0
3F00
ENDCHAR
STARTCHAR 1F52
ENCODING 8018
SWIDTH 560 0
DWIDTH 14 0
BBX 11 19 2 1
BITMAP
3700
3300
3180
61C0
0080
0000
C0E0
C0E0
C0E0
C0E0
C0E0
C0E0
C0E0
C0E0
C0E0
E0C0
E1C0
7FC0
3F00
ENDCHAR
STARTCHAR 1F53
ENCODING 8019
SWIDTH 560 0
DWIDTH 14 0
BBX 11 19 2 1
BITMAP
6E00
6600
6300
3300
0000
0000
C0E0
C0E0
C0E0
C0E0
C0E0
C0E0
C0E0
C0E0
C0E0
E0C0
E1C0
7FC0
3F00
ENDCHAR
STARTCHAR 1F54
ENCODING 8020
SWIDTH 560 0
DWIDTH 14 0
BBX 11 20 2 0
BITMAP
0080
1CC0
1D80
1B80
3300
0000
0000
C0E0
C0E0
C0E0
C0E0
C0E0
C0E0
C0E0
C0E0
C0E0
E0C0
E1C0
7FC0
3F00
ENDCHAR
STARTCHAR 1F55
ENCODING 8021
SWIDTH 560 0
DWIDTH 14 0
BBX 11 20 2 0
BITMAP
2000
7180
7180
2300
3600
1200
0000
C0E0
C0E0
C0E0
C0E0
C0E0
C0E0
C0E0
C0E0
C0E0
E0C0
E1C0
7FC0
3F00
ENDCHAR
STARTCHAR 1F56
ENCODING 8022
SWIDTH 560 0
DWIDTH 14 0
BBX 11 22 2 0
BITMAP
1E00
3F00
2100
0C00
0E00
0400
0C00
0000
0000
C0E0
C0E0
C0E0
C0E0
C0E0
C0E0
C0E0
C0E0
C0E0
E0C0
E1C0
7FC0
3F00
ENDCHAR
STARTCHAR 1F57
ENCODING 8023
SWIDTH 560 0
DWIDTH 14 0
BBX 11 22 2 0
BITMAP
1E00
3F00
2100
0C00
0C00
0C00
0600
0200
0000
C0E0
C0E0
C0E0
C0E0
C0E0
C0E0
C0E0
C0E0
C0E0
E0C0
E1C0
7FC0
3F00
ENDCHAR
STARTCHAR 1F59
ENCODING 8025
SWIDTH 680 0
DWIDTH 17 0
BBX 18 18 -1 0
BITMAP
400000
EE01C0
E70180
670380
338300
038700
01C600
00CE00
00FC00
007800
003800
003000
003000
003000
003000
003000
003000
003000
ENDCHAR
STARTCHAR 1F5B
ENCODING 8027
SWIDTH 840 0
DWIDTH 21 0
BBX 22 18 -1 0
BITMAP
440000
ECE01C
E6701C
477038
333830
001870
001C60
000CE0
000FC0
000780
000380
000300
000300
000300
000300
000300
000300
000300
ENDCHAR
STARTCHAR 1F5D
ENCODING 8029
SWIDTH 880 0
DWIDTH 22 0
BBX 23 18 -1 0
BITMAP
400000
E3B006
E7380E
46180C
3C1C1C
000E18
000E38
000770
000360
0003E0
0001C0
0001C0
0001C0
0001C0
0001C0
0001C0
0001C0
0001C0
ENDCHAR
STARTCHAR 1F5F
ENCODING 8031
SWIDTH 840 0
DWIDTH 21 0
BBX 22 19 -1 0
BITMAP
7C0000
CC0000
86E01C
30E038
307030
307070
183860
0018E0
001CC0
000D80
000F80
000700
000700
000700
000700
000700
000700
000700
000700
ENDCHAR
STARTCHAR 1F60
ENCODING 8032
SWIDTH 800 0
DWIDTH 20 0
BBX 19 19 1 1
BITMAP
00E000
006000
006000
00C000
000000
000000
380380
300180
70E1C0
60E0C0
60E0C0
E0E0C0
E0E0E0
E0E0E0
60E0C0
60E0C0
71F1C0
3FBF80
1F1F00
ENDCHAR
STARTCHAR 1F61
ENCODING 8033
SWIDTH 800 0
DWIDTH 20 0
BBX 19 19 1 1
BITMAP
00C000
00C000
00C000
006000
000000
000000
380380
300180
70E1C0
60E0C0
60E0C0
E0E0C0
E0E0E0
E0E0E0
60E0C0
60E0C0
71F1C0
3FBF80
1F1F00
ENDCHAR
STARTCHAR 1F62
ENCODING 8034
SWIDTH 800 0
DWIDTH 20 0
BBX 19 19 1 1
BITMAP
03B000
03B800
011800
020C00
000000
000000
380380
300180
70E1C0
60E0C0
60E0C0
E0E0C0
E0E0E0
E0E0E0
60E0C0
60E0C0
71F1C0
3FBF80
1F1F00
ENDCHAR
STARTCHAR 1F63
ENCODING 8035
SWIDTH 800 0
DWIDTH 20 0
BBX 19 19 1 1
BITMAP
076000
066000
063000
031800
001000
000000
380380
300180
70E1C0
60E0C0
60E0C0
E0E0C0
E0E0E0
E0E0E0
60E0C0
60E0C0
71F1C0
3FBF80
1F1F00
ENDCHAR
STARTCHAR 1F64
ENCODING 8036
SWIDTH 800 0
DWIDTH 20 0
BBX 19 19 1 1
BITMAP
01CC00
01DC00
009800
01B000
000000
000000
380380
300180
70E1C0
60E0C0
60E0C0
E0E0C0
E0E0E0
E0E0E0
60E0C0
60E0C0
71F1C0
3FBF80
1F1F00
ENDCHAR
STARTCHAR 1F65
ENCODING 8037
SWIDTH 800 0
DWIDTH 20 0
BBX 19 20 1 0
BITMAP
020000
071C00
071800
033000
013000
000000
000000
380380
300180
70E1C0
60E0C0
60E0C0
E0E0C0
E0E0E0
E0E0E0
60E0C0
60E0C0
71F1C0
3FBF80
1F1F00
ENDCHAR
STARTCHAR 1F66
ENCODING 8038
SWIDTH 800 0
DWIDTH 20 0
BBX 19 22 1 0
BITMAP
00E000
01F000
031800
004000
00E000
006000
00C000
000000
000000
380380
300180
70E1C0
60E0C0
60E0C0
E0E0C0
E0E0E0
E0E0E0
60E0C0
60E0C0
71F1C0
3FBF80
1F1F00
ENDCHAR
STARTCHAR 1F67
ENCODING 8039
SWIDTH 800 0
DWIDTH 20 0
BBX 19 22 1 0
BITMAP
00E000
01F000
031800
004000
00E000
00C000
006000
000000
000000
380380
300180
70E1C0
60E0C0
60E0C0
E0E0C0
E0E0E0
E0E0E0
60E0C0
60E0C0
71F1C0
3FBF80
1F1F00
ENDCHAR
STARTCHAR 1F68
ENCODING 8040
SWIDTH 760 0
DWIDTH 19 0
BBX 19 18 -1 0
BITMAP
607800
73FE00
67DF80
6F03C0
CE01C0
1C00E0
1C00E0
1C00E0
180060
1800E0
1C00E0
1C00E0
0C00C0
0E01C0
060180
030300
3F87E0
3F87E0
ENDCHAR
STARTCHAR 1F69
ENCODING 8041
SWIDTH 800 0
DWIDTH 20 0
BBX 20 18 -1 0
BITMAP
403C00
E1FF00
E3EFC0
6701C0
3600E0
0E0060
0E0070
0C0070
0C0070
0C0070
0C0070
0E0070
060060
0700E0
0301C0
038180
1FC3F0
1FC3F0
ENDCHAR
STARTCHAR 1F6A
ENCODING 8042
SWIDTH 1000 0
DWIDTH 25 0
BBX 25 18 -1 0
BITMAP
6401E000
6E0FF800
661F7C00
63380E00
C1F00700
00700700
00600300
00600380
00E00380
00600380
00600380
00600300
00700700
00300600
00380E00
001C1C00
00FE3F80
00FE3F80
ENDCHAR
STARTCHAR 1F6B
ENCODING 8043
SWIDTH 1000 0
DWIDTH 25 0
BBX 25 18 -1 0
BITMAP
4403C000
EC0FF800
E63F7C00
47380E00
33700600
00600700
00E00700
00E00300
00E00300
00E00300
00E00300
00600700
00600700
00700600
00380C00
00181C00
00FC3F80
00FC3F80
ENDCHAR
STARTCHAR 1F6C
ENCODING 8044
SWIDTH 920 0
DWIDTH 23 0
BBX 23 18 -1 0
BITMAP
620780
673FE0
667DF8
6CE038
CCC01C
01C00C
01800E
01800E
01800E
01800E
01800E
01C00C
01C00C
00C01C
006038
007070
03F87E
03F87E
ENDCHAR
STARTCHAR 1F6D
ENCODING 8045
SWIDTH 960 0
DWIDTH 24 0
BBX 24 18 -1 0
BITMAP
400780
E39FF0
E73EF8
46701C
3CE00E
00E00E
00C006
01C006
01C007
01C007
00C006
00C006
00E00E
00600C
00701C
003838
01FC7F
01FC7F
ENDCHAR
STARTCHAR 1F6E
ENCODING 8046
SWIDTH 840 0
DWIDTH 21 0
BBX 21 19 -1 0
BITMAP
7C0000
CC1E00
86FF80
31F7E0
3BC0F0
338070
670038
070038
060038
060038
060038
070038
070038
030030
038070
018060
00C0C0
0FE1F8
0FE1F8
ENDCHAR
STARTCHAR 1F6F
ENCODING 8047
SWIDTH 880 0
DWIDTH 22 0
BBX 22 19 -1 0
BITMAP
7C0000
CC0F00
867FC0
30FBE0
31C070
338038
1B8018
03001C
03001C
03001C
03001C
03001C
030018
038038
018030
01C070
00E0E0
07F1FC
07F1FC
ENDCHAR
STARTCHAR 1F70
ENCODING 8048
SWIDTH 600 0
DWIDTH 15 0
BBX 14 19 1 0
BITMAP
0C00
1E00
0700
0300
0000
0000
1FF0
3FF0
7070
6070
E070
E070
E070
E070
E070
6070
7070
3FFC
1F98
ENDCHAR
STARTCHAR 1F71
ENCODING 8049
SWIDTH 600 0
DWIDTH 15 0
BBX 14 19 1 0
BITMAP
0080
03C0
0700
0600
0000
0000
1FF0
3FF0
7070
6070
E070
E070
E070
E070
E070
6070
7070
3FFC
1F98
ENDCHAR
STARTCHAR 1F72
ENCODING 8050
SWIDTH 480 0
DWIDTH 12 0
BBX 11 19 1 0
BITMAP
1800
1C00
0E00
0700
0000
0000
1FC0
7FC0
7000
6000
6000
3F00
3F00
7000
E000
E000
6000
7FE0
3FE0
ENDCHAR
STARTCHAR 1F73
ENCODING 8051
SWIDTH 480 0
DWIDTH 12 0
BBX 11 19 1 0
BITMAP
0180
0380
0F00
0C00
0000
0000
1FC0
7FC0
7000
6000
6000
3F00
3F00
7000
E000
E000
6000
7FE0
3FE0
ENDCHAR
STARTCHAR 1F74
ENCODING 8052
SWIDTH 560 0
DWIDTH 14 0
BBX 11 24 2 -5
BITMAP
1000
3800
0E00
0600
0000
0000
FF00
FF80
C1C0
C0C0
C0C0
C0C0
C0E0
C0E0
C0E0
C0E0
C0E0
C0E0
C0E0
00E0
00E0
00E0
00E0
00E0
ENDCHAR
STARTCHAR 1F75
ENCODING 8053
SWIDTH 560 0
DWIDTH 14 0
BBX 11 24 2 -5
BITMAP
0300
0700
0E00
1C00
0000
0000
FF00
FF80
C1C0
C0C0
C0C0
C0C0
C0E0
C0E0
C0E0
C0E0
C0E0
C0E0
C0E0
00E0
00E0
00E0
00E0
00E0
ENDCHAR
STARTCHAR 1F76
ENCODING 8054
SWIDTH 240 0
DWIDTH 6 0
BBX 6 19 0 0
BITMAP
C0
E0
70
18
00
00
30
30
30
30
30
30
30
30
30
30
38
3C
1C
ENDCHAR
STARTCHAR 1F77
ENCODING 8055
SWIDTH 240 0
DWIDTH 6 0
BBX 5 19 1 0
BITMAP
18
38
70
E0
00
00
60
60
60
60
60
60
60
60
60
60
70
78
38
ENDCHAR
STARTCHAR 1F78
ENCODING 8056
SWIDTH 560 0
DWIDTH 14 0
BBX 12 19 1 0
BITMAP
0800
1E00
0700
0300
0100
0000
1F80
3FE0
7060
6070
E030
E030
E030
E030
E030
6070
7060
3FE0
1FC0
ENDCHAR
STARTCHAR 1F79
ENCODING 8057
SWIDTH 560 0
DWIDTH 14 0
BBX 12 19 1 0
BITMAP
0180
03C0
0700
0600
0000
0000
1F80
3FE0
7060
6070
E030
E030
E030
E030
E030
6070
7060
3FE0
1FC0
ENDCHAR
STARTCHAR 1F7A
ENCODING 8058
SWIDTH 560 0
DWIDTH 14 0
BBX 11 19 2 0
BITMAP
3000
3800
1E00
0600
0000
0000
C0E0
C0E0
C0E0
C0E0
C0E0
C0E0
C0E0
C0E0
C0E0
E0C0
E1C0
7FC0
3F00
ENDCHAR
STARTCHAR 1F7B
ENCODING 8059
SWIDTH 560 0
DWIDTH 14 0
BBX 11 19 2 0
BITMAP
0300
0700
0E00
1C00
0000
0000
C0E0
C0E0
C0E0
C0E0
C0E0
C0E0
C0E0
C0E0
C0E0
E0C0
E1C0
7FC0
3F00
ENDCHAR
STARTCHAR 1F7C
ENCODING 8060
SWIDTH 800 0
DWIDTH 20 0
BBX 19 19 1 0
BITMAP
010000
03C000
00E000
006000
000000
000000
380380
300180
70E1C0
60E0C0
60E0C0
E0E0C0
E0E0E0
E0E0E0
60E0C0
60E0C0
71F1C0
3FBF80
1F1F00
ENDCHAR
STARTCHAR 1F7D
ENCODING 8061
SWIDTH 800 0
DWIDTH 20 0
BBX 19 19 1 0
BITMAP
003000
007800
00E000
00C000
000000
000000
380380
300180
70E1C0
60E0C0
60E0C0
E0E0C0
E0E0E0
E0E0E0
60E0C0
60E0C0
71F1C0
3FBF80
1F1F00
ENDCHAR
STARTCHAR 1F80
ENCODING 8064
SWIDTH 600 0
DWIDTH 15 0
BBX 14 24 1 -4
BITMAP
0300
0300
0300
0600
0000
0000
1FF0
3FF0
7070
6070
E070
E070
E070
E070
E070
6070
7070
3FFC
1F98
0000
0700
0700
0380
0180
ENDCHAR
STARTCHAR 1F81
ENCODING 8065
SWIDTH 600 0
DWIDTH 15 0
BBX 14 24 1 -4
BITMAP
0700
0600
0600
0300
0000
0000
1FF0
3FF0
7070
6070
E070
E070
E070
E070
E070
6070
7070
3FFC
1F98
0000
0700
0700
0380
0180
ENDCHAR
STARTCHAR 1F82
ENCODING 8066
SWIDTH 600 0
DWIDTH 15 0
BBX 14 25 1 -5
BITMAP
0800
1D80
1DC0
08C0
1860
0000
0000
1FF0
3FF0
7070
6070
E070
E070
E070
E070
E070
6070
7070
3FFC
1F98
0000
0700
0700
0380
0180
ENDCHAR
STARTCHAR 1F83
ENCODING 8067
SWIDTH 600 0
DWIDTH 15 0
BBX 14 24 1 -4
BITMAP
3B00
3B80
3180
18C0
0800
0000
1FF0
3FF0
7070
6070
E070
E070
E070
E070
E070
6070
7070
3FFC
1F98
0000
0700
0700
0380
0180
ENDCHAR
STARTCHAR 1F84
ENCODING 8068
SWIDTH 600 0
DWIDTH 15 0
BBX 14 25 1 -5
BITMAP
0400
0E60
0EE0
04C0
0D80
0800
0000
1FF0
3FF0
7070
6070
E070
E070
E070
E070
E070
6070
7070
3FFC
1F98
0000
0700
0700
0380
0180
ENDCHAR
STARTCHAR 1F85
ENCODING 8069
SWIDTH 600 0
DWIDTH 15 0
BBX 14 24 1 -4
BITMAP
3860
38C0
19C0
0D80
0000
0000
1FF0
3FF0
7070
6070
E070
E070
E070
E070
E070
6070
7070
3FFC
1F98
0000
0700
0700
0380
0180
ENDCHAR
STARTCHAR 1F86
ENCODING 8070
SWIDTH 600 0
DWIDTH 15 0
BBX 14 27 1 -5
BITMAP
0780
0F80
18C0
0300
0700
0300
0600
0000
0000
1FF0
3FF0
7070
6070
E070
E070
E070
E070
E070
6070
7070
3FFC
1F98
0000
0700
0700
0380
0180
ENDCHAR
STARTCHAR 1F87
ENCODING 8071
SWIDTH 600 0
DWIDTH 15 0
BBX 14 27 1 -5
BITMAP
0700
0F80
18C0
0200
0700
0600
0300
0000
0000
1FF0
3FF0
7070
6070
E070
E070
E070
E070
E070
6070
7070
3FFC
1F98
0000
0700
0700
0380
0180
ENDCHAR
STARTCHAR 1F88
ENCODING 8072
SWIDTH 920 0
DWIDTH 23 0
BBX 23 18 0 0
BITMAP
100000
39C000
3BC000
13E000
676000
067018
067018
0E3018
0C3818
1C1818
181C18
181C18
3FFC18
3FFE18
700E18
700618
60071E
E0030E
ENDCHAR
STARTCHAR 1F89
ENCODING 8073
SWIDTH 920 0
DWIDTH 23 0
BBX 23 18 0 0
BITMAP
200000
71C000
63C000
23E000
376000
067018
067018
0E3018
0C3818
1C1818
181C18
181C18
3FFC18
3FFE18
700E18
700618
60071E
E0030E
ENDCHAR
STARTCHAR 1F8A
ENCODING 8074
SWIDTH 1040 0
DWIDTH 26 0
BBX 27 18 -1 0
BITMAP
64000000
6E1C0000
663C0000
633E0000
C1F60000
00670180
00670180
00C30180
00C38180
01C18180
0181C180
0181C180
03FFC180
03FFE180
0700E180
07006180
060071E0
0E0070E0
ENDCHAR
STARTCHAR 1F8B
ENCODING 8075
SWIDTH 1040 0
DWIDTH 26 0
BBX 26 18 -1 0
BITMAP
44000000
EC380000
E63C0000
477C0000
336E0000
00660380
00C70380
00C70380
01C30380
01838380
01818380
0381C380
03FFC380
07FFC380
0700E380
0600E380
0E0061C0
0C0071C0
ENDCHAR
STARTCHAR 1F8C
ENCODING 8076
SWIDTH 1000 0
DWIDTH 25 0
BBX 25 18 -1 0
BITMAP
62000000
67700000
66780000
6CF80000
CCDC0000
00CC0700
018E0700
018E0700
03860700
03070700
03030700
07038700
07FF8700
0FFF8700
0E01C700
0C01C700
1C00C780
1800E380
ENDCHAR
STARTCHAR 1F8D
ENCODING 8077
SWIDTH 1000 0
DWIDTH 25 0
BBX 26 18 -1 0
BITMAP
40000000
E3B80000
E7380000
467C0000
3C6C0000
00EE0300
00C60300
01C70300
01830300
01830300
03838300
03018300
07FFC300
07FFC300
0600C300
0E00E300
0C00E3C0
0C0061C0
ENDCHAR
STARTCHAR 1F8E
ENCODING 8078
SWIDTH 920 0
DWIDTH 23 0
BBX 24 19 -1 0
BITMAP
7C0000
CC0000
86E000
31E000
39F000
33B000
63380C
03380C
07180C
061C0C
0E0C0C
0C0E0C
0C0E0C
1FFE0C
1FFF0C
38070C
38030C
30038F
700187
ENDCHAR
STARTCHAR 1F8F
ENCODING 8079
SWIDTH 920 0
DWIDTH 23 0
BBX 24 19 -1 0
BITMAP
7C0000
CC0000
86E000
30F000
31F000
31B000
1BB80C
03180C
071C0C
060C0C
060C0C
0E0E0C
0C060C
1FFF0C
1FFF0C
18030C
38038C
38038F
300187
ENDCHAR
STARTCHAR 1F90
ENCODING 8080
SWIDTH 560 0
DWIDTH 14 0
BBX 11 25 2 -5
BITMAP
0400
0E00
0E00
0600
0C00
0800
0000
FF00
FF80
C1C0
C0C0
C0C0
C0C0
C0E0
C0E0
C0E0
C0E0
C0E0
C0E0
C0E0
00E0
C0E0
C0E0
70E0
30E0
ENDCHAR
STARTCHAR 1F91
ENCODING 8081
SWIDTH 560 0
DWIDTH 14 0
BBX 11 25 2 -5
BITMAP
0800
1C00
1C00
0C00
0600
0000
0000
FF00
FF80
C1C0
C0C0
C0C0
C0C0
C0E0
C0E0
C0E0
C0E0
C0E0
C0E0
C0E0
00E0
C0E0
C0E0
70E0
30E0
ENDCHAR
STARTCHAR 1F92
ENCODING 8082
SWIDTH 560 0
DWIDTH 14 0
BBX 11 24 2 -4
BITMAP
3700
3300
3180
61C0
0080
0000
FF00
FF80
C1C0
C0C0
C0C0
C0C0
C0E0
C0E0
C0E0
C0E0
C0E0
C0E0
C0E0
00E0
C0E0
C0E0
70E0
30E0
ENDCHAR
STARTCHAR 1F93
ENCODING 8083
SWIDTH 560 0
DWIDTH 14 0
BBX 11 24 2 -4
BITMAP
6E00
6600
6300
3380
0100
0000
FF00
FF80
C1C0
C0C0
C0C0
C0C0
C0E0
C0E0
C0E0
C0E0
C0E0
C0E0
C0E0
00E0
C0E0
C0E0
70E0
30E0
ENDCHAR
STARTCHAR 1F94
ENCODING 8084
SWIDTH 560 0
DWIDTH 14 0
BBX 11 25 2 -5
BITMAP
0880
1CC0
1DC0
1B80
3300
0000
0000
FF00
FF80
C1C0
C0C0
C0C0
C0C0
C0E0
C0E0
C0E0
C0E0
C0E0
C0E0
C0E0
00E0
C0E0
C0E0
70E0
30E0
ENDCHAR
STARTCHAR 1F95
ENCODING 8085
SWIDTH 560 0
DWIDTH 14 0
BBX 11 25 2 -5
BITMAP
2000
7180
7180
2300
3600
1200
0000
FF00
FF80
C1C0
C0C0
C0C0
C0C0
C0E0
C0E0
C0E0
C0E0
C0E0
C0E0
C0E0
00E0
C0E0
C0E0
70E0
30E0
ENDCHAR
STARTCHAR 1F96
ENCODING 8086
SWIDTH 560 0
DWIDTH 14 0
BBX 11 27 2 -5
BITMAP
1E00
3F00
2180
0C00
0E00
0400
0C00
0000
0000
FF00
FF80
C1C0
C0C0
C0C0
C0C0
C0E0
C0E0
C0E0
C0E0
C0E0
C0E0
C0E0
00E0
C0E0
C0E0
70E0
30E0
ENDCHAR
STARTCHAR 1F97
ENCODING 8087
SWIDTH 560 0
DWIDTH 14 0
BBX 11 27 2 -5
BITMAP
1E00
3F00
2100
0C00
0C00
0C00
0600
0200
0000
FF00
FF80
C1C0
C0C0
C0C0
C0C0
C0E0
C0E0
C0E0
C0E0
C0E0
C0E0
C0E0
00E0
C0E0
C0E0
70E0
30E0
ENDCHAR
STARTCHAR 1F98
ENCODING 8088
SWIDTH 1040 0
DWIDTH 26 0
BBX 26 18 -1 0
BITMAP
60000000
7600C000
6600C000
6600C000
C600C000
0600C380
0600C380
0600C380
07FFC380
07FFC380
0600C380
0600C380
0600C380
0600C380
0600C380
0600C380
0600C1C0
0600C1C0
ENDCHAR
STARTCHAR 1F99
ENCODING 8089
SWIDTH 1040 0
DWIDTH 26 0
BBX 26 18 -1 0
BITMAP
40000000
E600C000
E600C000
6600C000
3600C000
0600C380
0600C380
0600C380
07FFC380
07FFC380
0600C380
0600C380
0600C380
0600C380
0600C380
0600C380
0600C1C0
0600C1C0
ENDCHAR
STARTCHAR 1F9A
ENCODING 8090
SWIDTH 1200 0
DWIDTH 30 0
BBX 31 18 -1 0
BITMAP
64000000
6E700E00
66700E00
63700E00
C1F00E00
00700E18
00700E18
00700E18
007FFE18
007FFE18
00700E18
00700E18
00700E18
00700E18
00700E18
00700E1C
00700E1E
00700E0E
ENDCHAR
STARTCHAR 1F9B
ENCODING 8091
SWIDTH 1200 0
DWIDTH 30 0
BBX 31 18 -1 0
BITMAP
44000000
EC700C00
E6700C00
47700C00
33700C00
00700C18
00700C18
00700C18
007FFC18
007FFC18
00700C18
00700C18
00700C18
00700C18
00700C18
00700C18
00700C1E
00700C0E
ENDCHAR
STARTCHAR 1F9C
ENCODING 8092
SWIDTH 1200 0
DWIDTH 30 0
BBX 31 18 -1 0
BITMAP
62000000
67600C00
66600C00
6C600C00
CC600C00
00600C38
00600C38
00600C38
007FFC38
007FFC38
00600C38
00600C38
00600C38
00600C38
00600C38
00600C18
00600C1E
00600C0E
ENDCHAR
STARTCHAR 1F9D
ENCODING 8093
SWIDTH 1240 0
DWIDTH 31 0
BBX 31 18 -1 0
BITMAP
40000000
E3B00E00
E7300E00
46300E00
3C300E00
00300E18
00300E18
00300E18
003FFE18
003FFE18
00300E18
00300E18
00300E18
00300E18
00300E18
00300E1C
00300E1E
00300E0E
ENDCHAR
STARTCHAR 1F9E
ENCODING 8094
SWIDTH 1120 0
DWIDTH 28 0
BBX 29 19 -1 0
BITMAP
7C000000
CC000000
86C03800
30C03800
38C03800
30C03800
60C03860
00C03860
00C03860
00FFF860
00FFF860
00C03860
00C03860
00C03860
00C03860
00C03860
00C03870
00C03878
00C03838
ENDCHAR
STARTCHAR 1F9F
ENCODING 8095
SWIDTH 1120 0
DWIDTH 28 0
BBX 29 19 -1 0
BITMAP
7C000000
CC000000
86C03800
30C03800
30C03800
30C03800
18C03860
00C03860
00C03860
00FFF860
00FFF860
00C03860
00C03860
00C03860
00C03860
00C03860
00C03870
00C03878
00C03838
ENDCHAR
STARTCHAR 1FA0
ENCODING 8096
SWIDTH 800 0
DWIDTH 20 0
BBX 19 24 1 -4
BITMAP
00E000
006000
006000
00C000
000000
000000
380380
300180
70E1C0
60E0C0
60E0C0
E0E0C0
E0E0E0
E0E0E0
60E0C0
60E0C0
71F1C0
3FBF80
1F1F00
000000
00E000
00E000
007000
003000
ENDCHAR
STARTCHAR 1FA1
ENCODING 8097
SWIDTH 800 0
DWIDTH 20 0
BBX 19 24 1 -4
BITMAP
00C000
00C000
00C000
006000
000000
000000
380380
300180
70E1C0
60E0C0
60E0C0
E0E0C0
E0E0E0
E0E0E0
60E0C0
60E0C0
71F1C0
3FBF80
1F1F00
000000
00E000
00E000
007000
003000
ENDCHAR
STARTCHAR 1FA2
ENCODING 8098
SWIDTH 800 0
DWIDTH 20 0
BBX 19 24 1 -4
BITMAP
03B000
03B800
011800
020C00
000000
000000
380380
300180
70E1C0
60E0C0
60E0C0
E0E0C0
E0E0E0
E0E0E0
60E0C0
60E0C0
71F1C0
3FBF80
1F1F00
000000
00E000
00E000
007000
003000
ENDCHAR
STARTCHAR 1FA3
ENCODING 8099
SWIDTH 800 0
DWIDTH 20 0
BBX 19 24 1 -4
BITMAP
076000
066000
063000
031800
001000
000000
380380
300180
70E1C0
60E0C0
60E0C0
E0E0C0
E0E0E0
E0E0E0
60E0C0
60E0C0
71F1C0
3FBF80
1F1F00
000000
00E000
00E000
007000
003000
ENDCHAR
STARTCHAR 1FA4
ENCODING 8100
SWIDTH 800 0
DWIDTH 20 0
BBX 19 24 1 -4
BITMAP
01CC00
01DC00
009800
01B000
000000
000000
380380
300180
70E1C0
60E0C0
60E0C0
E0E0C0
E0E0E0
E0E0E0
60E0C0
60E0C0
71F1C0
3FBF80
1F1F00
000000
00E000
00E000
007000
003000
ENDCHAR
STARTCHAR 1FA5
ENCODING 8101
SWIDTH 800 0
DWIDTH 20 0
BBX 19 25 1 -5
BITMAP
020000
071C00
071800
033000
013000
000000
000000
380380
300180
70E1C0
60E0C0
60E0C0
E0E0C0
E0E0E0
E0E0E0
60E0C0
60E0C0
71F1C0
3FBF80
1F1F00
000000
00E000
00E000
007000
003000
ENDCHAR
STARTCHAR 1FA6
ENCODING 8102
SWIDTH 800 0
DWIDTH 20 0
BBX 19 27 1 -5
BITMAP
00E000
01F000
031800
004000
00E000
006000
00C000
000000
000000
380380
300180
70E1C0
60E0C0
60E0C0
E0E0C0
E0E0E0
E0E0E0
60E0C0
60E0C0
71F1C0
3FBF80
1F1F00
000000
00E000
00E000
007000
003000
ENDCHAR
STARTCHAR 1FA7
ENCODING 8103
SWIDTH 800 0
DWIDTH 20 0
BBX 19 27 1 -5
BITMAP
00E000
01F000
031800
004000
00E000
00C000
006000
000000
000000
380380
300180
70E1C0
60E0C0
60E0C0
E0E0C0
E0E0E0
E0E0E0
60E0C0
60E0C0
71F1C0
3FBF80
1F1F00
000000
00E000
00E000
007000
003000
ENDCHAR
STARTCHAR 1FA8
ENCODING 8104
SWIDTH 1040 0
DWIDTH 26 0
BBX 27 18 -1 0
BITMAP
60780000
73FE0000
67DF8000
6F03C000
CE01C000
1C00E180
1C00E180
1C00E180
18006180
1800E180
1C00E180
1C00E180
0C00C180
0E01C180
06018180
03030180
3F87E1E0
3F87E0E0
ENDCHAR
STARTCHAR 1FA9
ENCODING 8105
SWIDTH 1080 0
DWIDTH 27 0
BBX 28 18 -1 0
BITMAP
403C0000
E1FF0000
E3EFC000
6701C000
3600E000
0E0060C0
0E0070C0
0C0070C0
0C0070C0
0C0070C0
0C0070C0
0E0070C0
060060C0
0700E0C0
0301C0C0
038180C0
1FC3F0F0
1FC3F070
ENDCHAR
STARTCHAR 1FAA
ENCODING 8106
SWIDTH 1280 0
DWIDTH 32 0
BBX 33 18 -1 0
BITMAP
6401E00000
6E0FF80000
661F7C0000
63380E0000
C1F0070000
0070070E00
0060030E00
0060038E00
00E0038E00
0060038E00
0060038E00
0060030E00
0070070E00
0030060E00
00380E0E00
001C1C0600
00FE3F8780
00FE3F8380
ENDCHAR
STARTCHAR 1FAB
ENCODING 8107
SWIDTH 1240 0
DWIDTH 31 0
BBX 32 18 -1 0
BITMAP
4403C000
EC0FF800
E63F7C00
47380E00
33700600
0060070C
00E0070C
00E0030C
00E0030C
00E0030C
00E0030C
0060070C
0060070C
0070060C
00380C0C
00181C0E
00FC3F8F
00FC3F87
ENDCHAR
STARTCHAR 1FAC
ENCODING 8108
SWIDTH 1200 0
DWIDTH 30 0
BBX 31 18 -1 0
BITMAP
62078000
673FE000
667DF800
6CE03800
CCC01C00
01C00C18
01800E18
01800E18
01800E18
01800E18
01800E18
01C00C18
01C00C18
00C01C18
00603818
00707018
03F87E1E
03F87E0E
ENDCHAR
STARTCHAR 1FAD
ENCODING 8109
SWIDTH 1240 0
DWIDTH 31 0
BBX 32 18 -1 0
BITMAP
40078000
E39FF000
E73EF800
46701C00
3CE00E00
00E00E1C
00C0061C
01C0061C
01C0071C
01C0071C
00C0061C
00C0061C
00E00E1C
00600C1C
00701C1C
0038381C
01FC7F0F
01FC7F0E
ENDCHAR
STARTCHAR 1FAE
ENCODING 8110
SWIDTH 1120 0
DWIDTH 28 0
BBX 29 19 -1 0
BITMAP
7C000000
CC1E0000
86FF8000
31F7E000
3BC0F000
33807000
67003860
07003860
06003860
06003860
06003860
07003860
07003860
03003060
03807060
01806060
00C0C060
0FE1F878
0FE1F838
ENDCHAR
STARTCHAR 1FAF
ENCODING 8111
SWIDTH 1160 0
DWIDTH 29 0
BBX 30 19 -1 0
BITMAP
7C000000
CC0F0000
867FC000
30FBE000
31C07000
33803800
1B801870
03001C70
03001C70
03001C70
03001C70
03001C70
03001870
03803870
01803070
01C07070
00E0E030
07F1FC3C
07F1FC1C
ENDCHAR
STARTCHAR 1FB0
ENCODING 8112
SWIDTH 600 0
DWIDTH 15 0
BBX 14 19 1 0
BITMAP
18C0
18C0
0F80
0700
0000
0000
1FF0
3FF0
7070
6070
E070
E070
E070
E070
E070
6070
7070
3FFC
1F98
ENDCHAR
STARTCHAR 1FB1
ENCODING 8113
SWIDTH 600 0
DWIDTH 15 0
BBX 14 18 1 0
BITMAP
1FC0
1FC0
0000
0000
0000
1FF0
3FF0
7070
6070
E070
E070
E070
E070
E070
6070
7070
3FFC
1F98
ENDCHAR
STARTCHAR 1FB2
ENCODING 8114
SWIDTH 600 0
DWIDTH 15 0
BBX 14 24 1 -5
BITMAP
0C00
1E00
0700
0300
0000
0000
1FF0
3FF0
7070
6070
E070
E070
E070
E070
E070
6070
7070
3FFC
1F98
0000
0700
0700
0380
0180
ENDCHAR
STARTCHAR 1FB3
ENCODING 8115
SWIDTH 600 0
DWIDTH 15 0
BBX 14 18 1 -5
BITMAP
1FF0
3FF0
7070
6070
E070
E070
E070
E070
E070
6070
7070
3FFC
1F98
0000
0700
0700
0380
0180
ENDCHAR
STARTCHAR 1FB4
ENCODING 8116
SWIDTH 600 0
DWIDTH 15 0
BBX 14 24 1 -5
BITMAP
0080
03C0
0700
0600
0000
0000
1FF0
3FF0
7070
6070
E070
E070
E070
E070
E070
6070
7070
3FFC
1F98
0000
0700
0700
0380
0180
ENDCHAR
STARTCHAR 1FB6
ENCODING 8118
SWIDTH 600 0
DWIDTH 15 0
BBX 14 19 1 0
BITMAP
0700
0F80
18C0
18C0
0000
0000
1FF0
3FF0
7070
6070
E070
E070
E070
E070
E070
6070
7070
3FFC
1F98
ENDCHAR
STARTCHAR 1FB7
ENCODING 8119
SWIDTH 600 0
DWIDTH 15 0
BBX 14 24 1 -5
BITMAP
0700
0F80
18C0
18C0
0000
0000
1FF0
3FF0
7070
6070
E070
E070
E070
E070
E070
6070
7070
3FFC
1F98
0000
0700
0700
0380
0180
ENDCHAR
STARTCHAR 1FB8
ENCODING 8120
SWIDTH 640 0
DWIDTH 16 0
BBX 16 23 0 0
BITMAP
0430
0630
03E0
01C0
0000
0000
01C0
03C0
03E0
0760
0670
0670
0E30
0C38
1C18
181C
181C
3FFC
3FFE
700E
7006
6007
E003
ENDCHAR
STARTCHAR 1FB9
ENCODING 8121
SWIDTH 640 0
DWIDTH 16 0
BBX 16 22 0 0
BITMAP
07F0
07F0
0000
0000
0000
01C0
03C0
03E0
0760
0670
0670
0E30
0C38
1C18
181C
181C
3FFC
3FFE
700E
7006
6007
E003
ENDCHAR
STARTCHAR 1FBA
ENCODING 8122
SWIDTH 640 0
DWIDTH 16 0
BBX 16 17 0 1
BITMAP
C1C0
E3C0
63E0
3760
0670
0670
0E30
0C38
1C18
181C
181C
3FFC
3FFE
700E
7006
6007
E003
ENDCHAR
STARTCHAR 1FBB
ENCODING 8123
SWIDTH 640 0
DWIDTH 16 0
BBX 16 18 0 0
BITMAP
1000
19C0
33C0
63E0
4760
0670
0670
0E30
0C38
1C18
181C
181C
3FFC
3FFE
700E
7006
6007
E003
ENDCHAR
STARTCHAR 1FBC
ENCODING 8124
SWIDTH 920 0
DWIDTH 23 0
BBX 23 17 0 0
BITMAP
01C000
03C000
03E000
076000
067018
067018
0E3018
0C3818
1C1818
181C18
181C18
3FFC18
3FFE18
700E18
700618
60071E
E0030E
ENDCHAR
STARTCHAR 1FBD
ENCODING 8125
SWIDTH 360 0
DWIDTH 9 0
BBX 4 4 3 15
BITMAP
70
70
60
C0
ENDCHAR
STARTCHAR 1FBE
ENCODING 8126
SWIDTH 240 0
DWIDTH 6 0
BBX 4 4 2 -5
BITMAP
E0
E0
70
30
ENDCHAR
STARTCHAR 1FBF
ENCODING 8127
SWIDTH 360 0
DWIDTH 9 0
BBX 4 4 3 15
BITMAP
70
70
60
C0
ENDCHAR
STARTCHAR 1FC0
ENCODING 8128
SWIDTH 360 0
DWIDTH 9 0
BBX 7 4 1 15
BITMAP
38
7C
46
C6
ENDCHAR
STARTCHAR 1FC1
ENCODING 8129
SWIDTH 360 0
DWIDTH 9 0
BBX 8 7 1 15
BITMAP
10
7C
C6
C2
00
C7
C6
ENDCHAR
STARTCHAR 1FC2
ENCODING 8130
SWIDTH 560 0
DWIDTH 14 0
BBX 11 24 2 -5
BITMAP
1000
3800
0E00
0600
0000
0000
FF00
FF80
C1C0
C0C0
C0C0
C0C0
C0E0
C0E0
C0E0
C0E0
C0E0
C0E0
C0E0
00E0
C0E0
C0E0
70E0
30E0
ENDCHAR
STARTCHAR 1FC3
ENCODING 8131
SWIDTH 560 0
DWIDTH 14 0
BBX 11 18 2 -5
BITMAP
FF00
FF80
C1C0
C0C0
C0C0
C0C0
C0E0
C0E0
C0E0
C0E0
C0E0
C0E0
C0E0
00E0
C0E0
C0E0
70E0
30E0
ENDCHAR
STARTCHAR 1FC4
ENCODING 8132
SWIDTH 560 0
DWIDTH 14 0
BBX 11 24 2 -5
BITMAP
0300
0700
0E00
1C00
0000
0000
FF00
FF80
C1C0
C0C0
C0C0
C0C0
C0E0
C0E0
C0E0
C0E0
C0E0
C0E0
C0E0
00E0
C0E0
C0E0
70E0
30E0
ENDCHAR
STARTCHAR 1FC6
ENCODING 8134
SWIDTH 560 0
DWIDTH 14 0
BBX 11 24 2 -5
BITMAP
0C00
1F00
3100
2180
0000
0000
FF00
FF80
C1C0
C0C0
C0C0
C0C0
C0E0
C0E0
C0E0
C0E0
C0E0
C0E0
C0E0
00E0
00E0
00E0
00E0
00E0
ENDCHAR
STARTCHAR 1FC7
ENCODING 8135
SWIDTH 560 0
DWIDTH 14 0
BBX 11 24 2 -5
BITMAP
0C00
1F00
3100
2180
0000
0000
FF00
FF80
C1C0
C0C0
C0C0
C0C0
C0E0
C0E0
C0E0
C0E0
C0E0
C0E0
C0E0
00E0
C0E0
C0E0
70E0
30E0
ENDCHAR
STARTCHAR 1FC8
ENCODING 8136
SWIDTH 680 0
DWIDTH 17 0
BBX 16 17 0 1
BITMAP
C7FF
C7FF
6700
3700
0700
0700
0700
07FE
07FE
0700
0700
0700
0700
0700
0700
07FF
07FF
ENDCHAR
STARTCHAR 1FC9
ENCODING 8137
SWIDTH 680 0
DWIDTH 17 0
BBX 16 18 0 0
BITMAP
2000
77FF
67FF
C700
8700
0700
0700
0700
07FE
07FE
0700
0700
0700
0700
0700
0700
07FF
07FF
ENDCHAR
STARTCHAR 1FCA
ENCODING 8138
SWIDTH 800 0
DWIDTH 20 0
BBX 19 17 0 1
BITMAP
C700E0
C700E0
6700E0
3700E0
0700E0
0700E0
0700E0
07FFE0
07FFE0
0700E0
0700E0
0700E0
0700E0
0700E0
0700E0
0700E0
0700E0
ENDCHAR
STARTCHAR 1FCB
ENCODING 8139
SWIDTH 800 0
DWIDTH 20 0
BBX 19 18 0 0
BITMAP
200000
7700E0
6700E0
C700E0
8700E0
0700E0
0700E0
0700E0
07FFE0
07FFE0
0700E0
0700E0
0700E0
0700E0
0700E0
0700E0
0700E0
0700E0
ENDCHAR
STARTCHAR 1FCC
ENCODING 8140
SWIDTH 960 0
DWIDTH 24 0
BBX 22 17 2 0
BITMAP
E01800
E01800
E01800
E01800
E01830
E01830
E01830
FFF830
FFF830
E01830
E01830
E01830
E01830
E01830
E01830
E0183C
E0181C
ENDCHAR
STARTCHAR 1FCD
ENCODING 8141
SWIDTH 360 0
DWIDTH 9 0
BBX 8 5 1 14
BITMAP
40
EC
EE
46
C3
ENDCHAR
STARTCHAR 1FCE
ENCODING 8142
SWIDTH 360 0
DWIDTH 9 0
BBX 8 6 1 14
BITMAP
40
E7
E6
6C
D8
88
ENDCHAR
STARTCHAR 1FCF
ENCODING 8143
SWIDTH 360 0
DWIDTH 9 0
BBX 7 8 1 14
BITMAP
3C
7E
C2
18
38
18
30
20
ENDCHAR
STARTCHAR 1FD0
ENCODING 8144
SWIDTH 240 0
DWIDTH 6 0
BBX 7 19 0 0
BITMAP
86
C4
FC
38
00
00
30
30
30
30
30
30
30
30
30
30
38
3C
1C
ENDCHAR
STARTCHAR 1FD1
ENCODING 8145
SWIDTH 240 0
DWIDTH 6 0
BBX 7 18 0 0
BITMAP
FE
FE
00
00
00
30
30
30
30
30
30
30
30
30
30
38
3C
1C
ENDCHAR
STARTCHAR 1FD2
ENCODING 8146
SWIDTH 240 0
DWIDTH 6 0
BBX 10 19 -2 1
BITMAP
1800
ECC0
EDC0
0600
0000
0000
0C00
0C00
0C00
0C00
0C00
0C00
0C00
0C00
0C00
0C00
0E00
0F00
0700
ENDCHAR
STARTCHAR 1FD3
ENCODING 8147
SWIDTH 240 0
DWIDTH 6 0
BBX 10 19 -2 1
BITMAP
0600
EEC0
EDC0
1800
0800
0000
0C00
0C00
0C00
0C00
0C00
0C00
0C00
0C00
0C00
0C00
0E00
0F00
0700
ENDCHAR
STARTCHAR 1FD6
ENCODING 8150
SWIDTH 240 0
DWIDTH 6 0
BBX 6 19 0 0
BITMAP
30
FC
C4
84
00
00
30
30
30
30
30
30
30
30
30
30
38
3C
1C
ENDCHAR
STARTCHAR 1FD7
ENCODING 8151
SWIDTH 240 0
DWIDTH 6 0
BBX 8 22 -1 0
BITMAP
18
3E
62
43
00
E7
E7
00
00
18
18
18
18
18
18
18
18
18
18
1C
1E
0E
ENDCHAR
STARTCHAR 1FD8
ENCODING 8152
SWIDTH 240 0
DWIDTH 6 0
BBX 7 23 0 0
BITMAP
C6
C6
7C
38
00
00
38
38
38
38
38
38
38
38
38
38
38
38
38
38
38
38
38
ENDCHAR
STARTCHAR 1FD9
ENCODING 8153
SWIDTH 240 0
DWIDTH 6 0
BBX 7 22 0 0
BITMAP
FE
FE
00
00
00
38
38
38
38
38
38
38
38
38
38
38
38
38
38
38
38
38
ENDCHAR
STARTCHAR 1FDA
ENCODING 8154
SWIDTH 360 0
DWIDTH 9 0
BBX 8 17 0 1
BITMAP
C7
C7
67
37
07
07
07
07
07
07
07
07
07
07
07
07
07
ENDCHAR
STARTCHAR 1FDB
ENCODING 8155
SWIDTH 360 0
DWIDTH 9 0
BBX 8 18 0 0
BITMAP
20
77
67
C7
87
07
07
07
07
07
07
07
07
07
07
07
07
07
ENDCHAR
STARTCHAR 1FDD
ENCODING 8157
SWIDTH 360 0
DWIDTH 9 0
BBX 8 5 1 15
BITMAP
CC
CC
C6
63
02
ENDCHAR
STARTCHAR 1FDE
ENCODING 8158
SWIDTH 360 0
DWIDTH 9 0
BBX 9 4 0 15
BITMAP
E180
E300
6700
3600
ENDCHAR
STARTCHAR 1FDF
ENCODING 8159
SWIDTH 360 0
DWIDTH 9 0
BBX 7 7 1 14
BITMAP
3C
7E
C2
10
38
10
18
ENDCHAR
STARTCHAR 1FE0
ENCODING 8160
SWIDTH 560 0
DWIDTH 14 0
BBX 11 19 2 0
BITMAP
2180
3100
1F00
0E00
0000
0000
C0E0
C0E0
C0E0
C0E0
C0E0
C0E0
C0E0
C0E0
C0E0
E0C0
E1C0
7FC0
3F00
ENDCHAR
STARTCHAR 1FE1
ENCODING 8161
SWIDTH 560 0
DWIDTH 14 0
BBX 11 18 2 0
BITMAP
3F80
3F80
0000
0000
0000
C0E0
C0E0
C0E0
C0E0
C0E0
C0E0
C0E0
C0E0
C0E0
E0C0
E1C0
7FC0
3F00
ENDCHAR
STARTCHAR 1FE2
ENCODING 8162
SWIDTH 560 0
DWIDTH 14 0
BBX 11 19 2 1
BITMAP
1800
ECC0
ECC0
0600
0000
0000
C0E0
C0E0
C0E0
C0E0
C0E0
C0E0
C0E0
C0E0
C0E0
E0C0
E1C0
7FC0
3F00
ENDCHAR
STARTCHAR 1FE3
ENCODING 8163
SWIDTH 560 0
DWIDTH 14 0
BBX 11 19 2 1
BITMAP
0600
EEC0
ECC0
1800
0800
0000
C0E0
C0E0
C0E0
C0E0
C0E0
C0E0
C0E0
C0E0
C0E0
E0C0
E1C0
7FC0
3F00
ENDCHAR
STARTCHAR 1FE4
ENCODING 8164
SWIDTH 560 0
DWIDTH 14 0
BBX 12 24 2 -4
BITMAP
0600
0600
0600
0C00
0000
0000
3F80
7FC0
60E0
E060
C060
C070
C070
C070
C060
C0E0
E0E0
FFC0
FF80
C000
C000
C000
C000
C000
ENDCHAR
STARTCHAR 1FE5
ENCODING 8165
SWIDTH 560 0
DWIDTH 14 0
BBX 12 24 2 -4
BITMAP
0C00
0C00
0C00
0600
0000
0000
3F80
7FC0
60E0
E060
C060
C070
C070
C070
C060
C0E0
E0E0
FFC0
FF80
C000
C000
C000
C000
C000
ENDCHAR
STARTCHAR 1FE6
ENCODING 8166
SWIDTH 560 0
DWIDTH 14 0
BBX 11 19 2 0
BITMAP
0E00
1F00
3100
2180
0000
0000
C0E0
C0E0
C0E0
C0E0
C0E0
C0E0
C0E0
C0E0
C0E0
E0C0
E1C0
7FC0
3F00
ENDCHAR
STARTCHAR 1FE7
ENCODING 8167
SWIDTH 560 0
DWIDTH 14 0
BBX 11 22 2 0
BITMAP
0C00
1F00
3100
2180
0000
7380
7380
0000
0000
C0E0
C0E0
C0E0
C0E0
C0E0
C0E0
C0E0
C0E0
C0E0
E0C0
E1C0
7FC0
3F00
ENDCHAR
STARTCHAR 1FE8
ENCODING 8168
SWIDTH 560 0
DWIDTH 14 0
BBX 13 23 1 0
BITMAP
18C0
18C0
0F80
0700
0000
0000
C018
E038
6030
7070
3060
38E0
1DC0
0D80
0F80
0700
0700
0700
0700
0700
0700
0700
0700
ENDCHAR
STARTCHAR 1FE9
ENCODING 8169
SWIDTH 560 0
DWIDTH 14 0
BBX 13 22 1 0
BITMAP
1FC0
1FC0
0000
0000
0000
C018
E038
6030
7070
3060
38E0
1DC0
0D80
0F80
0700
0700
0700
0700
0700
0700
0700
0700
ENDCHAR
STARTCHAR 1FEA
ENCODING 8170
SWIDTH 720 0
DWIDTH 18 0
BBX 18 17 0 1
BITMAP
CE01C0
C60180
670380
330300
038700
01C600
00CC00
00FC00
007800
007800
003000
003000
003000
003000
003000
003000
003000
ENDCHAR
STARTCHAR 1FEB
ENCODING 8171
SWIDTH 760 0
DWIDTH 19 0
BBX 19 18 0 0
BITMAP
200000
7700E0
6300C0
C381C0
81C180
01C380
00E300
006600
007E00
003C00
001C00
001800
001800
001800
001800
001800
001800
001800
ENDCHAR
STARTCHAR 1FEC
ENCODING 8172
SWIDTH 640 0
DWIDTH 16 0
BBX 17 18 -1 0
BITMAP
404000
E7FC00
E7FF00
660700
360380
060380
060380
060380
060700
07FF00
07FC00
07C000
060000
060000
060000
060000
060000
060000
ENDCHAR
STARTCHAR 1FED
ENCODING 8173
SWIDTH 360 0
DWIDTH 9 0
BBX 10 4 0 15
BITMAP
1800
D9C0
CDC0
0600
ENDCHAR
STARTCHAR 1FEE
ENCODING 8174
SWIDTH 360 0
DWIDTH 9 0
BBX 10 4 0 15
BITMAP
0E00
CDC0
D9C0
1800
ENDCHAR
STARTCHAR 1FEF
ENCODING 8175
SWIDTH 360 0
DWIDTH 9 0
BBX 5 4 1 14
BITMAP
60
F0
38
18
ENDCHAR
STARTCHAR 1FF2
ENCODING 8178
SWIDTH 800 0
DWIDTH 20 0
BBX 19 24 1 -5
BITMAP
010000
03C000
00E000
006000
000000
000000
380380
300180
70E1C0
60E0C0
60E0C0
E0E0C0
E0E0E0
E0E0E0
60E0C0
60E0C0
71F1C0
3FBF80
1F1F00
000000
00E000
00E000
007000
003000
ENDCHAR
STARTCHAR 1FF3
ENCODING 8179
SWIDTH 800 0
DWIDTH 20 0
BBX 19 18 1 -5
BITMAP
380380
300180
70E1C0
60E0C0
60E0C0
E0E0C0
E0E0E0
E0E0E0
60E0C0
60E0C0
71F1C0
3FBF80
1F1F00
000000
00E000
00E000
007000
003000
ENDCHAR
STARTCHAR 1FF4
ENCODING 8180
SWIDTH 800 0
DWIDTH 20 0
BBX 19 24 1 -5
BITMAP
003000
007800
00E000
00C000
000000
000000
380380
300180
70E1C0
60E0C0
60E0C0
E0E0C0
E0E0E0
E0E0E0
60E0C0
60E0C0
71F1C0
3FBF80
1F1F00
000000
00E000
00E000
007000
003000
ENDCHAR
STARTCHAR 1FF6
ENCODING 8182
SWIDTH 800 0
DWIDTH 20 0
BBX 19 19 1 0
BITMAP
00E000
01F000
031800
031800
000000
000000
380380
300180
70E1C0
60E0C0
60E0C0
E0E0C0
E0E0E0
E0E0E0
60E0C0
60E0C0
71F1C0
3FBF80
1F1F00
ENDCHAR
STARTCHAR 1FF7
ENCODING 8183
SWIDTH 800 0
DWIDTH 20 0
BBX 19 24 1 -5
BITMAP
00E000
01F000
031800
031800
000000
000000
380380
300180
70E1C0
60E0C0
60E0C0
E0E0C0
E0E0E0
E0E0E0
60E0C0
60E0C0
71F1C0
3FBF80
1F1F00
000000
00E000
00E000
007000
003000
ENDCHAR
STARTCHAR 1FF8
ENCODING 8184
SWIDTH 880 0
DWIDTH 22 0
BBX 21 18 0 0
BITMAP
003C00
C0FF80
C1F7C0
6380E0
370070
060070
0E0030
0E0030
0E0038
0E0038
0E0038
0E0030
0E0070
070070
0700E0
0381E0
01FFC0
00FF00
ENDCHAR
STARTCHAR 1FF9
ENCODING 8185
SWIDTH 800 0
DWIDTH 20 0
BBX 19 18 0 0
BITMAP
207800
71FF00
67EF80
C703C0
8E01C0
1C00E0
1C00E0
1C0060
180060
180060
180060
1C0060
1C00E0
0C00E0
0E01C0
0703C0
03FF80
01FE00
ENDCHAR
STARTCHAR 1FFA
ENCODING 8186
SWIDTH 880 0
DWIDTH 22 0
BBX 21 18 0 0
BITMAP
003C00
C0FF80
C1F7C0
6380E0
370060
060070
0E0030
0E0030
0E0030
0E0030
0E0030
060070
060070
070060
0380C0
01C1C0
0FC3F8
0FC3F8
ENDCHAR
STARTCHAR 1FFB
ENCODING 8187
SWIDTH 800 0
DWIDTH 20 0
BBX 20 18 0 0
BITMAP
207800
71FF00
67EF80
C701C0
8E01C0
1C00E0
1C00E0
1C0060
1C0060
1C0060
1C0060
1C00E0
0C00C0
0E01C0
060180
030300
1F87F0
1F87F0
ENDCHAR
STARTCHAR 1FFC
ENCODING 8188
SWIDTH 1040 0
DWIDTH 26 0
BBX 25 18 1 0
BITMAP
01E00000
0FF80000
1F7E0000
380E0000
30070000
70030600
70038600
60038600
60038600
60038600
60038600
70030600
70030600
30070600
180E0600
1C0C0600
FE1F8780
FE1F8380
ENDCHAR
STARTCHAR 1FFD
ENCODING 8189
SWIDTH 360 0
DWIDTH 9 0
BBX 5 4 3 14
BITMAP
18
38
70
C0
ENDCHAR
STARTCHAR 1FFE
ENCODING 8190
SWIDTH 360 0
DWIDTH 9 0
BBX 3 5 3 15
BITMAP
E0
E0
C0
60
20
ENDCHAR
STARTCHAR 2013
ENCODING 8211
SWIDTH 480 0
DWIDTH 12 0
BBX 12 2 0 6
BITMAP
FFF0
FFF0
ENDCHAR
STARTCHAR 2014
ENCODING 8212
SWIDTH 960 0
DWIDTH 24 0
BBX 25 2 0 6
BITMAP
FFFFFF80
FFFFFF80
ENDCHAR
STARTCHAR 2015
ENCODING 8213
SWIDTH 960 0
DWIDTH 24 0
BBX 25 2 0 6
BITMAP
FFFFFF80
FFFFFF80
ENDCHAR
STARTCHAR 2018
ENCODING 8216
SWIDTH 200 0
DWIDTH 5 0
BBX 4 6 1 13
BITMAP
30
70
60
60
60
E0
ENDCHAR
STARTCHAR 2019
ENCODING 8217
SWIDTH 200 0
DWIDTH 5 0
BBX 3 6 1 13
BITMAP
60
60
60
60
E0
C0
ENDCHAR
STARTCHAR 201A
ENCODING 8218
SWIDTH 200 0
DWIDTH 5 0
BBX 3 6 1 -3
BITMAP
60
60
60
60
C0
C0
ENDCHAR
STARTCHAR 201C
ENCODING 8220
SWIDTH 400 0
DWIDTH 10 0
BBX 8 6 1 13
BITMAP
33
73
63
67
67
E7
ENDCHAR
STARTCHAR 201D
ENCODING 8221
SWIDTH 400 0
DWIDTH 10 0
BBX 8 6 1 13
BITMAP
67
67
67
66
E6
CE
ENDCHAR
STARTCHAR 201E
ENCODING 8222
SWIDTH 400 0
DWIDTH 10 0
BBX 8 6 1 -3
BITMAP
67
67
67
66
C6
CE
ENDCHAR
STARTCHAR 2020
ENCODING 8224
SWIDTH 440 0
DWIDTH 11 0
BBX 10 21 1 -4
BITMAP
0C00
0C00
0C00
0C00
0C00
FFC0
FFC0
0C00
0C00
0C00
0C00
0C00
0C00
0C00
0C00
0C00
0C00
0C00
0C00
0C00
0C00
ENDCHAR
STARTCHAR 2021
ENCODING 8225
SWIDTH 440 0
DWIDTH 11 0
BBX 10 21 1 -4
BITMAP
0C00
0C00
0C00
0C00
0C00
FFC0
FFC0
0C00
0C00
0C00
0C00
0C00
FFC0
FFC0
0C00
0C00
0C00
0C00
0C00
0C00
0C00
ENDCHAR
STARTCHAR 2022
ENCODING 8226
SWIDTH 360 0
DWIDTH 9 0
BBX 7 6 1 6
BITMAP
38
7C
FE
FE
7C
7C
ENDCHAR
STARTCHAR 2026
ENCODING 8230
SWIDTH 960 0
DWIDTH 24 0
BBX 20 3 2 0
BITMAP
607030
F07070
707070
ENDCHAR
STARTCHAR 2030
ENCODING 8240
SWIDTH 1200 0
DWIDTH 30 0
BBX 28 18 1 0
BITMAP
1C000000
7E060000
670E0000
C30C0000
C31C0000
C3180000
E3300000
67300000
3E600000
00E381C0
00CFC7E0
01CC6630
01986630
03986C30
03186C30
061C6630
060EE770
0C07C3E0
ENDCHAR
STARTCHAR 2039
ENCODING 8249
SWIDTH 280 0
DWIDTH 7 0
BBX 5 10 1 3
BITMAP
18
38
70
60
E0
E0
60
30
38
18
ENDCHAR
STARTCHAR 203A
ENCODING 8250
SWIDTH 280 0
DWIDTH 7 0
BBX 5 11 1 2
BITMAP
40
C0
60
70
38
18
38
30
70
60
C0
ENDCHAR
STARTCHAR 2044
ENCODING 8260
SWIDTH 120 0
DWIDTH 3 0
BBX 11 17 -4 0
BITMAP
0060
0060
00C0
01C0
0180
0380
0300
0600
0600
0C00
1C00
1800
3800
3000
6000
6000
C000
ENDCHAR
STARTCHAR 2070
ENCODING 8304
SWIDTH 320 0
DWIDTH 8 0
BBX 7 10 1 8
BITMAP
38
7C
C6
C6
C6
C6
C6
C6
EE
7C
ENDCHAR
STARTCHAR 2074
ENCODING 8308
SWIDTH 320 0
DWIDTH 8 0
BBX 7 10 1 8
BITMAP
0C
1C
1C
3C
6C
CC
FE
FE
0C
0C
ENDCHAR
STARTCHAR 2075
ENCODING 8309
SWIDTH 320 0
DWIDTH 8 0
BBX 7 10 1 8
BITMAP
7E
7E
60
60
78
7C
06
06
8E
FC
ENDCHAR
STARTCHAR 2076
ENCODING 8310
SWIDTH 320 0
DWIDTH 8 0
BBX 7 10 1 8
BITMAP
04
3C
70
C0
FC
EE
C6
C6
E6
7C
ENDCHAR
STARTCHAR 2077
ENCODING 8311
SWIDTH 320 0
DWIDTH 8 0
BBX 7 10 1 8
BITMAP
FE
FE
06
0C
18
18
30
30
20
60
ENDCHAR
STARTCHAR 2078
ENCODING 8312
SWIDTH 320 0
DWIDTH 8 0
BBX 7 10 1 8
BITMAP
38
7C
C6
C6
7C
7C
C6
C6
C6
7C
ENDCHAR
STARTCHAR 2079
ENCODING 8313
SWIDTH 320 0
DWIDTH 8 0
BBX 7 10 1 8
BITMAP
38
FC
C6
C6
C6
FE
16
0C
3C
F0
ENDCHAR
STARTCHAR 2080
ENCODING 8320
SWIDTH 320 0
DWIDTH 8 0
BBX 7 10 1 0
BITMAP
38
7C
C6
C6
C6
C6
C6
C6
EC
7C
ENDCHAR
STARTCHAR 2081
ENCODING 8321
SWIDTH 320 0
DWIDTH 8 0
BBX 5 10 1 0
BITMAP
18
38
F8
18
18
18
18
18
18
18
ENDCHAR
STARTCHAR 2082
ENCODING 8322
SWIDTH 320 0
DWIDTH 8 0
BBX 7 10 1 0
BITMAP
78
FC
04
0C
0C
18
30
60
FE
FE
ENDCHAR
STARTCHAR 2083
ENCODING 8323
SWIDTH 320 0
DWIDTH 8 0
BBX 7 10 1 0
BITMAP
78
FC
0C
0C
38
3C
06
06
DC
FC
ENDCHAR
STARTCHAR 2084
ENCODING 8324
SWIDTH 320 0
DWIDTH 8 0
BBX 7 10 1 0
BITMAP
0C
1C
3C
2C
6C
CC
FE
FE
0C
0C
ENDCHAR
STARTCHAR 2085
ENCODING 8325
SWIDTH 320 0
DWIDTH 8 0
BBX 7 10 1 0
BITMAP
7E
7E
60
60
78
1C
06
06
DE
FC
ENDCHAR
STARTCHAR 2086
ENCODING 8326
SWIDTH 320 0
DWIDTH 8 0
BBX 7 10 1 0
BITMAP
0C
3E
70
C0
FC
CE
C6
C6
E6
7C
ENDCHAR
STARTCHAR 2087
ENCODING 8327
SWIDTH 320 0
DWIDTH 8 0
BBX 7 10 1 0
BITMAP
FE
FE
0C
0C
18
18
30
30
20
60
ENDCHAR
STARTCHAR 2088
ENCODING 8328
SWIDTH 320 0
DWIDTH 8 0
BBX 7 10 1 0
BITMAP
38
FC
C6
C6
7C
7C
C6
C6
CE
7C
ENDCHAR
STARTCHAR 2089
ENCODING 8329
SWIDTH 320 0
DWIDTH 8 0
BBX 7 10 1 0
BITMAP
38
FC
C6
C6
C6
7E
06
0C
F8
F0
ENDCHAR
STARTCHAR 20AC
ENCODING 8364
SWIDTH 560 0
DWIDTH 14 0
BBX 13 18 1 0
BITMAP
01E0
07F0
0F10
1C00
1800
1800
FFE0
FFC0
3800
3800
3800
FFC0
3800
1800
1C00
1C00
0FF8
07F8
ENDCHAR
STARTCHAR 20AE
ENCODING 8366
SWIDTH 560 0
DWIDTH 14 0
BBX 12 17 1 0
BITMAP
FFF0
FFF0
0600
0600
0640
07E0
0780
1E00
7E00
2640
07E0
0F80
3E00
3600
0600
0600
0600
ENDCHAR
STARTCHAR 20B4
ENCODING 8372
SWIDTH 560 0
DWIDTH 14 0
BBX 12 18 1 0
BITMAP
0E00
3FC0
31C0
00E0
0060
0060
FFF0
FFF0
0380
0F00
3C00
FFF0
7000
6000
6000
7000
3FE0
1FE0
ENDCHAR
STARTCHAR 20B9
ENCODING 8377
SWIDTH 560 0
DWIDTH 14 0
BBX 12 17 2 0
BITMAP
FFF0
0F00
0380
0180
FFE0
FFE0
0380
0700
FE00
F800
E000
7000
3800
1C00
0E00
0700
0700
ENDCHAR
STARTCHAR 2113
ENCODING 8467
SWIDTH 440 0
DWIDTH 11 0
BBX 10 19 0 0
BITMAP
0F80
1FC0
18C0
18C0
18C0
18C0
18C0
1880
1980
1B00
1E00
1E00
1800
7800
F800
1800
1C00
1FC0
0FC0
ENDCHAR
STARTCHAR 2116
ENCODING 8470
SWIDTH 1120 0
DWIDTH 28 0
BBX 25 18 2 0
BITMAP
00001800
E01C7E00
F01CE300
F81CC180
D81CC180
DC1CC180
CE1CC180
C61CE300
C71C7F00
C39C1C00
C19C0000
C1DC0000
C0FCFF80
C07CFF80
C07C0000
C03C0000
C03C0000
C01C0000
ENDCHAR
STARTCHAR 2122
ENCODING 8482
SWIDTH 720 0
DWIDTH 18 0
BBX 17 8 1 9
BITMAP
FFC300
31C700
31E700
31ED00
31BD00
31B980
319980
318180
ENDCHAR
STARTCHAR 2126
ENCODING 8486
SWIDTH 760 0
DWIDTH 19 0
BBX 17 18 1 0
BITMAP
01E000
0FF800
1F7E00
380E00
300700
700300
700380
600380
600380
600380
600380
700300
700300
300700
180E00
1C0C00
FE1F80
FE1F80
ENDCHAR
STARTCHAR 212E
ENCODING 8494
SWIDTH 920 0
DWIDTH 23 0
BBX 20 18 2 0
BITMAP
00F000
070E00
180100
300080
6000C0
6000E0
E000E0
E000E0
E000F0
FFFFF0
E00000
E00000
E00000
600000
600000
300180
080300
07FC00
ENDCHAR
STARTCHAR 2153
ENCODING 8531
SWIDTH 840 0
DWIDTH 21 0
BBX 20 18 1 0
BITMAP
080000
380600
F80C00
580C00
181800
183800
183000
186000
1863C0
18C7E0
00C060
018060
0381C0
0301E0
070030
060030
0C06E0
0C07C0
ENDCHAR
STARTCHAR 2154
ENCODING 8532
SWIDTH 840 0
DWIDTH 21 0
BBX 20 18 1 0
BITMAP
380000
FC0600
8C0600
0C0C00
0C1C00
181800
303800
603000
C063C0
FE67E0
00C060
00C060
0181C0
0381E0
030030
070030
0606E0
0C07C0
ENDCHAR
STARTCHAR 2155
ENCODING 8533
SWIDTH 840 0
DWIDTH 21 0
BBX 20 18 1 0
BITMAP
080000
380600
F80C00
580C00
181800
183800
183000
186000
1863E0
18C3E0
00C200
018200
0383C0
0300E0
070030
060030
0C06E0
0C07E0
ENDCHAR
STARTCHAR 2156
ENCODING 8534
SWIDTH 840 0
DWIDTH 21 0
BBX 20 18 1 0
BITMAP
380000
FC0300
8C0600
0C0E00
0C0C00
181C00
301800
603000
C033E0
FE63E0
00E200
00C200
01C3C0
0180E0
030030
030030
0606E0
0607E0
ENDCHAR
STARTCHAR 2157
ENCODING 8535
SWIDTH 840 0
DWIDTH 21 0
BBX 20 18 1 0
BITMAP
380000
FC0600
0C0600
0C0C00
381C00
3C1800
063800
063000
8E63E0
FC63E0
00C200
00C200
0183C0
0380E0
030030
070030
0606E0
0C07E0
ENDCHAR
ENDFONT
